<?xml version="1.0" encoding="utf-8" standalone="no"?>
<!DOCTYPE svg PUBLIC "-//W3C//DTD SVG 1.1//EN"
  "http://www.w3.org/Graphics/SVG/1.1/DTD/svg11.dtd">
<svg height="444.984472pt" version="1.1" viewBox="0 0 720 444.984472" width="720pt" xmlns="http://www.w3.org/2000/svg" xmlns:xlink="http://www.w3.org/1999/xlink">
 <metadata>
  <rdf:RDF xmlns:cc="http://creativecommons.org/ns#" xmlns:dc="http://purl.org/dc/elements/1.1/" xmlns:rdf="http://www.w3.org/1999/02/22-rdf-syntax-ns#">
   <cc:Work>
    <dc:type rdf:resource="http://purl.org/dc/dcmitype/StillImage"/>
    <dc:date>2021-05-20T15:34:09.853462</dc:date>
    <dc:format>image/svg+xml</dc:format>
    <dc:creator>
     <cc:Agent>
      <dc:title>Matplotlib v3.4.2, https://matplotlib.org/</dc:title>
     </cc:Agent>
    </dc:creator>
   </cc:Work>
  </rdf:RDF>
 </metadata>
 <defs>
  <style type="text/css">*{stroke-linecap:butt;stroke-linejoin:round;}</style>
 </defs>
 <g id="figure_1">
  <g id="patch_1">
   <path d="M 0 444.984472 
L 720 444.984472 
L 720 0 
L 0 0 
z
" style="fill:#ffffff;"/>
  </g>
  <g id="axes_1">
   <g id="patch_2">
    <path d="M 108 378.236801 
L 648 378.236801 
L 648 53.398137 
L 108 53.398137 
z
" style="fill:#ffffff;"/>
   </g>
   <g id="matplotlib.axis_1">
    <g id="xtick_1">
     <g id="line2d_1">
      <path clip-path="url(#p5fbe16267b)" d="M 132.545455 378.236801 
L 132.545455 53.398137 
" style="fill:none;stroke:#b0b0b0;stroke-linecap:square;stroke-width:0.8;"/>
     </g>
     <g id="line2d_2">
      <defs>
       <path d="M 0 0 
L 0 3.5 
" id="m163a6b14fc" style="stroke:#000000;stroke-width:0.8;"/>
      </defs>
      <g>
       <use style="stroke:#000000;stroke-width:0.8;" x="132.545455" xlink:href="#m163a6b14fc" y="378.236801"/>
      </g>
     </g>
     <g id="text_1">
      <!-- 2019-04 -->
      <g transform="translate(111.654048 399.335239)scale(0.1 -0.1)">
       <defs>
        <path d="M 1228 531 
L 3431 531 
L 3431 0 
L 469 0 
L 469 531 
Q 828 903 1448 1529 
Q 2069 2156 2228 2338 
Q 2531 2678 2651 2914 
Q 2772 3150 2772 3378 
Q 2772 3750 2511 3984 
Q 2250 4219 1831 4219 
Q 1534 4219 1204 4116 
Q 875 4013 500 3803 
L 500 4441 
Q 881 4594 1212 4672 
Q 1544 4750 1819 4750 
Q 2544 4750 2975 4387 
Q 3406 4025 3406 3419 
Q 3406 3131 3298 2873 
Q 3191 2616 2906 2266 
Q 2828 2175 2409 1742 
Q 1991 1309 1228 531 
z
" id="DejaVuSans-32" transform="scale(0.015625)"/>
        <path d="M 2034 4250 
Q 1547 4250 1301 3770 
Q 1056 3291 1056 2328 
Q 1056 1369 1301 889 
Q 1547 409 2034 409 
Q 2525 409 2770 889 
Q 3016 1369 3016 2328 
Q 3016 3291 2770 3770 
Q 2525 4250 2034 4250 
z
M 2034 4750 
Q 2819 4750 3233 4129 
Q 3647 3509 3647 2328 
Q 3647 1150 3233 529 
Q 2819 -91 2034 -91 
Q 1250 -91 836 529 
Q 422 1150 422 2328 
Q 422 3509 836 4129 
Q 1250 4750 2034 4750 
z
" id="DejaVuSans-30" transform="scale(0.015625)"/>
        <path d="M 794 531 
L 1825 531 
L 1825 4091 
L 703 3866 
L 703 4441 
L 1819 4666 
L 2450 4666 
L 2450 531 
L 3481 531 
L 3481 0 
L 794 0 
L 794 531 
z
" id="DejaVuSans-31" transform="scale(0.015625)"/>
        <path d="M 703 97 
L 703 672 
Q 941 559 1184 500 
Q 1428 441 1663 441 
Q 2288 441 2617 861 
Q 2947 1281 2994 2138 
Q 2813 1869 2534 1725 
Q 2256 1581 1919 1581 
Q 1219 1581 811 2004 
Q 403 2428 403 3163 
Q 403 3881 828 4315 
Q 1253 4750 1959 4750 
Q 2769 4750 3195 4129 
Q 3622 3509 3622 2328 
Q 3622 1225 3098 567 
Q 2575 -91 1691 -91 
Q 1453 -91 1209 -44 
Q 966 3 703 97 
z
M 1959 2075 
Q 2384 2075 2632 2365 
Q 2881 2656 2881 3163 
Q 2881 3666 2632 3958 
Q 2384 4250 1959 4250 
Q 1534 4250 1286 3958 
Q 1038 3666 1038 3163 
Q 1038 2656 1286 2365 
Q 1534 2075 1959 2075 
z
" id="DejaVuSans-39" transform="scale(0.015625)"/>
        <path d="M 313 2009 
L 1997 2009 
L 1997 1497 
L 313 1497 
L 313 2009 
z
" id="DejaVuSans-2d" transform="scale(0.015625)"/>
        <path d="M 2419 4116 
L 825 1625 
L 2419 1625 
L 2419 4116 
z
M 2253 4666 
L 3047 4666 
L 3047 1625 
L 3713 1625 
L 3713 1100 
L 3047 1100 
L 3047 0 
L 2419 0 
L 2419 1100 
L 313 1100 
L 313 1709 
L 2253 4666 
z
" id="DejaVuSans-34" transform="scale(0.015625)"/>
       </defs>
       <use xlink:href="#DejaVuSans-32"/>
       <use x="63.623047" xlink:href="#DejaVuSans-30"/>
       <use x="127.246094" xlink:href="#DejaVuSans-31"/>
       <use x="190.869141" xlink:href="#DejaVuSans-39"/>
       <use x="254.492188" xlink:href="#DejaVuSans-2d"/>
       <use x="290.576172" xlink:href="#DejaVuSans-30"/>
       <use x="354.199219" xlink:href="#DejaVuSans-34"/>
      </g>
     </g>
    </g>
    <g id="xtick_2">
     <g id="line2d_3">
      <path clip-path="url(#p5fbe16267b)" d="M 190.039312 378.236801 
L 190.039312 53.398137 
" style="fill:none;stroke:#b0b0b0;stroke-linecap:square;stroke-width:0.8;"/>
     </g>
     <g id="line2d_4">
      <g>
       <use style="stroke:#000000;stroke-width:0.8;" x="190.039312" xlink:href="#m163a6b14fc" y="378.236801"/>
      </g>
     </g>
     <g id="text_2">
      <!-- 2019-07 -->
      <g transform="translate(169.147906 399.335239)scale(0.1 -0.1)">
       <defs>
        <path d="M 525 4666 
L 3525 4666 
L 3525 4397 
L 1831 0 
L 1172 0 
L 2766 4134 
L 525 4134 
L 525 4666 
z
" id="DejaVuSans-37" transform="scale(0.015625)"/>
       </defs>
       <use xlink:href="#DejaVuSans-32"/>
       <use x="63.623047" xlink:href="#DejaVuSans-30"/>
       <use x="127.246094" xlink:href="#DejaVuSans-31"/>
       <use x="190.869141" xlink:href="#DejaVuSans-39"/>
       <use x="254.492188" xlink:href="#DejaVuSans-2d"/>
       <use x="290.576172" xlink:href="#DejaVuSans-30"/>
       <use x="354.199219" xlink:href="#DejaVuSans-37"/>
      </g>
     </g>
    </g>
    <g id="xtick_3">
     <g id="line2d_5">
      <path clip-path="url(#p5fbe16267b)" d="M 248.16497 378.236801 
L 248.16497 53.398137 
" style="fill:none;stroke:#b0b0b0;stroke-linecap:square;stroke-width:0.8;"/>
     </g>
     <g id="line2d_6">
      <g>
       <use style="stroke:#000000;stroke-width:0.8;" x="248.16497" xlink:href="#m163a6b14fc" y="378.236801"/>
      </g>
     </g>
     <g id="text_3">
      <!-- 2019-10 -->
      <g transform="translate(227.273564 399.335239)scale(0.1 -0.1)">
       <use xlink:href="#DejaVuSans-32"/>
       <use x="63.623047" xlink:href="#DejaVuSans-30"/>
       <use x="127.246094" xlink:href="#DejaVuSans-31"/>
       <use x="190.869141" xlink:href="#DejaVuSans-39"/>
       <use x="254.492188" xlink:href="#DejaVuSans-2d"/>
       <use x="290.576172" xlink:href="#DejaVuSans-31"/>
       <use x="354.199219" xlink:href="#DejaVuSans-30"/>
      </g>
     </g>
    </g>
    <g id="xtick_4">
     <g id="line2d_7">
      <path clip-path="url(#p5fbe16267b)" d="M 306.290628 378.236801 
L 306.290628 53.398137 
" style="fill:none;stroke:#b0b0b0;stroke-linecap:square;stroke-width:0.8;"/>
     </g>
     <g id="line2d_8">
      <g>
       <use style="stroke:#000000;stroke-width:0.8;" x="306.290628" xlink:href="#m163a6b14fc" y="378.236801"/>
      </g>
     </g>
     <g id="text_4">
      <!-- 2020-01 -->
      <g transform="translate(285.399222 399.335239)scale(0.1 -0.1)">
       <use xlink:href="#DejaVuSans-32"/>
       <use x="63.623047" xlink:href="#DejaVuSans-30"/>
       <use x="127.246094" xlink:href="#DejaVuSans-32"/>
       <use x="190.869141" xlink:href="#DejaVuSans-30"/>
       <use x="254.492188" xlink:href="#DejaVuSans-2d"/>
       <use x="290.576172" xlink:href="#DejaVuSans-30"/>
       <use x="354.199219" xlink:href="#DejaVuSans-31"/>
      </g>
     </g>
    </g>
    <g id="xtick_5">
     <g id="line2d_9">
      <path clip-path="url(#p5fbe16267b)" d="M 363.784486 378.236801 
L 363.784486 53.398137 
" style="fill:none;stroke:#b0b0b0;stroke-linecap:square;stroke-width:0.8;"/>
     </g>
     <g id="line2d_10">
      <g>
       <use style="stroke:#000000;stroke-width:0.8;" x="363.784486" xlink:href="#m163a6b14fc" y="378.236801"/>
      </g>
     </g>
     <g id="text_5">
      <!-- 2020-04 -->
      <g transform="translate(342.89308 399.335239)scale(0.1 -0.1)">
       <use xlink:href="#DejaVuSans-32"/>
       <use x="63.623047" xlink:href="#DejaVuSans-30"/>
       <use x="127.246094" xlink:href="#DejaVuSans-32"/>
       <use x="190.869141" xlink:href="#DejaVuSans-30"/>
       <use x="254.492188" xlink:href="#DejaVuSans-2d"/>
       <use x="290.576172" xlink:href="#DejaVuSans-30"/>
       <use x="354.199219" xlink:href="#DejaVuSans-34"/>
      </g>
     </g>
    </g>
    <g id="xtick_6">
     <g id="line2d_11">
      <path clip-path="url(#p5fbe16267b)" d="M 421.278343 378.236801 
L 421.278343 53.398137 
" style="fill:none;stroke:#b0b0b0;stroke-linecap:square;stroke-width:0.8;"/>
     </g>
     <g id="line2d_12">
      <g>
       <use style="stroke:#000000;stroke-width:0.8;" x="421.278343" xlink:href="#m163a6b14fc" y="378.236801"/>
      </g>
     </g>
     <g id="text_6">
      <!-- 2020-07 -->
      <g transform="translate(400.386937 399.335239)scale(0.1 -0.1)">
       <use xlink:href="#DejaVuSans-32"/>
       <use x="63.623047" xlink:href="#DejaVuSans-30"/>
       <use x="127.246094" xlink:href="#DejaVuSans-32"/>
       <use x="190.869141" xlink:href="#DejaVuSans-30"/>
       <use x="254.492188" xlink:href="#DejaVuSans-2d"/>
       <use x="290.576172" xlink:href="#DejaVuSans-30"/>
       <use x="354.199219" xlink:href="#DejaVuSans-37"/>
      </g>
     </g>
    </g>
    <g id="xtick_7">
     <g id="line2d_13">
      <path clip-path="url(#p5fbe16267b)" d="M 479.404001 378.236801 
L 479.404001 53.398137 
" style="fill:none;stroke:#b0b0b0;stroke-linecap:square;stroke-width:0.8;"/>
     </g>
     <g id="line2d_14">
      <g>
       <use style="stroke:#000000;stroke-width:0.8;" x="479.404001" xlink:href="#m163a6b14fc" y="378.236801"/>
      </g>
     </g>
     <g id="text_7">
      <!-- 2020-10 -->
      <g transform="translate(458.512595 399.335239)scale(0.1 -0.1)">
       <use xlink:href="#DejaVuSans-32"/>
       <use x="63.623047" xlink:href="#DejaVuSans-30"/>
       <use x="127.246094" xlink:href="#DejaVuSans-32"/>
       <use x="190.869141" xlink:href="#DejaVuSans-30"/>
       <use x="254.492188" xlink:href="#DejaVuSans-2d"/>
       <use x="290.576172" xlink:href="#DejaVuSans-31"/>
       <use x="354.199219" xlink:href="#DejaVuSans-30"/>
      </g>
     </g>
    </g>
    <g id="xtick_8">
     <g id="line2d_15">
      <path clip-path="url(#p5fbe16267b)" d="M 537.52966 378.236801 
L 537.52966 53.398137 
" style="fill:none;stroke:#b0b0b0;stroke-linecap:square;stroke-width:0.8;"/>
     </g>
     <g id="line2d_16">
      <g>
       <use style="stroke:#000000;stroke-width:0.8;" x="537.52966" xlink:href="#m163a6b14fc" y="378.236801"/>
      </g>
     </g>
     <g id="text_8">
      <!-- 2021-01 -->
      <g transform="translate(516.638253 399.335239)scale(0.1 -0.1)">
       <use xlink:href="#DejaVuSans-32"/>
       <use x="63.623047" xlink:href="#DejaVuSans-30"/>
       <use x="127.246094" xlink:href="#DejaVuSans-32"/>
       <use x="190.869141" xlink:href="#DejaVuSans-31"/>
       <use x="254.492188" xlink:href="#DejaVuSans-2d"/>
       <use x="290.576172" xlink:href="#DejaVuSans-30"/>
       <use x="354.199219" xlink:href="#DejaVuSans-31"/>
      </g>
     </g>
    </g>
    <g id="xtick_9">
     <g id="line2d_17">
      <path clip-path="url(#p5fbe16267b)" d="M 594.391716 378.236801 
L 594.391716 53.398137 
" style="fill:none;stroke:#b0b0b0;stroke-linecap:square;stroke-width:0.8;"/>
     </g>
     <g id="line2d_18">
      <g>
       <use style="stroke:#000000;stroke-width:0.8;" x="594.391716" xlink:href="#m163a6b14fc" y="378.236801"/>
      </g>
     </g>
     <g id="text_9">
      <!-- 2021-04 -->
      <g transform="translate(573.50031 399.335239)scale(0.1 -0.1)">
       <use xlink:href="#DejaVuSans-32"/>
       <use x="63.623047" xlink:href="#DejaVuSans-30"/>
       <use x="127.246094" xlink:href="#DejaVuSans-32"/>
       <use x="190.869141" xlink:href="#DejaVuSans-31"/>
       <use x="254.492188" xlink:href="#DejaVuSans-2d"/>
       <use x="290.576172" xlink:href="#DejaVuSans-30"/>
       <use x="354.199219" xlink:href="#DejaVuSans-34"/>
      </g>
     </g>
    </g>
   </g>
   <g id="matplotlib.axis_2">
    <g id="ytick_1">
     <g id="line2d_19">
      <path clip-path="url(#p5fbe16267b)" d="M 108 339.490163 
L 648 339.490163 
" style="fill:none;stroke:#b0b0b0;stroke-linecap:square;stroke-width:0.8;"/>
     </g>
     <g id="line2d_20">
      <defs>
       <path d="M 0 0 
L -3.5 0 
" id="ma4cd99af91" style="stroke:#000000;stroke-width:0.8;"/>
      </defs>
      <g>
       <use style="stroke:#000000;stroke-width:0.8;" x="108" xlink:href="#ma4cd99af91" y="339.490163"/>
      </g>
     </g>
     <g id="text_10">
      <!-- 20 -->
      <g transform="translate(81.775 343.289382)scale(0.1 -0.1)">
       <use xlink:href="#DejaVuSans-32"/>
       <use x="63.623047" xlink:href="#DejaVuSans-30"/>
      </g>
     </g>
    </g>
    <g id="ytick_2">
     <g id="line2d_21">
      <path clip-path="url(#p5fbe16267b)" d="M 108 292.628914 
L 648 292.628914 
" style="fill:none;stroke:#b0b0b0;stroke-linecap:square;stroke-width:0.8;"/>
     </g>
     <g id="line2d_22">
      <g>
       <use style="stroke:#000000;stroke-width:0.8;" x="108" xlink:href="#ma4cd99af91" y="292.628914"/>
      </g>
     </g>
     <g id="text_11">
      <!-- 40 -->
      <g transform="translate(81.775 296.428133)scale(0.1 -0.1)">
       <use xlink:href="#DejaVuSans-34"/>
       <use x="63.623047" xlink:href="#DejaVuSans-30"/>
      </g>
     </g>
    </g>
    <g id="ytick_3">
     <g id="line2d_23">
      <path clip-path="url(#p5fbe16267b)" d="M 108 245.767665 
L 648 245.767665 
" style="fill:none;stroke:#b0b0b0;stroke-linecap:square;stroke-width:0.8;"/>
     </g>
     <g id="line2d_24">
      <g>
       <use style="stroke:#000000;stroke-width:0.8;" x="108" xlink:href="#ma4cd99af91" y="245.767665"/>
      </g>
     </g>
     <g id="text_12">
      <!-- 60 -->
      <g transform="translate(81.775 249.566883)scale(0.1 -0.1)">
       <defs>
        <path d="M 2113 2584 
Q 1688 2584 1439 2293 
Q 1191 2003 1191 1497 
Q 1191 994 1439 701 
Q 1688 409 2113 409 
Q 2538 409 2786 701 
Q 3034 994 3034 1497 
Q 3034 2003 2786 2293 
Q 2538 2584 2113 2584 
z
M 3366 4563 
L 3366 3988 
Q 3128 4100 2886 4159 
Q 2644 4219 2406 4219 
Q 1781 4219 1451 3797 
Q 1122 3375 1075 2522 
Q 1259 2794 1537 2939 
Q 1816 3084 2150 3084 
Q 2853 3084 3261 2657 
Q 3669 2231 3669 1497 
Q 3669 778 3244 343 
Q 2819 -91 2113 -91 
Q 1303 -91 875 529 
Q 447 1150 447 2328 
Q 447 3434 972 4092 
Q 1497 4750 2381 4750 
Q 2619 4750 2861 4703 
Q 3103 4656 3366 4563 
z
" id="DejaVuSans-36" transform="scale(0.015625)"/>
       </defs>
       <use xlink:href="#DejaVuSans-36"/>
       <use x="63.623047" xlink:href="#DejaVuSans-30"/>
      </g>
     </g>
    </g>
    <g id="ytick_4">
     <g id="line2d_25">
      <path clip-path="url(#p5fbe16267b)" d="M 108 198.906416 
L 648 198.906416 
" style="fill:none;stroke:#b0b0b0;stroke-linecap:square;stroke-width:0.8;"/>
     </g>
     <g id="line2d_26">
      <g>
       <use style="stroke:#000000;stroke-width:0.8;" x="108" xlink:href="#ma4cd99af91" y="198.906416"/>
      </g>
     </g>
     <g id="text_13">
      <!-- 80 -->
      <g transform="translate(81.775 202.705634)scale(0.1 -0.1)">
       <defs>
        <path d="M 2034 2216 
Q 1584 2216 1326 1975 
Q 1069 1734 1069 1313 
Q 1069 891 1326 650 
Q 1584 409 2034 409 
Q 2484 409 2743 651 
Q 3003 894 3003 1313 
Q 3003 1734 2745 1975 
Q 2488 2216 2034 2216 
z
M 1403 2484 
Q 997 2584 770 2862 
Q 544 3141 544 3541 
Q 544 4100 942 4425 
Q 1341 4750 2034 4750 
Q 2731 4750 3128 4425 
Q 3525 4100 3525 3541 
Q 3525 3141 3298 2862 
Q 3072 2584 2669 2484 
Q 3125 2378 3379 2068 
Q 3634 1759 3634 1313 
Q 3634 634 3220 271 
Q 2806 -91 2034 -91 
Q 1263 -91 848 271 
Q 434 634 434 1313 
Q 434 1759 690 2068 
Q 947 2378 1403 2484 
z
M 1172 3481 
Q 1172 3119 1398 2916 
Q 1625 2713 2034 2713 
Q 2441 2713 2670 2916 
Q 2900 3119 2900 3481 
Q 2900 3844 2670 4047 
Q 2441 4250 2034 4250 
Q 1625 4250 1398 4047 
Q 1172 3844 1172 3481 
z
" id="DejaVuSans-38" transform="scale(0.015625)"/>
       </defs>
       <use xlink:href="#DejaVuSans-38"/>
       <use x="63.623047" xlink:href="#DejaVuSans-30"/>
      </g>
     </g>
    </g>
    <g id="ytick_5">
     <g id="line2d_27">
      <path clip-path="url(#p5fbe16267b)" d="M 108 152.045166 
L 648 152.045166 
" style="fill:none;stroke:#b0b0b0;stroke-linecap:square;stroke-width:0.8;"/>
     </g>
     <g id="line2d_28">
      <g>
       <use style="stroke:#000000;stroke-width:0.8;" x="108" xlink:href="#ma4cd99af91" y="152.045166"/>
      </g>
     </g>
     <g id="text_14">
      <!-- 100 -->
      <g transform="translate(75.4125 155.844385)scale(0.1 -0.1)">
       <use xlink:href="#DejaVuSans-31"/>
       <use x="63.623047" xlink:href="#DejaVuSans-30"/>
       <use x="127.246094" xlink:href="#DejaVuSans-30"/>
      </g>
     </g>
    </g>
    <g id="ytick_6">
     <g id="line2d_29">
      <path clip-path="url(#p5fbe16267b)" d="M 108 105.183917 
L 648 105.183917 
" style="fill:none;stroke:#b0b0b0;stroke-linecap:square;stroke-width:0.8;"/>
     </g>
     <g id="line2d_30">
      <g>
       <use style="stroke:#000000;stroke-width:0.8;" x="108" xlink:href="#ma4cd99af91" y="105.183917"/>
      </g>
     </g>
     <g id="text_15">
      <!-- 120 -->
      <g transform="translate(75.4125 108.983136)scale(0.1 -0.1)">
       <use xlink:href="#DejaVuSans-31"/>
       <use x="63.623047" xlink:href="#DejaVuSans-32"/>
       <use x="127.246094" xlink:href="#DejaVuSans-30"/>
      </g>
     </g>
    </g>
    <g id="ytick_7">
     <g id="line2d_31">
      <path clip-path="url(#p5fbe16267b)" d="M 108 58.322668 
L 648 58.322668 
" style="fill:none;stroke:#b0b0b0;stroke-linecap:square;stroke-width:0.8;"/>
     </g>
     <g id="line2d_32">
      <g>
       <use style="stroke:#000000;stroke-width:0.8;" x="108" xlink:href="#ma4cd99af91" y="58.322668"/>
      </g>
     </g>
     <g id="text_16">
      <!-- 140 -->
      <g transform="translate(75.4125 62.121887)scale(0.1 -0.1)">
       <use xlink:href="#DejaVuSans-31"/>
       <use x="63.623047" xlink:href="#DejaVuSans-34"/>
       <use x="127.246094" xlink:href="#DejaVuSans-30"/>
      </g>
     </g>
    </g>
    <g id="text_17">
     <!-- Weekly energy  -->
     <g transform="translate(-11.648438 82.349663)scale(0.1 -0.1)">
      <defs>
       <path d="M 213 4666 
L 850 4666 
L 1831 722 
L 2809 4666 
L 3519 4666 
L 4500 722 
L 5478 4666 
L 6119 4666 
L 4947 0 
L 4153 0 
L 3169 4050 
L 2175 0 
L 1381 0 
L 213 4666 
z
" id="DejaVuSans-57" transform="scale(0.015625)"/>
       <path d="M 3597 1894 
L 3597 1613 
L 953 1613 
Q 991 1019 1311 708 
Q 1631 397 2203 397 
Q 2534 397 2845 478 
Q 3156 559 3463 722 
L 3463 178 
Q 3153 47 2828 -22 
Q 2503 -91 2169 -91 
Q 1331 -91 842 396 
Q 353 884 353 1716 
Q 353 2575 817 3079 
Q 1281 3584 2069 3584 
Q 2775 3584 3186 3129 
Q 3597 2675 3597 1894 
z
M 3022 2063 
Q 3016 2534 2758 2815 
Q 2500 3097 2075 3097 
Q 1594 3097 1305 2825 
Q 1016 2553 972 2059 
L 3022 2063 
z
" id="DejaVuSans-65" transform="scale(0.015625)"/>
       <path d="M 581 4863 
L 1159 4863 
L 1159 1991 
L 2875 3500 
L 3609 3500 
L 1753 1863 
L 3688 0 
L 2938 0 
L 1159 1709 
L 1159 0 
L 581 0 
L 581 4863 
z
" id="DejaVuSans-6b" transform="scale(0.015625)"/>
       <path d="M 603 4863 
L 1178 4863 
L 1178 0 
L 603 0 
L 603 4863 
z
" id="DejaVuSans-6c" transform="scale(0.015625)"/>
       <path d="M 2059 -325 
Q 1816 -950 1584 -1140 
Q 1353 -1331 966 -1331 
L 506 -1331 
L 506 -850 
L 844 -850 
Q 1081 -850 1212 -737 
Q 1344 -625 1503 -206 
L 1606 56 
L 191 3500 
L 800 3500 
L 1894 763 
L 2988 3500 
L 3597 3500 
L 2059 -325 
z
" id="DejaVuSans-79" transform="scale(0.015625)"/>
       <path id="DejaVuSans-20" transform="scale(0.015625)"/>
       <path d="M 3513 2113 
L 3513 0 
L 2938 0 
L 2938 2094 
Q 2938 2591 2744 2837 
Q 2550 3084 2163 3084 
Q 1697 3084 1428 2787 
Q 1159 2491 1159 1978 
L 1159 0 
L 581 0 
L 581 3500 
L 1159 3500 
L 1159 2956 
Q 1366 3272 1645 3428 
Q 1925 3584 2291 3584 
Q 2894 3584 3203 3211 
Q 3513 2838 3513 2113 
z
" id="DejaVuSans-6e" transform="scale(0.015625)"/>
       <path d="M 2631 2963 
Q 2534 3019 2420 3045 
Q 2306 3072 2169 3072 
Q 1681 3072 1420 2755 
Q 1159 2438 1159 1844 
L 1159 0 
L 581 0 
L 581 3500 
L 1159 3500 
L 1159 2956 
Q 1341 3275 1631 3429 
Q 1922 3584 2338 3584 
Q 2397 3584 2469 3576 
Q 2541 3569 2628 3553 
L 2631 2963 
z
" id="DejaVuSans-72" transform="scale(0.015625)"/>
       <path d="M 2906 1791 
Q 2906 2416 2648 2759 
Q 2391 3103 1925 3103 
Q 1463 3103 1205 2759 
Q 947 2416 947 1791 
Q 947 1169 1205 825 
Q 1463 481 1925 481 
Q 2391 481 2648 825 
Q 2906 1169 2906 1791 
z
M 3481 434 
Q 3481 -459 3084 -895 
Q 2688 -1331 1869 -1331 
Q 1566 -1331 1297 -1286 
Q 1028 -1241 775 -1147 
L 775 -588 
Q 1028 -725 1275 -790 
Q 1522 -856 1778 -856 
Q 2344 -856 2625 -561 
Q 2906 -266 2906 331 
L 2906 616 
Q 2728 306 2450 153 
Q 2172 0 1784 0 
Q 1141 0 747 490 
Q 353 981 353 1791 
Q 353 2603 747 3093 
Q 1141 3584 1784 3584 
Q 2172 3584 2450 3431 
Q 2728 3278 2906 2969 
L 2906 3500 
L 3481 3500 
L 3481 434 
z
" id="DejaVuSans-67" transform="scale(0.015625)"/>
      </defs>
      <use xlink:href="#DejaVuSans-57"/>
      <use x="93.001953" xlink:href="#DejaVuSans-65"/>
      <use x="154.525391" xlink:href="#DejaVuSans-65"/>
      <use x="216.048828" xlink:href="#DejaVuSans-6b"/>
      <use x="273.958984" xlink:href="#DejaVuSans-6c"/>
      <use x="301.742188" xlink:href="#DejaVuSans-79"/>
      <use x="360.921875" xlink:href="#DejaVuSans-20"/>
      <use x="392.708984" xlink:href="#DejaVuSans-65"/>
      <use x="454.232422" xlink:href="#DejaVuSans-6e"/>
      <use x="517.611328" xlink:href="#DejaVuSans-65"/>
      <use x="579.134766" xlink:href="#DejaVuSans-72"/>
      <use x="618.498047" xlink:href="#DejaVuSans-67"/>
      <use x="681.974609" xlink:href="#DejaVuSans-79"/>
      <use x="741.154297" xlink:href="#DejaVuSans-20"/>
     </g>
     <!--  in kWh -->
     <g transform="translate(8.25625 93.547476)scale(0.1 -0.1)">
      <defs>
       <path d="M 603 3500 
L 1178 3500 
L 1178 0 
L 603 0 
L 603 3500 
z
M 603 4863 
L 1178 4863 
L 1178 4134 
L 603 4134 
L 603 4863 
z
" id="DejaVuSans-69" transform="scale(0.015625)"/>
       <path d="M 3513 2113 
L 3513 0 
L 2938 0 
L 2938 2094 
Q 2938 2591 2744 2837 
Q 2550 3084 2163 3084 
Q 1697 3084 1428 2787 
Q 1159 2491 1159 1978 
L 1159 0 
L 581 0 
L 581 4863 
L 1159 4863 
L 1159 2956 
Q 1366 3272 1645 3428 
Q 1925 3584 2291 3584 
Q 2894 3584 3203 3211 
Q 3513 2838 3513 2113 
z
" id="DejaVuSans-68" transform="scale(0.015625)"/>
      </defs>
      <use xlink:href="#DejaVuSans-20"/>
      <use x="31.787109" xlink:href="#DejaVuSans-69"/>
      <use x="59.570312" xlink:href="#DejaVuSans-6e"/>
      <use x="122.949219" xlink:href="#DejaVuSans-20"/>
      <use x="154.736328" xlink:href="#DejaVuSans-6b"/>
      <use x="212.646484" xlink:href="#DejaVuSans-57"/>
      <use x="311.523438" xlink:href="#DejaVuSans-68"/>
     </g>
    </g>
   </g>
   <g id="line2d_33">
    <path clip-path="url(#p5fbe16267b)" d="M 132.545455 276.977257 
L 136.968059 283.045788 
L 141.390663 293.425555 
L 145.813268 302.914958 
L 150.235872 301.274814 
L 154.658477 307.979878 
L 159.081081 294.175335 
L 163.503686 296.401244 
L 167.92629 302.23547 
L 172.348894 314.841146 
L 176.771499 275.360544 
L 181.194103 296.822996 
L 185.616708 302.98525 
L 190.039312 299.845546 
L 194.461916 290.824756 
L 198.884521 357.180285 
L 203.307125 275.641711 
L 207.72973 288.294248 
L 212.152334 272.712883 
L 216.574939 277.234994 
L 220.997543 253.382618 
L 225.420147 259.193413 
L 229.842752 281.288492 
L 234.265356 309.311519 
L 238.687961 326.662559 
L 243.110565 314.349103 
L 247.53317 297.344327 
L 251.955774 291.433952 
L 256.378378 309.545825 
L 260.800983 260.22436 
L 265.223587 278.055065 
L 269.646192 264.090413 
L 274.068796 316.528151 
L 278.4914 305.258021 
L 282.914005 254.618583 
L 287.336609 270.229237 
L 291.759214 276.532075 
L 296.181818 300.923355 
L 300.604423 358.937581 
L 305.027027 363.471407 
L 306.290628 305.951567 
L 309.449631 326.579889 
L 313.872236 317.60596 
L 318.29484 285.271698 
L 322.717445 307.179332 
L 327.140049 306.007801 
L 331.562654 303.055542 
L 335.985258 301.005362 
L 340.407862 310.85794 
L 344.830467 287.235661 
L 349.253071 266.386614 
L 353.675676 312.591806 
L 358.09828 308.655461 
L 362.520885 302.657221 
L 366.943489 287.61476 
L 371.366093 292.86322 
L 375.788698 306.804442 
L 381.474903 299.536844 
L 384.633907 307.929112 
L 389.056511 319.738147 
L 393.479115 317.568089 
L 397.90172 325.763379 
L 402.324324 303.73503 
L 406.746929 314.794285 
L 411.169533 320.464496 
L 415.592138 321.073692 
L 420.014742 279.039152 
L 424.437346 254.929039 
L 428.859951 268.612524 
L 433.282555 277.727037 
L 437.70516 294.807962 
L 442.127764 300.243867 
L 446.550369 271.424199 
L 450.972973 235.809649 
L 455.395577 247.220363 
L 459.818182 244.549272 
L 464.240786 262.028518 
L 468.663391 246.072263 
L 473.085995 283.069219 
L 477.5086 273.767261 
L 481.931204 279.132874 
L 486.353808 283.11608 
L 490.776413 286.021478 
L 495.199017 262.028518 
L 499.621622 157.363918 
L 504.044226 104.15297 
L 508.46683 151.318817 
L 512.889435 204.248598 
L 517.312039 68.16353 
L 521.734644 99.302831 
L 526.157248 155.676913 
L 530.579853 133.511542 
L 535.002457 218.11367 
L 537.52966 228.077543 
L 539.425061 240.448913 
L 543.847666 233.372864 
L 548.27027 242.159349 
L 552.692875 215.354714 
L 557.115479 238.269865 
L 561.538084 283.209803 
L 565.960688 287.380454 
L 570.383292 285.107683 
L 574.805897 272.455146 
L 579.228501 236.463883 
L 583.651106 253.499771 
L 588.07371 262.09881 
L 592.496314 236.125002 
L 596.918919 237.543516 
L 601.341523 260.646111 
L 605.764128 269.549749 
L 610.186732 246.56333 
L 614.609337 255.538235 
L 619.031941 250.47722 
L 623.454545 224.633241 
" style="fill:none;stroke:#1f77b4;stroke-linecap:square;stroke-width:1.5;"/>
    <defs>
     <path d="M 0 1.5 
C 0.397805 1.5 0.77937 1.341951 1.06066 1.06066 
C 1.341951 0.77937 1.5 0.397805 1.5 0 
C 1.5 -0.397805 1.341951 -0.77937 1.06066 -1.06066 
C 0.77937 -1.341951 0.397805 -1.5 0 -1.5 
C -0.397805 -1.5 -0.77937 -1.341951 -1.06066 -1.06066 
C -1.341951 -0.77937 -1.5 -0.397805 -1.5 0 
C -1.5 0.397805 -1.341951 0.77937 -1.06066 1.06066 
C -0.77937 1.341951 -0.397805 1.5 0 1.5 
z
" id="ma3a234e6ec" style="stroke:#1f77b4;"/>
    </defs>
    <g clip-path="url(#p5fbe16267b)">
     <use style="fill:#1f77b4;stroke:#1f77b4;" x="132.545455" xlink:href="#ma3a234e6ec" y="276.977257"/>
     <use style="fill:#1f77b4;stroke:#1f77b4;" x="136.968059" xlink:href="#ma3a234e6ec" y="283.045788"/>
     <use style="fill:#1f77b4;stroke:#1f77b4;" x="141.390663" xlink:href="#ma3a234e6ec" y="293.425555"/>
     <use style="fill:#1f77b4;stroke:#1f77b4;" x="145.813268" xlink:href="#ma3a234e6ec" y="302.914958"/>
     <use style="fill:#1f77b4;stroke:#1f77b4;" x="150.235872" xlink:href="#ma3a234e6ec" y="301.274814"/>
     <use style="fill:#1f77b4;stroke:#1f77b4;" x="154.658477" xlink:href="#ma3a234e6ec" y="307.979878"/>
     <use style="fill:#1f77b4;stroke:#1f77b4;" x="159.081081" xlink:href="#ma3a234e6ec" y="294.175335"/>
     <use style="fill:#1f77b4;stroke:#1f77b4;" x="163.503686" xlink:href="#ma3a234e6ec" y="296.401244"/>
     <use style="fill:#1f77b4;stroke:#1f77b4;" x="167.92629" xlink:href="#ma3a234e6ec" y="302.23547"/>
     <use style="fill:#1f77b4;stroke:#1f77b4;" x="172.348894" xlink:href="#ma3a234e6ec" y="314.841146"/>
     <use style="fill:#1f77b4;stroke:#1f77b4;" x="176.771499" xlink:href="#ma3a234e6ec" y="275.360544"/>
     <use style="fill:#1f77b4;stroke:#1f77b4;" x="181.194103" xlink:href="#ma3a234e6ec" y="296.822996"/>
     <use style="fill:#1f77b4;stroke:#1f77b4;" x="185.616708" xlink:href="#ma3a234e6ec" y="302.98525"/>
     <use style="fill:#1f77b4;stroke:#1f77b4;" x="190.039312" xlink:href="#ma3a234e6ec" y="299.845546"/>
     <use style="fill:#1f77b4;stroke:#1f77b4;" x="194.461916" xlink:href="#ma3a234e6ec" y="290.824756"/>
     <use style="fill:#1f77b4;stroke:#1f77b4;" x="198.884521" xlink:href="#ma3a234e6ec" y="357.180285"/>
     <use style="fill:#1f77b4;stroke:#1f77b4;" x="203.307125" xlink:href="#ma3a234e6ec" y="275.641711"/>
     <use style="fill:#1f77b4;stroke:#1f77b4;" x="207.72973" xlink:href="#ma3a234e6ec" y="288.294248"/>
     <use style="fill:#1f77b4;stroke:#1f77b4;" x="212.152334" xlink:href="#ma3a234e6ec" y="272.712883"/>
     <use style="fill:#1f77b4;stroke:#1f77b4;" x="216.574939" xlink:href="#ma3a234e6ec" y="277.234994"/>
     <use style="fill:#1f77b4;stroke:#1f77b4;" x="220.997543" xlink:href="#ma3a234e6ec" y="253.382618"/>
     <use style="fill:#1f77b4;stroke:#1f77b4;" x="225.420147" xlink:href="#ma3a234e6ec" y="259.193413"/>
     <use style="fill:#1f77b4;stroke:#1f77b4;" x="229.842752" xlink:href="#ma3a234e6ec" y="281.288492"/>
     <use style="fill:#1f77b4;stroke:#1f77b4;" x="234.265356" xlink:href="#ma3a234e6ec" y="309.311519"/>
     <use style="fill:#1f77b4;stroke:#1f77b4;" x="238.687961" xlink:href="#ma3a234e6ec" y="326.662559"/>
     <use style="fill:#1f77b4;stroke:#1f77b4;" x="243.110565" xlink:href="#ma3a234e6ec" y="314.349103"/>
     <use style="fill:#1f77b4;stroke:#1f77b4;" x="247.53317" xlink:href="#ma3a234e6ec" y="297.344327"/>
     <use style="fill:#1f77b4;stroke:#1f77b4;" x="251.955774" xlink:href="#ma3a234e6ec" y="291.433952"/>
     <use style="fill:#1f77b4;stroke:#1f77b4;" x="256.378378" xlink:href="#ma3a234e6ec" y="309.545825"/>
     <use style="fill:#1f77b4;stroke:#1f77b4;" x="260.800983" xlink:href="#ma3a234e6ec" y="260.22436"/>
     <use style="fill:#1f77b4;stroke:#1f77b4;" x="265.223587" xlink:href="#ma3a234e6ec" y="278.055065"/>
     <use style="fill:#1f77b4;stroke:#1f77b4;" x="269.646192" xlink:href="#ma3a234e6ec" y="264.090413"/>
     <use style="fill:#1f77b4;stroke:#1f77b4;" x="274.068796" xlink:href="#ma3a234e6ec" y="316.528151"/>
     <use style="fill:#1f77b4;stroke:#1f77b4;" x="278.4914" xlink:href="#ma3a234e6ec" y="305.258021"/>
     <use style="fill:#1f77b4;stroke:#1f77b4;" x="282.914005" xlink:href="#ma3a234e6ec" y="254.618583"/>
     <use style="fill:#1f77b4;stroke:#1f77b4;" x="287.336609" xlink:href="#ma3a234e6ec" y="270.229237"/>
     <use style="fill:#1f77b4;stroke:#1f77b4;" x="291.759214" xlink:href="#ma3a234e6ec" y="276.532075"/>
     <use style="fill:#1f77b4;stroke:#1f77b4;" x="296.181818" xlink:href="#ma3a234e6ec" y="300.923355"/>
     <use style="fill:#1f77b4;stroke:#1f77b4;" x="300.604423" xlink:href="#ma3a234e6ec" y="358.937581"/>
     <use style="fill:#1f77b4;stroke:#1f77b4;" x="305.027027" xlink:href="#ma3a234e6ec" y="363.471407"/>
     <use style="fill:#1f77b4;stroke:#1f77b4;" x="306.290628" xlink:href="#ma3a234e6ec" y="305.951567"/>
     <use style="fill:#1f77b4;stroke:#1f77b4;" x="309.449631" xlink:href="#ma3a234e6ec" y="326.579889"/>
     <use style="fill:#1f77b4;stroke:#1f77b4;" x="313.872236" xlink:href="#ma3a234e6ec" y="317.60596"/>
     <use style="fill:#1f77b4;stroke:#1f77b4;" x="318.29484" xlink:href="#ma3a234e6ec" y="285.271698"/>
     <use style="fill:#1f77b4;stroke:#1f77b4;" x="322.717445" xlink:href="#ma3a234e6ec" y="307.179332"/>
     <use style="fill:#1f77b4;stroke:#1f77b4;" x="327.140049" xlink:href="#ma3a234e6ec" y="306.007801"/>
     <use style="fill:#1f77b4;stroke:#1f77b4;" x="331.562654" xlink:href="#ma3a234e6ec" y="303.055542"/>
     <use style="fill:#1f77b4;stroke:#1f77b4;" x="335.985258" xlink:href="#ma3a234e6ec" y="301.005362"/>
     <use style="fill:#1f77b4;stroke:#1f77b4;" x="340.407862" xlink:href="#ma3a234e6ec" y="310.85794"/>
     <use style="fill:#1f77b4;stroke:#1f77b4;" x="344.830467" xlink:href="#ma3a234e6ec" y="287.235661"/>
     <use style="fill:#1f77b4;stroke:#1f77b4;" x="349.253071" xlink:href="#ma3a234e6ec" y="266.386614"/>
     <use style="fill:#1f77b4;stroke:#1f77b4;" x="353.675676" xlink:href="#ma3a234e6ec" y="312.591806"/>
     <use style="fill:#1f77b4;stroke:#1f77b4;" x="358.09828" xlink:href="#ma3a234e6ec" y="308.655461"/>
     <use style="fill:#1f77b4;stroke:#1f77b4;" x="362.520885" xlink:href="#ma3a234e6ec" y="302.657221"/>
     <use style="fill:#1f77b4;stroke:#1f77b4;" x="366.943489" xlink:href="#ma3a234e6ec" y="287.61476"/>
     <use style="fill:#1f77b4;stroke:#1f77b4;" x="371.366093" xlink:href="#ma3a234e6ec" y="292.86322"/>
     <use style="fill:#1f77b4;stroke:#1f77b4;" x="375.788698" xlink:href="#ma3a234e6ec" y="306.804442"/>
     <use style="fill:#1f77b4;stroke:#1f77b4;" x="381.474903" xlink:href="#ma3a234e6ec" y="299.536844"/>
     <use style="fill:#1f77b4;stroke:#1f77b4;" x="384.633907" xlink:href="#ma3a234e6ec" y="307.929112"/>
     <use style="fill:#1f77b4;stroke:#1f77b4;" x="389.056511" xlink:href="#ma3a234e6ec" y="319.738147"/>
     <use style="fill:#1f77b4;stroke:#1f77b4;" x="393.479115" xlink:href="#ma3a234e6ec" y="317.568089"/>
     <use style="fill:#1f77b4;stroke:#1f77b4;" x="397.90172" xlink:href="#ma3a234e6ec" y="325.763379"/>
     <use style="fill:#1f77b4;stroke:#1f77b4;" x="402.324324" xlink:href="#ma3a234e6ec" y="303.73503"/>
     <use style="fill:#1f77b4;stroke:#1f77b4;" x="406.746929" xlink:href="#ma3a234e6ec" y="314.794285"/>
     <use style="fill:#1f77b4;stroke:#1f77b4;" x="411.169533" xlink:href="#ma3a234e6ec" y="320.464496"/>
     <use style="fill:#1f77b4;stroke:#1f77b4;" x="415.592138" xlink:href="#ma3a234e6ec" y="321.073692"/>
     <use style="fill:#1f77b4;stroke:#1f77b4;" x="420.014742" xlink:href="#ma3a234e6ec" y="279.039152"/>
     <use style="fill:#1f77b4;stroke:#1f77b4;" x="424.437346" xlink:href="#ma3a234e6ec" y="254.929039"/>
     <use style="fill:#1f77b4;stroke:#1f77b4;" x="428.859951" xlink:href="#ma3a234e6ec" y="268.612524"/>
     <use style="fill:#1f77b4;stroke:#1f77b4;" x="433.282555" xlink:href="#ma3a234e6ec" y="277.727037"/>
     <use style="fill:#1f77b4;stroke:#1f77b4;" x="437.70516" xlink:href="#ma3a234e6ec" y="294.807962"/>
     <use style="fill:#1f77b4;stroke:#1f77b4;" x="442.127764" xlink:href="#ma3a234e6ec" y="300.243867"/>
     <use style="fill:#1f77b4;stroke:#1f77b4;" x="446.550369" xlink:href="#ma3a234e6ec" y="271.424199"/>
     <use style="fill:#1f77b4;stroke:#1f77b4;" x="450.972973" xlink:href="#ma3a234e6ec" y="235.809649"/>
     <use style="fill:#1f77b4;stroke:#1f77b4;" x="455.395577" xlink:href="#ma3a234e6ec" y="247.220363"/>
     <use style="fill:#1f77b4;stroke:#1f77b4;" x="459.818182" xlink:href="#ma3a234e6ec" y="244.549272"/>
     <use style="fill:#1f77b4;stroke:#1f77b4;" x="464.240786" xlink:href="#ma3a234e6ec" y="262.028518"/>
     <use style="fill:#1f77b4;stroke:#1f77b4;" x="468.663391" xlink:href="#ma3a234e6ec" y="246.072263"/>
     <use style="fill:#1f77b4;stroke:#1f77b4;" x="473.085995" xlink:href="#ma3a234e6ec" y="283.069219"/>
     <use style="fill:#1f77b4;stroke:#1f77b4;" x="477.5086" xlink:href="#ma3a234e6ec" y="273.767261"/>
     <use style="fill:#1f77b4;stroke:#1f77b4;" x="481.931204" xlink:href="#ma3a234e6ec" y="279.132874"/>
     <use style="fill:#1f77b4;stroke:#1f77b4;" x="486.353808" xlink:href="#ma3a234e6ec" y="283.11608"/>
     <use style="fill:#1f77b4;stroke:#1f77b4;" x="490.776413" xlink:href="#ma3a234e6ec" y="286.021478"/>
     <use style="fill:#1f77b4;stroke:#1f77b4;" x="495.199017" xlink:href="#ma3a234e6ec" y="262.028518"/>
     <use style="fill:#1f77b4;stroke:#1f77b4;" x="499.621622" xlink:href="#ma3a234e6ec" y="157.363918"/>
     <use style="fill:#1f77b4;stroke:#1f77b4;" x="504.044226" xlink:href="#ma3a234e6ec" y="104.15297"/>
     <use style="fill:#1f77b4;stroke:#1f77b4;" x="508.46683" xlink:href="#ma3a234e6ec" y="151.318817"/>
     <use style="fill:#1f77b4;stroke:#1f77b4;" x="512.889435" xlink:href="#ma3a234e6ec" y="204.248598"/>
     <use style="fill:#1f77b4;stroke:#1f77b4;" x="517.312039" xlink:href="#ma3a234e6ec" y="68.16353"/>
     <use style="fill:#1f77b4;stroke:#1f77b4;" x="521.734644" xlink:href="#ma3a234e6ec" y="99.302831"/>
     <use style="fill:#1f77b4;stroke:#1f77b4;" x="526.157248" xlink:href="#ma3a234e6ec" y="155.676913"/>
     <use style="fill:#1f77b4;stroke:#1f77b4;" x="530.579853" xlink:href="#ma3a234e6ec" y="133.511542"/>
     <use style="fill:#1f77b4;stroke:#1f77b4;" x="535.002457" xlink:href="#ma3a234e6ec" y="218.11367"/>
     <use style="fill:#1f77b4;stroke:#1f77b4;" x="537.52966" xlink:href="#ma3a234e6ec" y="228.077543"/>
     <use style="fill:#1f77b4;stroke:#1f77b4;" x="539.425061" xlink:href="#ma3a234e6ec" y="240.448913"/>
     <use style="fill:#1f77b4;stroke:#1f77b4;" x="543.847666" xlink:href="#ma3a234e6ec" y="233.372864"/>
     <use style="fill:#1f77b4;stroke:#1f77b4;" x="548.27027" xlink:href="#ma3a234e6ec" y="242.159349"/>
     <use style="fill:#1f77b4;stroke:#1f77b4;" x="552.692875" xlink:href="#ma3a234e6ec" y="215.354714"/>
     <use style="fill:#1f77b4;stroke:#1f77b4;" x="557.115479" xlink:href="#ma3a234e6ec" y="238.269865"/>
     <use style="fill:#1f77b4;stroke:#1f77b4;" x="561.538084" xlink:href="#ma3a234e6ec" y="283.209803"/>
     <use style="fill:#1f77b4;stroke:#1f77b4;" x="565.960688" xlink:href="#ma3a234e6ec" y="287.380454"/>
     <use style="fill:#1f77b4;stroke:#1f77b4;" x="570.383292" xlink:href="#ma3a234e6ec" y="285.107683"/>
     <use style="fill:#1f77b4;stroke:#1f77b4;" x="574.805897" xlink:href="#ma3a234e6ec" y="272.455146"/>
     <use style="fill:#1f77b4;stroke:#1f77b4;" x="579.228501" xlink:href="#ma3a234e6ec" y="236.463883"/>
     <use style="fill:#1f77b4;stroke:#1f77b4;" x="583.651106" xlink:href="#ma3a234e6ec" y="253.499771"/>
     <use style="fill:#1f77b4;stroke:#1f77b4;" x="588.07371" xlink:href="#ma3a234e6ec" y="262.09881"/>
     <use style="fill:#1f77b4;stroke:#1f77b4;" x="592.496314" xlink:href="#ma3a234e6ec" y="236.125002"/>
     <use style="fill:#1f77b4;stroke:#1f77b4;" x="596.918919" xlink:href="#ma3a234e6ec" y="237.543516"/>
     <use style="fill:#1f77b4;stroke:#1f77b4;" x="601.341523" xlink:href="#ma3a234e6ec" y="260.646111"/>
     <use style="fill:#1f77b4;stroke:#1f77b4;" x="605.764128" xlink:href="#ma3a234e6ec" y="269.549749"/>
     <use style="fill:#1f77b4;stroke:#1f77b4;" x="610.186732" xlink:href="#ma3a234e6ec" y="246.56333"/>
     <use style="fill:#1f77b4;stroke:#1f77b4;" x="614.609337" xlink:href="#ma3a234e6ec" y="255.538235"/>
     <use style="fill:#1f77b4;stroke:#1f77b4;" x="619.031941" xlink:href="#ma3a234e6ec" y="250.47722"/>
     <use style="fill:#1f77b4;stroke:#1f77b4;" x="623.454545" xlink:href="#ma3a234e6ec" y="224.633241"/>
    </g>
   </g>
   <g id="line2d_34">
    <path clip-path="url(#p5fbe16267b)" d="M 132.545455 290.747435 
L 151.499473 300.402414 
L 171.085293 296.553543 
L 190.039312 305.164298 
L 209.625132 269.64725 
L 229.210951 304.845266 
L 248.16497 292.324883 
L 267.75079 279.636828 
L 286.704809 304.211957 
L 306.290628 308.354642 
L 325.876448 306.383094 
L 344.198666 295.5082 
L 363.784486 296.830104 
L 382.738505 315.044378 
L 402.324324 315.048898 
L 421.278343 272.409041 
L 440.864163 262.166079 
L 460.449982 261.864504 
L 479.404001 278.001402 
L 498.989821 151.690583 
L 517.94384 132.525945 
L 537.52966 232.373662 
L 557.115479 273.491951 
L 574.805897 254.661337 
L 594.391716 249.089328 
L 613.977536 261.921909 
" style="fill:none;stroke:#ff7f0e;stroke-linecap:square;stroke-width:3;"/>
    <defs>
     <path d="M 0 3 
C 0.795609 3 1.55874 2.683901 2.12132 2.12132 
C 2.683901 1.55874 3 0.795609 3 0 
C 3 -0.795609 2.683901 -1.55874 2.12132 -2.12132 
C 1.55874 -2.683901 0.795609 -3 0 -3 
C -0.795609 -3 -1.55874 -2.683901 -2.12132 -2.12132 
C -2.683901 -1.55874 -3 -0.795609 -3 0 
C -3 0.795609 -2.683901 1.55874 -2.12132 2.12132 
C -1.55874 2.683901 -0.795609 3 0 3 
z
" id="med835434a4" style="stroke:#ff7f0e;"/>
    </defs>
    <g clip-path="url(#p5fbe16267b)">
     <use style="fill:#ff7f0e;stroke:#ff7f0e;" x="132.545455" xlink:href="#med835434a4" y="290.747435"/>
     <use style="fill:#ff7f0e;stroke:#ff7f0e;" x="151.499473" xlink:href="#med835434a4" y="300.402414"/>
     <use style="fill:#ff7f0e;stroke:#ff7f0e;" x="171.085293" xlink:href="#med835434a4" y="296.553543"/>
     <use style="fill:#ff7f0e;stroke:#ff7f0e;" x="190.039312" xlink:href="#med835434a4" y="305.164298"/>
     <use style="fill:#ff7f0e;stroke:#ff7f0e;" x="209.625132" xlink:href="#med835434a4" y="269.64725"/>
     <use style="fill:#ff7f0e;stroke:#ff7f0e;" x="229.210951" xlink:href="#med835434a4" y="304.845266"/>
     <use style="fill:#ff7f0e;stroke:#ff7f0e;" x="248.16497" xlink:href="#med835434a4" y="292.324883"/>
     <use style="fill:#ff7f0e;stroke:#ff7f0e;" x="267.75079" xlink:href="#med835434a4" y="279.636828"/>
     <use style="fill:#ff7f0e;stroke:#ff7f0e;" x="286.704809" xlink:href="#med835434a4" y="304.211957"/>
     <use style="fill:#ff7f0e;stroke:#ff7f0e;" x="306.290628" xlink:href="#med835434a4" y="308.354642"/>
     <use style="fill:#ff7f0e;stroke:#ff7f0e;" x="325.876448" xlink:href="#med835434a4" y="306.383094"/>
     <use style="fill:#ff7f0e;stroke:#ff7f0e;" x="344.198666" xlink:href="#med835434a4" y="295.5082"/>
     <use style="fill:#ff7f0e;stroke:#ff7f0e;" x="363.784486" xlink:href="#med835434a4" y="296.830104"/>
     <use style="fill:#ff7f0e;stroke:#ff7f0e;" x="382.738505" xlink:href="#med835434a4" y="315.044378"/>
     <use style="fill:#ff7f0e;stroke:#ff7f0e;" x="402.324324" xlink:href="#med835434a4" y="315.048898"/>
     <use style="fill:#ff7f0e;stroke:#ff7f0e;" x="421.278343" xlink:href="#med835434a4" y="272.409041"/>
     <use style="fill:#ff7f0e;stroke:#ff7f0e;" x="440.864163" xlink:href="#med835434a4" y="262.166079"/>
     <use style="fill:#ff7f0e;stroke:#ff7f0e;" x="460.449982" xlink:href="#med835434a4" y="261.864504"/>
     <use style="fill:#ff7f0e;stroke:#ff7f0e;" x="479.404001" xlink:href="#med835434a4" y="278.001402"/>
     <use style="fill:#ff7f0e;stroke:#ff7f0e;" x="498.989821" xlink:href="#med835434a4" y="151.690583"/>
     <use style="fill:#ff7f0e;stroke:#ff7f0e;" x="517.94384" xlink:href="#med835434a4" y="132.525945"/>
     <use style="fill:#ff7f0e;stroke:#ff7f0e;" x="537.52966" xlink:href="#med835434a4" y="232.373662"/>
     <use style="fill:#ff7f0e;stroke:#ff7f0e;" x="557.115479" xlink:href="#med835434a4" y="273.491951"/>
     <use style="fill:#ff7f0e;stroke:#ff7f0e;" x="574.805897" xlink:href="#med835434a4" y="254.661337"/>
     <use style="fill:#ff7f0e;stroke:#ff7f0e;" x="594.391716" xlink:href="#med835434a4" y="249.089328"/>
     <use style="fill:#ff7f0e;stroke:#ff7f0e;" x="613.977536" xlink:href="#med835434a4" y="261.921909"/>
    </g>
   </g>
   <g id="patch_3">
    <path d="M 108 378.236801 
L 108 53.398137 
" style="fill:none;stroke:#000000;stroke-linecap:square;stroke-linejoin:miter;stroke-width:0.8;"/>
   </g>
   <g id="patch_4">
    <path d="M 648 378.236801 
L 648 53.398137 
" style="fill:none;stroke:#000000;stroke-linecap:square;stroke-linejoin:miter;stroke-width:0.8;"/>
   </g>
   <g id="patch_5">
    <path d="M 108 378.236801 
L 648 378.236801 
" style="fill:none;stroke:#000000;stroke-linecap:square;stroke-linejoin:miter;stroke-width:0.8;"/>
   </g>
   <g id="patch_6">
    <path d="M 108 53.398137 
L 648 53.398137 
" style="fill:none;stroke:#000000;stroke-linecap:square;stroke-linejoin:miter;stroke-width:0.8;"/>
   </g>
   <g id="legend_1">
    <g id="patch_7">
     <path d="M 567.848438 90.754387 
L 641 90.754387 
Q 643 90.754387 643 88.754387 
L 643 60.398137 
Q 643 58.398137 641 58.398137 
L 567.848438 58.398137 
Q 565.848438 58.398137 565.848438 60.398137 
L 565.848438 88.754387 
Q 565.848438 90.754387 567.848438 90.754387 
z
" style="fill:#ffffff;opacity:0.8;stroke:#cccccc;stroke-linejoin:miter;"/>
    </g>
    <g id="line2d_35">
     <path d="M 569.848438 66.496574 
L 589.848438 66.496574 
" style="fill:none;stroke:#1f77b4;stroke-linecap:square;stroke-width:1.5;"/>
    </g>
    <g id="line2d_36">
     <g>
      <use style="fill:#1f77b4;stroke:#1f77b4;" x="579.848438" xlink:href="#ma3a234e6ec" y="66.496574"/>
     </g>
    </g>
    <g id="text_18">
     <!-- weekly -->
     <g transform="translate(597.848438 69.996574)scale(0.1 -0.1)">
      <defs>
       <path d="M 269 3500 
L 844 3500 
L 1563 769 
L 2278 3500 
L 2956 3500 
L 3675 769 
L 4391 3500 
L 4966 3500 
L 4050 0 
L 3372 0 
L 2619 2869 
L 1863 0 
L 1184 0 
L 269 3500 
z
" id="DejaVuSans-77" transform="scale(0.015625)"/>
      </defs>
      <use xlink:href="#DejaVuSans-77"/>
      <use x="81.787109" xlink:href="#DejaVuSans-65"/>
      <use x="143.310547" xlink:href="#DejaVuSans-65"/>
      <use x="204.833984" xlink:href="#DejaVuSans-6b"/>
      <use x="262.744141" xlink:href="#DejaVuSans-6c"/>
      <use x="290.527344" xlink:href="#DejaVuSans-79"/>
     </g>
    </g>
    <g id="line2d_37">
     <path d="M 569.848438 81.174699 
L 589.848438 81.174699 
" style="fill:none;stroke:#ff7f0e;stroke-linecap:square;stroke-width:3;"/>
    </g>
    <g id="line2d_38">
     <g>
      <use style="fill:#ff7f0e;stroke:#ff7f0e;" x="579.848438" xlink:href="#med835434a4" y="81.174699"/>
     </g>
    </g>
    <g id="text_19">
     <!-- monthly -->
     <g transform="translate(597.848438 84.674699)scale(0.1 -0.1)">
      <defs>
       <path d="M 3328 2828 
Q 3544 3216 3844 3400 
Q 4144 3584 4550 3584 
Q 5097 3584 5394 3201 
Q 5691 2819 5691 2113 
L 5691 0 
L 5113 0 
L 5113 2094 
Q 5113 2597 4934 2840 
Q 4756 3084 4391 3084 
Q 3944 3084 3684 2787 
Q 3425 2491 3425 1978 
L 3425 0 
L 2847 0 
L 2847 2094 
Q 2847 2600 2669 2842 
Q 2491 3084 2119 3084 
Q 1678 3084 1418 2786 
Q 1159 2488 1159 1978 
L 1159 0 
L 581 0 
L 581 3500 
L 1159 3500 
L 1159 2956 
Q 1356 3278 1631 3431 
Q 1906 3584 2284 3584 
Q 2666 3584 2933 3390 
Q 3200 3197 3328 2828 
z
" id="DejaVuSans-6d" transform="scale(0.015625)"/>
       <path d="M 1959 3097 
Q 1497 3097 1228 2736 
Q 959 2375 959 1747 
Q 959 1119 1226 758 
Q 1494 397 1959 397 
Q 2419 397 2687 759 
Q 2956 1122 2956 1747 
Q 2956 2369 2687 2733 
Q 2419 3097 1959 3097 
z
M 1959 3584 
Q 2709 3584 3137 3096 
Q 3566 2609 3566 1747 
Q 3566 888 3137 398 
Q 2709 -91 1959 -91 
Q 1206 -91 779 398 
Q 353 888 353 1747 
Q 353 2609 779 3096 
Q 1206 3584 1959 3584 
z
" id="DejaVuSans-6f" transform="scale(0.015625)"/>
       <path d="M 1172 4494 
L 1172 3500 
L 2356 3500 
L 2356 3053 
L 1172 3053 
L 1172 1153 
Q 1172 725 1289 603 
Q 1406 481 1766 481 
L 2356 481 
L 2356 0 
L 1766 0 
Q 1100 0 847 248 
Q 594 497 594 1153 
L 594 3053 
L 172 3053 
L 172 3500 
L 594 3500 
L 594 4494 
L 1172 4494 
z
" id="DejaVuSans-74" transform="scale(0.015625)"/>
      </defs>
      <use xlink:href="#DejaVuSans-6d"/>
      <use x="97.412109" xlink:href="#DejaVuSans-6f"/>
      <use x="158.59375" xlink:href="#DejaVuSans-6e"/>
      <use x="221.972656" xlink:href="#DejaVuSans-74"/>
      <use x="261.181641" xlink:href="#DejaVuSans-68"/>
      <use x="324.560547" xlink:href="#DejaVuSans-6c"/>
      <use x="352.34375" xlink:href="#DejaVuSans-79"/>
     </g>
    </g>
   </g>
  </g>
 </g>
 <defs>
  <clipPath id="p5fbe16267b">
   <rect height="324.838664" width="540" x="108" y="53.398137"/>
  </clipPath>
 </defs>
</svg>
