<?xml version="1.0" encoding="utf-8" standalone="no"?>
<!DOCTYPE svg PUBLIC "-//W3C//DTD SVG 1.1//EN"
  "http://www.w3.org/Graphics/SVG/1.1/DTD/svg11.dtd">
<svg height="444.984472pt" version="1.1" viewBox="0 0 720 444.984472" width="720pt" xmlns="http://www.w3.org/2000/svg" xmlns:xlink="http://www.w3.org/1999/xlink">
 <metadata>
  <rdf:RDF xmlns:cc="http://creativecommons.org/ns#" xmlns:dc="http://purl.org/dc/elements/1.1/" xmlns:rdf="http://www.w3.org/1999/02/22-rdf-syntax-ns#">
   <cc:Work>
    <dc:type rdf:resource="http://purl.org/dc/dcmitype/StillImage"/>
    <dc:date>2021-05-20T15:34:00.689364</dc:date>
    <dc:format>image/svg+xml</dc:format>
    <dc:creator>
     <cc:Agent>
      <dc:title>Matplotlib v3.4.2, https://matplotlib.org/</dc:title>
     </cc:Agent>
    </dc:creator>
   </cc:Work>
  </rdf:RDF>
 </metadata>
 <defs>
  <style type="text/css">*{stroke-linecap:butt;stroke-linejoin:round;}</style>
 </defs>
 <g id="figure_1">
  <g id="patch_1">
   <path d="M 0 444.984472 
L 720 444.984472 
L 720 0 
L 0 0 
z
" style="fill:#ffffff;"/>
  </g>
  <g id="axes_1">
   <g id="patch_2">
    <path d="M 108 378.236801 
L 648 378.236801 
L 648 53.398137 
L 108 53.398137 
z
" style="fill:#ffffff;"/>
   </g>
   <g id="matplotlib.axis_1">
    <g id="xtick_1">
     <g id="line2d_1">
      <path clip-path="url(#p0e5fc84e0e)" d="M 132.545455 378.236801 
L 132.545455 53.398137 
" style="fill:none;stroke:#b0b0b0;stroke-linecap:square;stroke-width:0.8;"/>
     </g>
     <g id="line2d_2">
      <defs>
       <path d="M 0 0 
L 0 3.5 
" id="mc8baa1e09e" style="stroke:#000000;stroke-width:0.8;"/>
      </defs>
      <g>
       <use style="stroke:#000000;stroke-width:0.8;" x="132.545455" xlink:href="#mc8baa1e09e" y="378.236801"/>
      </g>
     </g>
     <g id="text_1">
      <!-- 00:00 -->
      <g transform="translate(118.13608 399.335239)scale(0.1 -0.1)">
       <defs>
        <path d="M 2034 4250 
Q 1547 4250 1301 3770 
Q 1056 3291 1056 2328 
Q 1056 1369 1301 889 
Q 1547 409 2034 409 
Q 2525 409 2770 889 
Q 3016 1369 3016 2328 
Q 3016 3291 2770 3770 
Q 2525 4250 2034 4250 
z
M 2034 4750 
Q 2819 4750 3233 4129 
Q 3647 3509 3647 2328 
Q 3647 1150 3233 529 
Q 2819 -91 2034 -91 
Q 1250 -91 836 529 
Q 422 1150 422 2328 
Q 422 3509 836 4129 
Q 1250 4750 2034 4750 
z
" id="DejaVuSans-30" transform="scale(0.015625)"/>
        <path d="M 750 794 
L 1409 794 
L 1409 0 
L 750 0 
L 750 794 
z
M 750 3309 
L 1409 3309 
L 1409 2516 
L 750 2516 
L 750 3309 
z
" id="DejaVuSans-3a" transform="scale(0.015625)"/>
       </defs>
       <use xlink:href="#DejaVuSans-30"/>
       <use x="63.623047" xlink:href="#DejaVuSans-30"/>
       <use x="127.246094" xlink:href="#DejaVuSans-3a"/>
       <use x="160.9375" xlink:href="#DejaVuSans-30"/>
       <use x="224.560547" xlink:href="#DejaVuSans-30"/>
      </g>
     </g>
    </g>
    <g id="xtick_2">
     <g id="line2d_3">
      <path clip-path="url(#p0e5fc84e0e)" d="M 235.894737 378.236801 
L 235.894737 53.398137 
" style="fill:none;stroke:#b0b0b0;stroke-linecap:square;stroke-width:0.8;"/>
     </g>
     <g id="line2d_4">
      <g>
       <use style="stroke:#000000;stroke-width:0.8;" x="235.894737" xlink:href="#mc8baa1e09e" y="378.236801"/>
      </g>
     </g>
     <g id="text_2">
      <!-- 05:00 -->
      <g transform="translate(221.485362 399.335239)scale(0.1 -0.1)">
       <defs>
        <path d="M 691 4666 
L 3169 4666 
L 3169 4134 
L 1269 4134 
L 1269 2991 
Q 1406 3038 1543 3061 
Q 1681 3084 1819 3084 
Q 2600 3084 3056 2656 
Q 3513 2228 3513 1497 
Q 3513 744 3044 326 
Q 2575 -91 1722 -91 
Q 1428 -91 1123 -41 
Q 819 9 494 109 
L 494 744 
Q 775 591 1075 516 
Q 1375 441 1709 441 
Q 2250 441 2565 725 
Q 2881 1009 2881 1497 
Q 2881 1984 2565 2268 
Q 2250 2553 1709 2553 
Q 1456 2553 1204 2497 
Q 953 2441 691 2322 
L 691 4666 
z
" id="DejaVuSans-35" transform="scale(0.015625)"/>
       </defs>
       <use xlink:href="#DejaVuSans-30"/>
       <use x="63.623047" xlink:href="#DejaVuSans-35"/>
       <use x="127.246094" xlink:href="#DejaVuSans-3a"/>
       <use x="160.9375" xlink:href="#DejaVuSans-30"/>
       <use x="224.560547" xlink:href="#DejaVuSans-30"/>
      </g>
     </g>
    </g>
    <g id="xtick_3">
     <g id="line2d_5">
      <path clip-path="url(#p0e5fc84e0e)" d="M 339.244019 378.236801 
L 339.244019 53.398137 
" style="fill:none;stroke:#b0b0b0;stroke-linecap:square;stroke-width:0.8;"/>
     </g>
     <g id="line2d_6">
      <g>
       <use style="stroke:#000000;stroke-width:0.8;" x="339.244019" xlink:href="#mc8baa1e09e" y="378.236801"/>
      </g>
     </g>
     <g id="text_3">
      <!-- 10:00 -->
      <g transform="translate(324.834644 399.335239)scale(0.1 -0.1)">
       <defs>
        <path d="M 794 531 
L 1825 531 
L 1825 4091 
L 703 3866 
L 703 4441 
L 1819 4666 
L 2450 4666 
L 2450 531 
L 3481 531 
L 3481 0 
L 794 0 
L 794 531 
z
" id="DejaVuSans-31" transform="scale(0.015625)"/>
       </defs>
       <use xlink:href="#DejaVuSans-31"/>
       <use x="63.623047" xlink:href="#DejaVuSans-30"/>
       <use x="127.246094" xlink:href="#DejaVuSans-3a"/>
       <use x="160.9375" xlink:href="#DejaVuSans-30"/>
       <use x="224.560547" xlink:href="#DejaVuSans-30"/>
      </g>
     </g>
    </g>
    <g id="xtick_4">
     <g id="line2d_7">
      <path clip-path="url(#p0e5fc84e0e)" d="M 442.593301 378.236801 
L 442.593301 53.398137 
" style="fill:none;stroke:#b0b0b0;stroke-linecap:square;stroke-width:0.8;"/>
     </g>
     <g id="line2d_8">
      <g>
       <use style="stroke:#000000;stroke-width:0.8;" x="442.593301" xlink:href="#mc8baa1e09e" y="378.236801"/>
      </g>
     </g>
     <g id="text_4">
      <!-- 15:00 -->
      <g transform="translate(428.183926 399.335239)scale(0.1 -0.1)">
       <use xlink:href="#DejaVuSans-31"/>
       <use x="63.623047" xlink:href="#DejaVuSans-35"/>
       <use x="127.246094" xlink:href="#DejaVuSans-3a"/>
       <use x="160.9375" xlink:href="#DejaVuSans-30"/>
       <use x="224.560547" xlink:href="#DejaVuSans-30"/>
      </g>
     </g>
    </g>
    <g id="xtick_5">
     <g id="line2d_9">
      <path clip-path="url(#p0e5fc84e0e)" d="M 545.942584 378.236801 
L 545.942584 53.398137 
" style="fill:none;stroke:#b0b0b0;stroke-linecap:square;stroke-width:0.8;"/>
     </g>
     <g id="line2d_10">
      <g>
       <use style="stroke:#000000;stroke-width:0.8;" x="545.942584" xlink:href="#mc8baa1e09e" y="378.236801"/>
      </g>
     </g>
     <g id="text_5">
      <!-- 20:00 -->
      <g transform="translate(531.533209 399.335239)scale(0.1 -0.1)">
       <defs>
        <path d="M 1228 531 
L 3431 531 
L 3431 0 
L 469 0 
L 469 531 
Q 828 903 1448 1529 
Q 2069 2156 2228 2338 
Q 2531 2678 2651 2914 
Q 2772 3150 2772 3378 
Q 2772 3750 2511 3984 
Q 2250 4219 1831 4219 
Q 1534 4219 1204 4116 
Q 875 4013 500 3803 
L 500 4441 
Q 881 4594 1212 4672 
Q 1544 4750 1819 4750 
Q 2544 4750 2975 4387 
Q 3406 4025 3406 3419 
Q 3406 3131 3298 2873 
Q 3191 2616 2906 2266 
Q 2828 2175 2409 1742 
Q 1991 1309 1228 531 
z
" id="DejaVuSans-32" transform="scale(0.015625)"/>
       </defs>
       <use xlink:href="#DejaVuSans-32"/>
       <use x="63.623047" xlink:href="#DejaVuSans-30"/>
       <use x="127.246094" xlink:href="#DejaVuSans-3a"/>
       <use x="160.9375" xlink:href="#DejaVuSans-30"/>
       <use x="224.560547" xlink:href="#DejaVuSans-30"/>
      </g>
     </g>
    </g>
    <g id="text_6">
     <!-- Hour of the day (fixed: UTC-8) -->
     <g transform="translate(519.103125 434.561038)scale(0.1 -0.1)">
      <defs>
       <path d="M 628 4666 
L 1259 4666 
L 1259 2753 
L 3553 2753 
L 3553 4666 
L 4184 4666 
L 4184 0 
L 3553 0 
L 3553 2222 
L 1259 2222 
L 1259 0 
L 628 0 
L 628 4666 
z
" id="DejaVuSans-48" transform="scale(0.015625)"/>
       <path d="M 1959 3097 
Q 1497 3097 1228 2736 
Q 959 2375 959 1747 
Q 959 1119 1226 758 
Q 1494 397 1959 397 
Q 2419 397 2687 759 
Q 2956 1122 2956 1747 
Q 2956 2369 2687 2733 
Q 2419 3097 1959 3097 
z
M 1959 3584 
Q 2709 3584 3137 3096 
Q 3566 2609 3566 1747 
Q 3566 888 3137 398 
Q 2709 -91 1959 -91 
Q 1206 -91 779 398 
Q 353 888 353 1747 
Q 353 2609 779 3096 
Q 1206 3584 1959 3584 
z
" id="DejaVuSans-6f" transform="scale(0.015625)"/>
       <path d="M 544 1381 
L 544 3500 
L 1119 3500 
L 1119 1403 
Q 1119 906 1312 657 
Q 1506 409 1894 409 
Q 2359 409 2629 706 
Q 2900 1003 2900 1516 
L 2900 3500 
L 3475 3500 
L 3475 0 
L 2900 0 
L 2900 538 
Q 2691 219 2414 64 
Q 2138 -91 1772 -91 
Q 1169 -91 856 284 
Q 544 659 544 1381 
z
M 1991 3584 
L 1991 3584 
z
" id="DejaVuSans-75" transform="scale(0.015625)"/>
       <path d="M 2631 2963 
Q 2534 3019 2420 3045 
Q 2306 3072 2169 3072 
Q 1681 3072 1420 2755 
Q 1159 2438 1159 1844 
L 1159 0 
L 581 0 
L 581 3500 
L 1159 3500 
L 1159 2956 
Q 1341 3275 1631 3429 
Q 1922 3584 2338 3584 
Q 2397 3584 2469 3576 
Q 2541 3569 2628 3553 
L 2631 2963 
z
" id="DejaVuSans-72" transform="scale(0.015625)"/>
       <path id="DejaVuSans-20" transform="scale(0.015625)"/>
       <path d="M 2375 4863 
L 2375 4384 
L 1825 4384 
Q 1516 4384 1395 4259 
Q 1275 4134 1275 3809 
L 1275 3500 
L 2222 3500 
L 2222 3053 
L 1275 3053 
L 1275 0 
L 697 0 
L 697 3053 
L 147 3053 
L 147 3500 
L 697 3500 
L 697 3744 
Q 697 4328 969 4595 
Q 1241 4863 1831 4863 
L 2375 4863 
z
" id="DejaVuSans-66" transform="scale(0.015625)"/>
       <path d="M 1172 4494 
L 1172 3500 
L 2356 3500 
L 2356 3053 
L 1172 3053 
L 1172 1153 
Q 1172 725 1289 603 
Q 1406 481 1766 481 
L 2356 481 
L 2356 0 
L 1766 0 
Q 1100 0 847 248 
Q 594 497 594 1153 
L 594 3053 
L 172 3053 
L 172 3500 
L 594 3500 
L 594 4494 
L 1172 4494 
z
" id="DejaVuSans-74" transform="scale(0.015625)"/>
       <path d="M 3513 2113 
L 3513 0 
L 2938 0 
L 2938 2094 
Q 2938 2591 2744 2837 
Q 2550 3084 2163 3084 
Q 1697 3084 1428 2787 
Q 1159 2491 1159 1978 
L 1159 0 
L 581 0 
L 581 4863 
L 1159 4863 
L 1159 2956 
Q 1366 3272 1645 3428 
Q 1925 3584 2291 3584 
Q 2894 3584 3203 3211 
Q 3513 2838 3513 2113 
z
" id="DejaVuSans-68" transform="scale(0.015625)"/>
       <path d="M 3597 1894 
L 3597 1613 
L 953 1613 
Q 991 1019 1311 708 
Q 1631 397 2203 397 
Q 2534 397 2845 478 
Q 3156 559 3463 722 
L 3463 178 
Q 3153 47 2828 -22 
Q 2503 -91 2169 -91 
Q 1331 -91 842 396 
Q 353 884 353 1716 
Q 353 2575 817 3079 
Q 1281 3584 2069 3584 
Q 2775 3584 3186 3129 
Q 3597 2675 3597 1894 
z
M 3022 2063 
Q 3016 2534 2758 2815 
Q 2500 3097 2075 3097 
Q 1594 3097 1305 2825 
Q 1016 2553 972 2059 
L 3022 2063 
z
" id="DejaVuSans-65" transform="scale(0.015625)"/>
       <path d="M 2906 2969 
L 2906 4863 
L 3481 4863 
L 3481 0 
L 2906 0 
L 2906 525 
Q 2725 213 2448 61 
Q 2172 -91 1784 -91 
Q 1150 -91 751 415 
Q 353 922 353 1747 
Q 353 2572 751 3078 
Q 1150 3584 1784 3584 
Q 2172 3584 2448 3432 
Q 2725 3281 2906 2969 
z
M 947 1747 
Q 947 1113 1208 752 
Q 1469 391 1925 391 
Q 2381 391 2643 752 
Q 2906 1113 2906 1747 
Q 2906 2381 2643 2742 
Q 2381 3103 1925 3103 
Q 1469 3103 1208 2742 
Q 947 2381 947 1747 
z
" id="DejaVuSans-64" transform="scale(0.015625)"/>
       <path d="M 2194 1759 
Q 1497 1759 1228 1600 
Q 959 1441 959 1056 
Q 959 750 1161 570 
Q 1363 391 1709 391 
Q 2188 391 2477 730 
Q 2766 1069 2766 1631 
L 2766 1759 
L 2194 1759 
z
M 3341 1997 
L 3341 0 
L 2766 0 
L 2766 531 
Q 2569 213 2275 61 
Q 1981 -91 1556 -91 
Q 1019 -91 701 211 
Q 384 513 384 1019 
Q 384 1609 779 1909 
Q 1175 2209 1959 2209 
L 2766 2209 
L 2766 2266 
Q 2766 2663 2505 2880 
Q 2244 3097 1772 3097 
Q 1472 3097 1187 3025 
Q 903 2953 641 2809 
L 641 3341 
Q 956 3463 1253 3523 
Q 1550 3584 1831 3584 
Q 2591 3584 2966 3190 
Q 3341 2797 3341 1997 
z
" id="DejaVuSans-61" transform="scale(0.015625)"/>
       <path d="M 2059 -325 
Q 1816 -950 1584 -1140 
Q 1353 -1331 966 -1331 
L 506 -1331 
L 506 -850 
L 844 -850 
Q 1081 -850 1212 -737 
Q 1344 -625 1503 -206 
L 1606 56 
L 191 3500 
L 800 3500 
L 1894 763 
L 2988 3500 
L 3597 3500 
L 2059 -325 
z
" id="DejaVuSans-79" transform="scale(0.015625)"/>
       <path d="M 1984 4856 
Q 1566 4138 1362 3434 
Q 1159 2731 1159 2009 
Q 1159 1288 1364 580 
Q 1569 -128 1984 -844 
L 1484 -844 
Q 1016 -109 783 600 
Q 550 1309 550 2009 
Q 550 2706 781 3412 
Q 1013 4119 1484 4856 
L 1984 4856 
z
" id="DejaVuSans-28" transform="scale(0.015625)"/>
       <path d="M 603 3500 
L 1178 3500 
L 1178 0 
L 603 0 
L 603 3500 
z
M 603 4863 
L 1178 4863 
L 1178 4134 
L 603 4134 
L 603 4863 
z
" id="DejaVuSans-69" transform="scale(0.015625)"/>
       <path d="M 3513 3500 
L 2247 1797 
L 3578 0 
L 2900 0 
L 1881 1375 
L 863 0 
L 184 0 
L 1544 1831 
L 300 3500 
L 978 3500 
L 1906 2253 
L 2834 3500 
L 3513 3500 
z
" id="DejaVuSans-78" transform="scale(0.015625)"/>
       <path d="M 556 4666 
L 1191 4666 
L 1191 1831 
Q 1191 1081 1462 751 
Q 1734 422 2344 422 
Q 2950 422 3222 751 
Q 3494 1081 3494 1831 
L 3494 4666 
L 4128 4666 
L 4128 1753 
Q 4128 841 3676 375 
Q 3225 -91 2344 -91 
Q 1459 -91 1007 375 
Q 556 841 556 1753 
L 556 4666 
z
" id="DejaVuSans-55" transform="scale(0.015625)"/>
       <path d="M -19 4666 
L 3928 4666 
L 3928 4134 
L 2272 4134 
L 2272 0 
L 1638 0 
L 1638 4134 
L -19 4134 
L -19 4666 
z
" id="DejaVuSans-54" transform="scale(0.015625)"/>
       <path d="M 4122 4306 
L 4122 3641 
Q 3803 3938 3442 4084 
Q 3081 4231 2675 4231 
Q 1875 4231 1450 3742 
Q 1025 3253 1025 2328 
Q 1025 1406 1450 917 
Q 1875 428 2675 428 
Q 3081 428 3442 575 
Q 3803 722 4122 1019 
L 4122 359 
Q 3791 134 3420 21 
Q 3050 -91 2638 -91 
Q 1578 -91 968 557 
Q 359 1206 359 2328 
Q 359 3453 968 4101 
Q 1578 4750 2638 4750 
Q 3056 4750 3426 4639 
Q 3797 4528 4122 4306 
z
" id="DejaVuSans-43" transform="scale(0.015625)"/>
       <path d="M 313 2009 
L 1997 2009 
L 1997 1497 
L 313 1497 
L 313 2009 
z
" id="DejaVuSans-2d" transform="scale(0.015625)"/>
       <path d="M 2034 2216 
Q 1584 2216 1326 1975 
Q 1069 1734 1069 1313 
Q 1069 891 1326 650 
Q 1584 409 2034 409 
Q 2484 409 2743 651 
Q 3003 894 3003 1313 
Q 3003 1734 2745 1975 
Q 2488 2216 2034 2216 
z
M 1403 2484 
Q 997 2584 770 2862 
Q 544 3141 544 3541 
Q 544 4100 942 4425 
Q 1341 4750 2034 4750 
Q 2731 4750 3128 4425 
Q 3525 4100 3525 3541 
Q 3525 3141 3298 2862 
Q 3072 2584 2669 2484 
Q 3125 2378 3379 2068 
Q 3634 1759 3634 1313 
Q 3634 634 3220 271 
Q 2806 -91 2034 -91 
Q 1263 -91 848 271 
Q 434 634 434 1313 
Q 434 1759 690 2068 
Q 947 2378 1403 2484 
z
M 1172 3481 
Q 1172 3119 1398 2916 
Q 1625 2713 2034 2713 
Q 2441 2713 2670 2916 
Q 2900 3119 2900 3481 
Q 2900 3844 2670 4047 
Q 2441 4250 2034 4250 
Q 1625 4250 1398 4047 
Q 1172 3844 1172 3481 
z
" id="DejaVuSans-38" transform="scale(0.015625)"/>
       <path d="M 513 4856 
L 1013 4856 
Q 1481 4119 1714 3412 
Q 1947 2706 1947 2009 
Q 1947 1309 1714 600 
Q 1481 -109 1013 -844 
L 513 -844 
Q 928 -128 1133 580 
Q 1338 1288 1338 2009 
Q 1338 2731 1133 3434 
Q 928 4138 513 4856 
z
" id="DejaVuSans-29" transform="scale(0.015625)"/>
      </defs>
      <use xlink:href="#DejaVuSans-48"/>
      <use x="75.195312" xlink:href="#DejaVuSans-6f"/>
      <use x="136.376953" xlink:href="#DejaVuSans-75"/>
      <use x="199.755859" xlink:href="#DejaVuSans-72"/>
      <use x="240.869141" xlink:href="#DejaVuSans-20"/>
      <use x="272.65625" xlink:href="#DejaVuSans-6f"/>
      <use x="333.837891" xlink:href="#DejaVuSans-66"/>
      <use x="369.042969" xlink:href="#DejaVuSans-20"/>
      <use x="400.830078" xlink:href="#DejaVuSans-74"/>
      <use x="440.039062" xlink:href="#DejaVuSans-68"/>
      <use x="503.417969" xlink:href="#DejaVuSans-65"/>
      <use x="564.941406" xlink:href="#DejaVuSans-20"/>
      <use x="596.728516" xlink:href="#DejaVuSans-64"/>
      <use x="660.205078" xlink:href="#DejaVuSans-61"/>
      <use x="721.484375" xlink:href="#DejaVuSans-79"/>
      <use x="780.664062" xlink:href="#DejaVuSans-20"/>
      <use x="812.451172" xlink:href="#DejaVuSans-28"/>
      <use x="851.464844" xlink:href="#DejaVuSans-66"/>
      <use x="886.669922" xlink:href="#DejaVuSans-69"/>
      <use x="914.453125" xlink:href="#DejaVuSans-78"/>
      <use x="970.507812" xlink:href="#DejaVuSans-65"/>
      <use x="1032.03125" xlink:href="#DejaVuSans-64"/>
      <use x="1095.507812" xlink:href="#DejaVuSans-3a"/>
      <use x="1129.199219" xlink:href="#DejaVuSans-20"/>
      <use x="1160.986328" xlink:href="#DejaVuSans-55"/>
      <use x="1234.179688" xlink:href="#DejaVuSans-54"/>
      <use x="1289.388672" xlink:href="#DejaVuSans-43"/>
      <use x="1359.212891" xlink:href="#DejaVuSans-2d"/>
      <use x="1395.296875" xlink:href="#DejaVuSans-38"/>
      <use x="1458.919922" xlink:href="#DejaVuSans-29"/>
     </g>
    </g>
   </g>
   <g id="matplotlib.axis_2">
    <g id="ytick_1">
     <g id="line2d_11">
      <path clip-path="url(#p0e5fc84e0e)" d="M 108 363.471407 
L 648 363.471407 
" style="fill:none;stroke:#b0b0b0;stroke-linecap:square;stroke-width:0.8;"/>
     </g>
     <g id="line2d_12">
      <defs>
       <path d="M 0 0 
L -3.5 0 
" id="m0549d40ca4" style="stroke:#000000;stroke-width:0.8;"/>
      </defs>
      <g>
       <use style="stroke:#000000;stroke-width:0.8;" x="108" xlink:href="#m0549d40ca4" y="363.471407"/>
      </g>
     </g>
     <g id="text_7">
      <!-- 0 -->
      <g transform="translate(88.1375 367.270626)scale(0.1 -0.1)">
       <use xlink:href="#DejaVuSans-30"/>
      </g>
     </g>
    </g>
    <g id="ytick_2">
     <g id="line2d_13">
      <path clip-path="url(#p0e5fc84e0e)" d="M 108 318.233456 
L 648 318.233456 
" style="fill:none;stroke:#b0b0b0;stroke-linecap:square;stroke-width:0.8;"/>
     </g>
     <g id="line2d_14">
      <g>
       <use style="stroke:#000000;stroke-width:0.8;" x="108" xlink:href="#m0549d40ca4" y="318.233456"/>
      </g>
     </g>
     <g id="text_8">
      <!-- 10 -->
      <g transform="translate(81.775 322.032675)scale(0.1 -0.1)">
       <use xlink:href="#DejaVuSans-31"/>
       <use x="63.623047" xlink:href="#DejaVuSans-30"/>
      </g>
     </g>
    </g>
    <g id="ytick_3">
     <g id="line2d_15">
      <path clip-path="url(#p0e5fc84e0e)" d="M 108 272.995506 
L 648 272.995506 
" style="fill:none;stroke:#b0b0b0;stroke-linecap:square;stroke-width:0.8;"/>
     </g>
     <g id="line2d_16">
      <g>
       <use style="stroke:#000000;stroke-width:0.8;" x="108" xlink:href="#m0549d40ca4" y="272.995506"/>
      </g>
     </g>
     <g id="text_9">
      <!-- 20 -->
      <g transform="translate(81.775 276.794724)scale(0.1 -0.1)">
       <use xlink:href="#DejaVuSans-32"/>
       <use x="63.623047" xlink:href="#DejaVuSans-30"/>
      </g>
     </g>
    </g>
    <g id="ytick_4">
     <g id="line2d_17">
      <path clip-path="url(#p0e5fc84e0e)" d="M 108 227.757555 
L 648 227.757555 
" style="fill:none;stroke:#b0b0b0;stroke-linecap:square;stroke-width:0.8;"/>
     </g>
     <g id="line2d_18">
      <g>
       <use style="stroke:#000000;stroke-width:0.8;" x="108" xlink:href="#m0549d40ca4" y="227.757555"/>
      </g>
     </g>
     <g id="text_10">
      <!-- 30 -->
      <g transform="translate(81.775 231.556774)scale(0.1 -0.1)">
       <defs>
        <path d="M 2597 2516 
Q 3050 2419 3304 2112 
Q 3559 1806 3559 1356 
Q 3559 666 3084 287 
Q 2609 -91 1734 -91 
Q 1441 -91 1130 -33 
Q 819 25 488 141 
L 488 750 
Q 750 597 1062 519 
Q 1375 441 1716 441 
Q 2309 441 2620 675 
Q 2931 909 2931 1356 
Q 2931 1769 2642 2001 
Q 2353 2234 1838 2234 
L 1294 2234 
L 1294 2753 
L 1863 2753 
Q 2328 2753 2575 2939 
Q 2822 3125 2822 3475 
Q 2822 3834 2567 4026 
Q 2313 4219 1838 4219 
Q 1578 4219 1281 4162 
Q 984 4106 628 3988 
L 628 4550 
Q 988 4650 1302 4700 
Q 1616 4750 1894 4750 
Q 2613 4750 3031 4423 
Q 3450 4097 3450 3541 
Q 3450 3153 3228 2886 
Q 3006 2619 2597 2516 
z
" id="DejaVuSans-33" transform="scale(0.015625)"/>
       </defs>
       <use xlink:href="#DejaVuSans-33"/>
       <use x="63.623047" xlink:href="#DejaVuSans-30"/>
      </g>
     </g>
    </g>
    <g id="ytick_5">
     <g id="line2d_19">
      <path clip-path="url(#p0e5fc84e0e)" d="M 108 182.519604 
L 648 182.519604 
" style="fill:none;stroke:#b0b0b0;stroke-linecap:square;stroke-width:0.8;"/>
     </g>
     <g id="line2d_20">
      <g>
       <use style="stroke:#000000;stroke-width:0.8;" x="108" xlink:href="#m0549d40ca4" y="182.519604"/>
      </g>
     </g>
     <g id="text_11">
      <!-- 40 -->
      <g transform="translate(81.775 186.318823)scale(0.1 -0.1)">
       <defs>
        <path d="M 2419 4116 
L 825 1625 
L 2419 1625 
L 2419 4116 
z
M 2253 4666 
L 3047 4666 
L 3047 1625 
L 3713 1625 
L 3713 1100 
L 3047 1100 
L 3047 0 
L 2419 0 
L 2419 1100 
L 313 1100 
L 313 1709 
L 2253 4666 
z
" id="DejaVuSans-34" transform="scale(0.015625)"/>
       </defs>
       <use xlink:href="#DejaVuSans-34"/>
       <use x="63.623047" xlink:href="#DejaVuSans-30"/>
      </g>
     </g>
    </g>
    <g id="ytick_6">
     <g id="line2d_21">
      <path clip-path="url(#p0e5fc84e0e)" d="M 108 137.281653 
L 648 137.281653 
" style="fill:none;stroke:#b0b0b0;stroke-linecap:square;stroke-width:0.8;"/>
     </g>
     <g id="line2d_22">
      <g>
       <use style="stroke:#000000;stroke-width:0.8;" x="108" xlink:href="#m0549d40ca4" y="137.281653"/>
      </g>
     </g>
     <g id="text_12">
      <!-- 50 -->
      <g transform="translate(81.775 141.080872)scale(0.1 -0.1)">
       <use xlink:href="#DejaVuSans-35"/>
       <use x="63.623047" xlink:href="#DejaVuSans-30"/>
      </g>
     </g>
    </g>
    <g id="ytick_7">
     <g id="line2d_23">
      <path clip-path="url(#p0e5fc84e0e)" d="M 108 92.043702 
L 648 92.043702 
" style="fill:none;stroke:#b0b0b0;stroke-linecap:square;stroke-width:0.8;"/>
     </g>
     <g id="line2d_24">
      <g>
       <use style="stroke:#000000;stroke-width:0.8;" x="108" xlink:href="#m0549d40ca4" y="92.043702"/>
      </g>
     </g>
     <g id="text_13">
      <!-- 60 -->
      <g transform="translate(81.775 95.842921)scale(0.1 -0.1)">
       <defs>
        <path d="M 2113 2584 
Q 1688 2584 1439 2293 
Q 1191 2003 1191 1497 
Q 1191 994 1439 701 
Q 1688 409 2113 409 
Q 2538 409 2786 701 
Q 3034 994 3034 1497 
Q 3034 2003 2786 2293 
Q 2538 2584 2113 2584 
z
M 3366 4563 
L 3366 3988 
Q 3128 4100 2886 4159 
Q 2644 4219 2406 4219 
Q 1781 4219 1451 3797 
Q 1122 3375 1075 2522 
Q 1259 2794 1537 2939 
Q 1816 3084 2150 3084 
Q 2853 3084 3261 2657 
Q 3669 2231 3669 1497 
Q 3669 778 3244 343 
Q 2819 -91 2113 -91 
Q 1303 -91 875 529 
Q 447 1150 447 2328 
Q 447 3434 972 4092 
Q 1497 4750 2381 4750 
Q 2619 4750 2861 4703 
Q 3103 4656 3366 4563 
z
" id="DejaVuSans-36" transform="scale(0.015625)"/>
       </defs>
       <use xlink:href="#DejaVuSans-36"/>
       <use x="63.623047" xlink:href="#DejaVuSans-30"/>
      </g>
     </g>
    </g>
    <g id="text_14">
     <!-- Average  -->
     <g transform="translate(4.878125 82.349663)scale(0.1 -0.1)">
      <defs>
       <path d="M 2188 4044 
L 1331 1722 
L 3047 1722 
L 2188 4044 
z
M 1831 4666 
L 2547 4666 
L 4325 0 
L 3669 0 
L 3244 1197 
L 1141 1197 
L 716 0 
L 50 0 
L 1831 4666 
z
" id="DejaVuSans-41" transform="scale(0.015625)"/>
       <path d="M 191 3500 
L 800 3500 
L 1894 563 
L 2988 3500 
L 3597 3500 
L 2284 0 
L 1503 0 
L 191 3500 
z
" id="DejaVuSans-76" transform="scale(0.015625)"/>
       <path d="M 2906 1791 
Q 2906 2416 2648 2759 
Q 2391 3103 1925 3103 
Q 1463 3103 1205 2759 
Q 947 2416 947 1791 
Q 947 1169 1205 825 
Q 1463 481 1925 481 
Q 2391 481 2648 825 
Q 2906 1169 2906 1791 
z
M 3481 434 
Q 3481 -459 3084 -895 
Q 2688 -1331 1869 -1331 
Q 1566 -1331 1297 -1286 
Q 1028 -1241 775 -1147 
L 775 -588 
Q 1028 -725 1275 -790 
Q 1522 -856 1778 -856 
Q 2344 -856 2625 -561 
Q 2906 -266 2906 331 
L 2906 616 
Q 2728 306 2450 153 
Q 2172 0 1784 0 
Q 1141 0 747 490 
Q 353 981 353 1791 
Q 353 2603 747 3093 
Q 1141 3584 1784 3584 
Q 2172 3584 2450 3431 
Q 2728 3278 2906 2969 
L 2906 3500 
L 3481 3500 
L 3481 434 
z
" id="DejaVuSans-67" transform="scale(0.015625)"/>
      </defs>
      <use xlink:href="#DejaVuSans-41"/>
      <use x="62.533203" xlink:href="#DejaVuSans-76"/>
      <use x="121.712891" xlink:href="#DejaVuSans-65"/>
      <use x="183.236328" xlink:href="#DejaVuSans-72"/>
      <use x="224.349609" xlink:href="#DejaVuSans-61"/>
      <use x="285.628906" xlink:href="#DejaVuSans-67"/>
      <use x="349.105469" xlink:href="#DejaVuSans-65"/>
      <use x="410.628906" xlink:href="#DejaVuSans-20"/>
     </g>
     <!--  Power  in W -->
     <g transform="translate(-3.971875 93.547476)scale(0.1 -0.1)">
      <defs>
       <path d="M 1259 4147 
L 1259 2394 
L 2053 2394 
Q 2494 2394 2734 2622 
Q 2975 2850 2975 3272 
Q 2975 3691 2734 3919 
Q 2494 4147 2053 4147 
L 1259 4147 
z
M 628 4666 
L 2053 4666 
Q 2838 4666 3239 4311 
Q 3641 3956 3641 3272 
Q 3641 2581 3239 2228 
Q 2838 1875 2053 1875 
L 1259 1875 
L 1259 0 
L 628 0 
L 628 4666 
z
" id="DejaVuSans-50" transform="scale(0.015625)"/>
       <path d="M 269 3500 
L 844 3500 
L 1563 769 
L 2278 3500 
L 2956 3500 
L 3675 769 
L 4391 3500 
L 4966 3500 
L 4050 0 
L 3372 0 
L 2619 2869 
L 1863 0 
L 1184 0 
L 269 3500 
z
" id="DejaVuSans-77" transform="scale(0.015625)"/>
       <path d="M 3513 2113 
L 3513 0 
L 2938 0 
L 2938 2094 
Q 2938 2591 2744 2837 
Q 2550 3084 2163 3084 
Q 1697 3084 1428 2787 
Q 1159 2491 1159 1978 
L 1159 0 
L 581 0 
L 581 3500 
L 1159 3500 
L 1159 2956 
Q 1366 3272 1645 3428 
Q 1925 3584 2291 3584 
Q 2894 3584 3203 3211 
Q 3513 2838 3513 2113 
z
" id="DejaVuSans-6e" transform="scale(0.015625)"/>
       <path d="M 213 4666 
L 850 4666 
L 1831 722 
L 2809 4666 
L 3519 4666 
L 4500 722 
L 5478 4666 
L 6119 4666 
L 4947 0 
L 4153 0 
L 3169 4050 
L 2175 0 
L 1381 0 
L 213 4666 
z
" id="DejaVuSans-57" transform="scale(0.015625)"/>
      </defs>
      <use xlink:href="#DejaVuSans-20"/>
      <use x="31.787109" xlink:href="#DejaVuSans-50"/>
      <use x="88.464844" xlink:href="#DejaVuSans-6f"/>
      <use x="149.646484" xlink:href="#DejaVuSans-77"/>
      <use x="231.433594" xlink:href="#DejaVuSans-65"/>
      <use x="292.957031" xlink:href="#DejaVuSans-72"/>
      <use x="334.070312" xlink:href="#DejaVuSans-20"/>
      <use x="365.857422" xlink:href="#DejaVuSans-20"/>
      <use x="397.644531" xlink:href="#DejaVuSans-69"/>
      <use x="425.427734" xlink:href="#DejaVuSans-6e"/>
      <use x="488.806641" xlink:href="#DejaVuSans-20"/>
      <use x="520.59375" xlink:href="#DejaVuSans-57"/>
     </g>
    </g>
   </g>
   <g id="line2d_25">
    <path clip-path="url(#p0e5fc84e0e)" d="M 132.545455 363.383138 
L 137.712919 363.36985 
L 142.880383 363.339185 
L 148.047847 363.427396 
L 153.215311 363.412188 
L 158.382775 363.384485 
L 163.550239 363.411736 
L 168.717703 363.369508 
L 173.885167 363.383206 
L 179.052632 363.427012 
L 184.220096 363.369 
L 189.38756 363.383625 
L 194.555024 363.41164 
L 199.722488 363.383635 
L 204.889952 363.354979 
L 210.057416 363.384719 
L 215.22488 363.456971 
L 220.392344 363.442899 
L 225.559809 363.442381 
L 230.727273 363.427729 
L 235.894737 363.407247 
L 241.062201 363.428195 
L 246.229665 363.412226 
L 251.397129 363.412298 
L 256.564593 363.427588 
L 261.732057 363.42753 
L 266.899522 363.413152 
L 272.066986 363.368253 
L 277.23445 363.441294 
L 282.401914 363.414636 
L 287.569378 362.882957 
L 292.736842 361.561209 
L 297.904306 358.24362 
L 303.07177 339.854068 
L 308.239234 283.239292 
L 313.406699 222.646031 
L 318.574163 200.498245 
L 323.741627 197.023626 
L 328.909091 169.831082 
L 334.076555 160.194783 
L 339.244019 153.840267 
L 344.411483 141.418893 
L 349.578947 130.651444 
L 354.746411 132.482606 
L 359.913876 131.528765 
L 365.08134 130.752676 
L 370.248804 120.873566 
L 375.416268 115.656503 
L 380.583732 136.605585 
L 385.751196 125.529032 
L 390.91866 120.103677 
L 396.086124 125.030194 
L 401.253589 132.736795 
L 406.421053 157.752854 
L 411.588517 160.457026 
L 416.755981 174.920395 
L 421.923445 183.971971 
L 427.090909 190.623916 
L 432.258373 203.788958 
L 437.425837 200.559606 
L 442.593301 217.694476 
L 447.760766 238.678294 
L 452.92823 251.523981 
L 458.095694 279.172429 
L 463.263158 317.605844 
L 468.430622 348.595455 
L 473.598086 360.233863 
L 478.76555 362.806548 
L 483.933014 363.353754 
L 489.100478 363.368701 
L 494.267943 363.264985 
L 499.435407 363.370174 
L 504.602871 363.31222 
L 509.770335 363.21227 
L 514.937799 363.329853 
L 520.105263 363.274766 
L 525.272727 363.314595 
L 530.440191 363.303547 
L 535.607656 363.341057 
L 540.77512 363.27759 
L 545.942584 363.252297 
L 551.110048 363.366353 
L 556.277512 363.325219 
L 561.444976 363.382912 
L 566.61244 363.353772 
L 571.779904 363.326981 
L 576.947368 363.384917 
L 582.114833 363.339809 
L 587.282297 363.353741 
L 592.449761 363.353426 
L 597.617225 363.413265 
L 602.784689 363.266456 
L 607.952153 363.295242 
L 613.119617 363.365118 
L 618.287081 363.355569 
L 623.454545 363.339785 
" style="fill:none;stroke:#a6cee3;stroke-linecap:square;stroke-width:1.5;"/>
   </g>
   <g id="line2d_26">
    <path clip-path="url(#p0e5fc84e0e)" d="M 132.545455 363.370809 
L 137.712919 363.34318 
L 142.880383 363.351843 
L 148.047847 363.401067 
L 153.215311 363.418805 
L 158.382775 363.429131 
L 163.550239 363.410925 
L 168.717703 363.420057 
L 173.885167 363.436406 
L 179.052632 363.385825 
L 184.220096 363.411513 
L 189.38756 363.393547 
L 194.555024 363.394154 
L 199.722488 363.358913 
L 204.889952 363.417023 
L 210.057416 363.410395 
L 215.22488 363.4364 
L 220.392344 363.377545 
L 225.559809 363.436181 
L 230.727273 363.411396 
L 235.894737 363.396731 
L 241.062201 363.411816 
L 246.229665 363.428583 
L 251.397129 363.411002 
L 256.564593 363.3598 
L 261.732057 363.418466 
L 266.899522 363.427712 
L 272.066986 363.424753 
L 277.23445 361.83694 
L 282.401914 349.92512 
L 287.569378 327.70858 
L 292.736842 305.460854 
L 297.904306 271.536916 
L 303.07177 239.021768 
L 308.239234 213.79825 
L 313.406699 198.444578 
L 318.574163 181.282055 
L 323.741627 162.414415 
L 328.909091 145.054562 
L 334.076555 132.923305 
L 339.244019 122.726554 
L 344.411483 110.147004 
L 349.578947 98.087515 
L 354.746411 90.368456 
L 359.913876 78.084503 
L 365.08134 79.87728 
L 370.248804 77.068049 
L 375.416268 76.811078 
L 380.583732 72.201656 
L 385.751196 71.106935 
L 390.91866 68.16353 
L 396.086124 78.106426 
L 401.253589 80.553743 
L 406.421053 86.080674 
L 411.588517 95.599191 
L 416.755981 101.926345 
L 421.923445 109.095408 
L 427.090909 126.72439 
L 432.258373 144.754885 
L 437.425837 163.560328 
L 442.593301 179.33737 
L 447.760766 196.928584 
L 452.92823 216.473851 
L 458.095694 236.402028 
L 463.263158 261.028543 
L 468.430622 283.084957 
L 473.598086 302.906302 
L 478.76555 326.12031 
L 483.933014 347.634643 
L 489.100478 361.707506 
L 494.267943 363.384806 
L 499.435407 363.411811 
L 504.602871 363.401093 
L 509.770335 363.357324 
L 514.937799 363.40949 
L 520.105263 363.376358 
L 525.272727 363.353628 
L 530.440191 363.342093 
L 535.607656 363.330915 
L 540.77512 363.364708 
L 545.942584 363.402547 
L 551.110048 363.432226 
L 556.277512 363.39369 
L 561.444976 363.392586 
L 566.61244 363.370853 
L 571.779904 363.394318 
L 576.947368 363.383224 
L 582.114833 363.354678 
L 587.282297 363.38831 
L 592.449761 363.361567 
L 597.617225 363.385749 
L 602.784689 363.395836 
L 607.952153 363.335847 
L 613.119617 363.353804 
L 618.287081 363.316402 
L 623.454545 363.335929 
" style="fill:none;stroke:#1f78b4;stroke-linecap:square;stroke-width:1.5;"/>
   </g>
   <g id="line2d_27">
    <path clip-path="url(#p0e5fc84e0e)" d="M 132.545455 363.388842 
L 137.712919 363.386957 
L 142.880383 363.400824 
L 148.047847 363.381125 
L 153.215311 363.400155 
L 158.382775 363.407778 
L 163.550239 363.368075 
L 168.717703 363.429937 
L 173.885167 363.3735 
L 179.052632 363.401432 
L 184.220096 363.409899 
L 189.38756 363.387287 
L 194.555024 363.429717 
L 199.722488 363.396205 
L 204.889952 363.409394 
L 210.057416 363.41541 
L 215.22488 363.432806 
L 220.392344 363.380037 
L 225.559809 363.423856 
L 230.727273 363.393835 
L 235.894737 363.402511 
L 241.062201 363.394863 
L 246.229665 363.415627 
L 251.397129 363.367475 
L 256.564593 363.403601 
L 261.732057 362.937661 
L 266.899522 361.020406 
L 272.066986 356.10069 
L 277.23445 341.312581 
L 282.401914 322.400734 
L 287.569378 300.843165 
L 292.736842 282.18189 
L 297.904306 263.238562 
L 303.07177 245.717884 
L 308.239234 226.726034 
L 313.406699 208.305773 
L 318.574163 191.114191 
L 323.741627 169.359548 
L 328.909091 152.070127 
L 334.076555 142.676578 
L 339.244019 136.079295 
L 344.411483 122.288078 
L 349.578947 124.260157 
L 354.746411 115.264226 
L 359.913876 111.272014 
L 365.08134 114.245846 
L 370.248804 114.557029 
L 375.416268 110.412912 
L 380.583732 104.124518 
L 385.751196 112.07502 
L 390.91866 112.736966 
L 396.086124 114.164355 
L 401.253589 127.173768 
L 406.421053 143.472024 
L 411.588517 144.471394 
L 416.755981 147.418309 
L 421.923445 159.425289 
L 427.090909 169.948169 
L 432.258373 182.021875 
L 437.425837 195.080969 
L 442.593301 210.392542 
L 447.760766 228.939348 
L 452.92823 256.305324 
L 458.095694 273.788239 
L 463.263158 291.644327 
L 468.430622 310.148725 
L 473.598086 322.962302 
L 478.76555 337.474434 
L 483.933014 349.119881 
L 489.100478 357.094198 
L 494.267943 362.309964 
L 499.435407 363.329638 
L 504.602871 363.451147 
L 509.770335 363.403294 
L 514.937799 363.40807 
L 520.105263 363.366666 
L 525.272727 363.357976 
L 530.440191 363.352647 
L 535.607656 363.359213 
L 540.77512 363.359968 
L 545.942584 363.344987 
L 551.110048 363.372928 
L 556.277512 363.333212 
L 561.444976 363.387924 
L 566.61244 363.346169 
L 571.779904 363.395997 
L 576.947368 363.34715 
L 582.114833 363.37366 
L 587.282297 363.360141 
L 592.449761 363.344051 
L 597.617225 363.374177 
L 602.784689 363.359052 
L 607.952153 363.353455 
L 613.119617 363.387311 
L 618.287081 363.3822 
L 623.454545 363.353157 
" style="fill:none;stroke:#b2df8a;stroke-linecap:square;stroke-width:1.5;"/>
   </g>
   <g id="line2d_28">
    <path clip-path="url(#p0e5fc84e0e)" d="M 132.545455 363.371872 
L 137.712919 363.37271 
L 142.880383 363.37273 
L 148.047847 363.364487 
L 153.215311 363.323883 
L 158.382775 363.407783 
L 163.550239 363.39348 
L 168.717703 363.378488 
L 173.885167 363.358784 
L 179.052632 363.350845 
L 184.220096 363.436227 
L 189.38756 363.414923 
L 194.555024 363.393928 
L 199.722488 363.399698 
L 204.889952 363.380483 
L 210.057416 363.401963 
L 215.22488 363.421434 
L 220.392344 363.399298 
L 225.559809 363.402352 
L 230.727273 363.443128 
L 235.894737 363.345568 
L 241.062201 363.400169 
L 246.229665 363.387447 
L 251.397129 362.798762 
L 256.564593 361.171005 
L 261.732057 355.380248 
L 266.899522 348.162809 
L 272.066986 336.789217 
L 277.23445 313.779134 
L 282.401914 290.52411 
L 287.569378 270.981415 
L 292.736842 243.826989 
L 297.904306 216.118831 
L 303.07177 194.782101 
L 308.239234 179.509595 
L 313.406699 159.647924 
L 318.574163 139.304904 
L 323.741627 123.177459 
L 328.909091 120.808738 
L 334.076555 108.606909 
L 339.244019 100.253743 
L 344.411483 96.755547 
L 349.578947 92.596748 
L 354.746411 86.462793 
L 359.913876 83.318396 
L 365.08134 79.897462 
L 370.248804 86.798932 
L 375.416268 91.562635 
L 380.583732 91.893211 
L 385.751196 92.690881 
L 390.91866 90.921506 
L 396.086124 92.25105 
L 401.253589 101.134385 
L 406.421053 102.820271 
L 411.588517 117.217335 
L 416.755981 115.233351 
L 421.923445 118.979228 
L 427.090909 135.272397 
L 432.258373 149.130903 
L 437.425837 161.059306 
L 442.593301 177.765325 
L 447.760766 188.943765 
L 452.92823 211.929077 
L 458.095694 231.007897 
L 463.263158 258.388781 
L 468.430622 288.194001 
L 473.598086 309.664457 
L 478.76555 329.552214 
L 483.933014 345.242997 
L 489.100478 352.567132 
L 494.267943 356.622202 
L 499.435407 359.773902 
L 504.602871 362.313787 
L 509.770335 363.277728 
L 514.937799 363.401295 
L 520.105263 363.386075 
L 525.272727 363.380049 
L 530.440191 363.370604 
L 535.607656 363.379502 
L 540.77512 363.372785 
L 545.942584 363.371671 
L 551.110048 363.400046 
L 556.277512 363.343892 
L 561.444976 363.379242 
L 566.61244 363.415417 
L 571.779904 363.40064 
L 576.947368 363.422109 
L 582.114833 363.393118 
L 587.282297 363.364866 
L 592.449761 363.373638 
L 597.617225 363.329576 
L 602.784689 363.352244 
L 607.952153 363.34875 
L 613.119617 363.317148 
L 618.287081 363.372462 
L 623.454545 363.350132 
" style="fill:none;stroke:#33a02c;stroke-linecap:square;stroke-width:1.5;"/>
   </g>
   <g id="line2d_29">
    <path clip-path="url(#p0e5fc84e0e)" d="M 132.545455 363.32044 
L 137.712919 363.332706 
L 142.880383 363.416345 
L 148.047847 363.321331 
L 153.215311 363.331535 
L 158.382775 363.402363 
L 163.550239 363.430421 
L 168.717703 363.360547 
L 173.885167 363.376534 
L 179.052632 363.38949 
L 184.220096 363.431297 
L 189.38756 363.430601 
L 194.555024 363.33543 
L 199.722488 360.159972 
L 204.889952 358.981875 
L 210.057416 363.360328 
L 215.22488 363.434253 
L 220.392344 363.372261 
L 225.559809 363.44302 
L 230.727273 363.415588 
L 235.894737 363.385593 
L 241.062201 363.377665 
L 246.229665 362.000177 
L 251.397129 358.021954 
L 256.564593 353.330527 
L 261.732057 346.258362 
L 266.899522 339.880882 
L 272.066986 327.38345 
L 277.23445 308.314446 
L 282.401914 289.834829 
L 287.569378 271.600579 
L 292.736842 254.128153 
L 297.904306 234.313711 
L 303.07177 216.222676 
L 308.239234 194.967807 
L 313.406699 177.415212 
L 318.574163 163.310526 
L 323.741627 138.233516 
L 328.909091 136.207599 
L 334.076555 129.179 
L 339.244019 120.107692 
L 344.411483 118.270617 
L 349.578947 114.354832 
L 354.746411 108.724167 
L 359.913876 100.506362 
L 365.08134 101.196397 
L 370.248804 100.972138 
L 375.416268 93.809855 
L 380.583732 90.33726 
L 385.751196 86.988594 
L 390.91866 85.014377 
L 396.086124 86.656804 
L 401.253589 86.801311 
L 406.421053 83.705991 
L 411.588517 85.160819 
L 416.755981 82.625549 
L 421.923445 94.929842 
L 427.090909 97.769083 
L 432.258373 106.565282 
L 437.425837 124.306449 
L 442.593301 143.290552 
L 447.760766 166.4338 
L 452.92823 187.70799 
L 458.095694 216.842283 
L 463.263158 248.718583 
L 468.430622 279.805843 
L 473.598086 311.521871 
L 478.76555 327.509122 
L 483.933014 337.981754 
L 489.100478 344.438464 
L 494.267943 350.217957 
L 499.435407 355.305563 
L 504.602871 358.781846 
L 509.770335 361.907131 
L 514.937799 363.30742 
L 520.105263 363.38823 
L 525.272727 363.430377 
L 530.440191 363.389933 
L 535.607656 363.431012 
L 540.77512 363.347613 
L 545.942584 363.390013 
L 551.110048 363.403435 
L 556.277512 363.333491 
L 561.444976 363.38865 
L 566.61244 363.386051 
L 571.779904 363.415737 
L 576.947368 363.442669 
L 582.114833 363.417485 
L 587.282297 363.359084 
L 592.449761 363.400595 
L 597.617225 363.300325 
L 602.784689 363.348449 
L 607.952153 363.388427 
L 613.119617 363.416609 
L 618.287081 363.387177 
L 623.454545 363.41666 
" style="fill:none;stroke:#fb9a99;stroke-linecap:square;stroke-width:1.5;"/>
   </g>
   <g id="line2d_30">
    <path clip-path="url(#p0e5fc84e0e)" d="M 132.545455 363.471407 
L 137.712919 363.05644 
L 142.880383 362.595231 
L 148.047847 363.471407 
L 153.215311 363.042319 
L 158.382775 363.471407 
L 163.550239 363.471407 
L 168.717703 363.471407 
L 173.885167 363.471407 
L 179.052632 363.471407 
L 184.220096 363.039435 
L 189.38756 363.471407 
L 194.555024 363.471407 
L 199.722488 363.471407 
L 204.889952 363.471407 
L 210.057416 363.471407 
L 215.22488 363.02979 
L 220.392344 363.471407 
L 225.559809 363.471407 
L 230.727273 363.471407 
L 235.894737 363.471407 
L 241.062201 363.058429 
L 246.229665 362.861984 
L 251.397129 360.378893 
L 256.564593 359.015906 
L 261.732057 348.927109 
L 266.899522 344.810649 
L 272.066986 332.520226 
L 277.23445 322.927942 
L 282.401914 311.722322 
L 287.569378 299.558488 
L 292.736842 274.795272 
L 297.904306 255.295471 
L 303.07177 238.303575 
L 308.239234 220.40428 
L 313.406699 204.562221 
L 318.574163 189.00009 
L 323.741627 175.151326 
L 328.909091 163.297053 
L 334.076555 153.407739 
L 339.244019 144.111786 
L 344.411483 135.753366 
L 349.578947 129.567332 
L 354.746411 124.366963 
L 359.913876 119.274982 
L 365.08134 117.470722 
L 370.248804 116.513205 
L 375.416268 116.771054 
L 380.583732 117.603179 
L 385.751196 118.205791 
L 390.91866 122.755023 
L 396.086124 126.730577 
L 401.253589 133.252221 
L 406.421053 140.350725 
L 411.588517 152.05852 
L 416.755981 164.184367 
L 421.923445 177.440858 
L 427.090909 190.5102 
L 432.258373 202.987074 
L 437.425837 219.672194 
L 442.593301 236.768663 
L 447.760766 256.831489 
L 452.92823 288.940483 
L 458.095694 310.791383 
L 463.263158 345.083515 
M 473.598086 359.834407 
L 478.76555 351.509795 
L 483.933014 354.632842 
L 489.100478 356.593422 
L 494.267943 358.048942 
L 499.435407 358.855808 
L 504.602871 360.896139 
L 509.770335 362.248485 
L 514.937799 363.211123 
L 520.105263 363.471407 
L 525.272727 363.471407 
L 530.440191 363.471407 
L 535.607656 363.471407 
L 540.77512 363.471407 
M 551.110048 363.471407 
L 556.277512 363.471407 
L 561.444976 363.471407 
L 566.61244 363.471407 
L 571.779904 363.471407 
L 576.947368 363.053656 
L 582.114833 363.041125 
L 587.282297 363.471407 
L 592.449761 363.016862 
L 597.617225 363.471407 
L 602.784689 363.471407 
L 607.952153 363.471407 
L 613.119617 363.038043 
L 618.287081 363.471407 
L 623.454545 363.471407 
" style="fill:none;stroke:#e31a1c;stroke-linecap:square;stroke-width:1.5;"/>
   </g>
   <g id="line2d_31">
    <path clip-path="url(#p0e5fc84e0e)" d="M 132.545455 363.341166 
L 137.712919 363.404391 
L 142.880383 363.299017 
L 148.047847 363.365927 
L 153.215311 363.429131 
L 158.382775 363.36618 
L 163.550239 363.213469 
L 168.717703 363.384712 
L 173.885167 363.364137 
L 179.052632 363.405215 
L 184.220096 363.428772 
L 189.38756 363.428302 
L 194.555024 363.323469 
L 199.722488 363.42812 
L 204.889952 363.429809 
L 210.057416 363.471407 
L 215.22488 363.277015 
L 220.392344 363.471407 
L 225.559809 363.382654 
L 230.727273 363.304332 
L 235.894737 363.325426 
L 241.062201 363.367764 
L 246.229665 363.408752 
L 251.397129 363.316227 
L 256.564593 362.141019 
L 261.732057 359.807838 
L 266.899522 355.577082 
L 272.066986 350.474727 
L 277.23445 343.188879 
L 282.401914 333.766477 
L 287.569378 322.952588 
L 292.736842 309.939655 
L 297.904306 298.172804 
L 303.07177 283.734642 
L 308.239234 275.079729 
L 313.406699 256.491577 
L 318.574163 238.126863 
L 323.741627 219.554875 
L 328.909091 206.302667 
L 334.076555 193.178205 
L 339.244019 187.32686 
L 344.411483 175.682538 
L 349.578947 174.223179 
L 354.746411 155.186467 
L 359.913876 149.054159 
L 365.08134 143.879941 
L 370.248804 144.787998 
L 375.416268 143.639198 
L 380.583732 135.798425 
L 385.751196 132.651743 
L 390.91866 135.023673 
L 396.086124 139.226539 
L 401.253589 144.585196 
L 406.421053 151.369005 
L 411.588517 160.053314 
L 416.755981 169.009718 
L 421.923445 178.858969 
L 427.090909 189.378598 
L 432.258373 202.044303 
L 437.425837 216.061165 
L 442.593301 231.650248 
L 447.760766 247.976343 
L 452.92823 273.640805 
L 458.095694 290.517651 
L 463.263158 313.967428 
L 468.430622 329.515764 
L 473.598086 341.994706 
L 478.76555 351.967975 
L 483.933014 354.729559 
L 489.100478 356.488909 
L 494.267943 358.007495 
L 499.435407 359.605825 
L 504.602871 360.762624 
L 509.770335 362.43923 
L 514.937799 363.398285 
L 520.105263 363.430053 
L 525.272727 363.385938 
L 530.440191 363.471407 
L 535.607656 363.36617 
L 540.77512 363.42897 
L 545.942584 363.427453 
L 551.110048 363.429753 
L 556.277512 363.362059 
L 561.444976 363.450484 
L 566.61244 363.383932 
L 571.779904 363.385156 
L 576.947368 363.343063 
L 582.114833 363.407162 
L 587.282297 363.294886 
L 592.449761 363.428302 
L 597.617225 363.403794 
L 602.784689 363.406074 
L 607.952153 363.364395 
L 613.119617 363.316977 
L 618.287081 363.275576 
L 623.454545 363.29926 
" style="fill:none;stroke:#fdbf6f;stroke-linecap:square;stroke-width:1.5;"/>
   </g>
   <g id="line2d_32">
    <path clip-path="url(#p0e5fc84e0e)" d="M 132.545455 363.390459 
L 137.712919 363.361159 
L 142.880383 363.430322 
L 148.047847 363.361348 
L 153.215311 363.388275 
L 158.382775 363.281244 
L 163.550239 363.376088 
L 168.717703 363.401657 
L 173.885167 363.390228 
L 179.052632 363.391091 
L 184.220096 363.363203 
L 189.38756 363.416493 
L 194.555024 363.429142 
L 199.722488 363.375626 
L 204.889952 363.417161 
L 210.057416 363.388063 
L 215.22488 363.37017 
L 220.392344 363.417526 
L 225.559809 363.402379 
L 230.727273 363.444061 
L 235.894737 363.376624 
L 241.062201 363.431531 
L 246.229665 363.415893 
L 251.397129 363.381213 
L 256.564593 362.479859 
L 261.732057 359.313868 
L 266.899522 353.438129 
L 272.066986 347.502547 
L 277.23445 337.868858 
L 282.401914 328.762654 
L 287.569378 319.122431 
L 292.736842 306.638288 
L 297.904306 289.300054 
L 303.07177 272.24774 
L 308.239234 261.007201 
L 313.406699 243.380691 
L 318.574163 229.980851 
L 323.741627 209.849442 
L 328.909091 195.068445 
L 334.076555 189.752642 
L 339.244019 173.60376 
L 344.411483 168.039348 
L 349.578947 155.44243 
L 354.746411 144.914718 
L 359.913876 135.785352 
L 365.08134 131.159959 
L 370.248804 131.919872 
L 375.416268 129.874831 
L 380.583732 130.231911 
L 385.751196 124.834473 
L 390.91866 134.914027 
L 396.086124 139.0792 
L 401.253589 138.681346 
L 406.421053 150.936183 
L 411.588517 160.724304 
L 416.755981 170.556417 
L 421.923445 176.496572 
L 427.090909 190.326764 
L 432.258373 202.295205 
L 437.425837 212.708281 
L 442.593301 227.493397 
L 447.760766 240.305585 
L 452.92823 257.562273 
L 458.095694 276.162895 
L 463.263158 291.269033 
L 468.430622 309.199874 
L 473.598086 326.840033 
L 478.76555 340.346941 
L 483.933014 350.494622 
L 489.100478 356.341095 
L 494.267943 359.148081 
L 499.435407 361.261435 
L 504.602871 362.855358 
L 509.770335 363.390046 
L 514.937799 363.431409 
L 520.105263 363.387441 
L 525.272727 363.361178 
L 530.440191 363.430919 
L 535.607656 363.40406 
L 540.77512 363.363681 
L 545.942584 363.402078 
L 551.110048 363.332058 
L 556.277512 363.362959 
L 561.444976 363.333537 
L 566.61244 363.390915 
L 571.779904 363.375469 
L 576.947368 363.348216 
L 582.114833 363.390382 
L 587.282297 363.431162 
L 592.449761 363.319635 
L 597.617225 363.334653 
L 602.784689 363.350169 
L 607.952153 363.401006 
L 613.119617 363.3752 
L 618.287081 363.373833 
L 623.454545 363.277869 
" style="fill:none;stroke:#ff7f00;stroke-linecap:square;stroke-width:1.5;"/>
   </g>
   <g id="line2d_33">
    <path clip-path="url(#p0e5fc84e0e)" d="M 132.545455 363.4 
L 137.712919 363.382043 
L 142.880383 363.36692 
L 148.047847 363.345308 
L 153.215311 363.401799 
L 158.382775 363.401202 
L 163.550239 363.436843 
L 168.717703 363.34919 
L 173.885167 363.367624 
L 179.052632 363.294303 
L 184.220096 363.400506 
L 189.38756 363.436566 
L 194.555024 363.325573 
L 199.722488 363.38365 
L 204.889952 363.365805 
L 210.057416 363.400833 
L 215.22488 363.392123 
L 220.392344 363.359592 
L 225.559809 363.398846 
L 230.727273 363.398275 
L 235.894737 363.453123 
L 241.062201 363.397834 
L 246.229665 363.416343 
L 251.397129 363.433736 
L 256.564593 363.194756 
L 261.732057 361.610039 
L 266.899522 357.210432 
L 272.066986 352.219591 
L 277.23445 343.526104 
L 282.401914 334.214899 
L 287.569378 322.030329 
L 292.736842 310.106618 
L 297.904306 299.346994 
L 303.07177 289.994696 
L 308.239234 273.16919 
L 313.406699 255.02143 
L 318.574163 245.944184 
L 323.741627 230.002861 
L 328.909091 209.975646 
L 334.076555 200.553137 
L 339.244019 195.890279 
L 344.411483 181.631482 
L 349.578947 174.629204 
L 354.746411 169.693433 
L 359.913876 156.06872 
L 365.08134 153.998054 
L 370.248804 147.320139 
L 375.416268 140.418288 
L 380.583732 142.87476 
L 385.751196 144.925058 
L 390.91866 147.429745 
L 396.086124 152.000339 
L 401.253589 154.711937 
L 406.421053 161.274314 
L 411.588517 172.179659 
L 416.755981 181.628832 
L 421.923445 194.666467 
L 427.090909 203.886717 
L 432.258373 215.471703 
L 437.425837 230.058782 
L 442.593301 241.617956 
L 447.760766 254.752947 
L 452.92823 270.979199 
L 458.095694 287.342662 
L 463.263158 302.597359 
L 468.430622 317.690718 
L 473.598086 332.21706 
L 478.76555 344.109866 
L 483.933014 353.279285 
L 489.100478 359.736189 
L 494.267943 362.572268 
L 499.435407 363.376437 
L 504.602871 363.365573 
L 509.770335 363.349683 
L 514.937799 363.312712 
L 520.105263 363.347955 
L 525.272727 363.348042 
L 530.440191 363.294 
L 535.607656 363.454117 
L 540.77512 363.364276 
L 545.942584 363.288415 
L 551.110048 363.36319 
L 556.277512 363.384736 
L 561.444976 363.379839 
L 566.61244 363.435302 
L 571.779904 363.401243 
L 576.947368 363.39947 
L 582.114833 363.345337 
L 587.282297 363.382213 
L 592.449761 363.364446 
L 597.617225 363.364338 
L 602.784689 363.399814 
L 607.952153 363.330358 
L 613.119617 363.349878 
L 618.287081 363.376984 
L 623.454545 363.435393 
" style="fill:none;stroke:#cab2d6;stroke-linecap:square;stroke-width:1.5;"/>
   </g>
   <g id="line2d_34">
    <path clip-path="url(#p0e5fc84e0e)" d="M 132.545455 363.471407 
L 137.712919 363.377944 
L 142.880383 363.378938 
L 148.047847 363.329836 
L 153.215311 363.37822 
L 158.382775 363.332444 
L 163.550239 363.380131 
L 168.717703 363.280016 
L 173.885167 363.373314 
L 179.052632 363.424416 
L 184.220096 363.42467 
L 189.38756 363.423609 
L 194.555024 363.42509 
L 199.722488 363.471407 
L 204.889952 363.280414 
L 210.057416 363.379281 
L 215.22488 363.471407 
L 220.392344 363.423764 
L 225.559809 363.423963 
L 230.727273 363.4232 
L 235.894737 363.424957 
L 241.062201 363.332112 
L 246.229665 363.183083 
L 251.397129 363.37959 
L 256.564593 363.332333 
L 261.732057 363.471407 
L 266.899522 363.471407 
L 272.066986 363.110653 
L 277.23445 358.426708 
L 282.401914 348.607958 
L 287.569378 333.585939 
L 292.736842 319.939387 
L 297.904306 311.111173 
L 303.07177 304.432556 
L 308.239234 298.376493 
L 313.406699 291.192357 
L 318.574163 287.257178 
L 323.741627 282.600477 
L 328.909091 274.197274 
L 334.076555 266.240658 
L 339.244019 258.193941 
L 344.411483 252.43129 
L 349.578947 230.091691 
L 354.746411 228.200551 
L 359.913876 232.036898 
L 365.08134 234.805592 
L 370.248804 234.356239 
L 375.416268 238.361572 
L 380.583732 240.746711 
L 385.751196 238.403094 
L 390.91866 240.105967 
L 396.086124 241.739244 
L 401.253589 253.697365 
L 406.421053 253.248765 
L 411.588517 260.886393 
L 416.755981 271.09413 
L 421.923445 278.336104 
L 427.090909 278.496945 
L 432.258373 279.190381 
L 437.425837 288.11334 
L 442.593301 303.410561 
L 447.760766 306.141964 
L 452.92823 318.364263 
L 458.095694 334.558188 
L 463.263158 343.72786 
L 468.430622 351.626935 
L 473.598086 358.541801 
L 478.76555 362.77826 
L 483.933014 363.325737 
L 489.100478 363.333681 
L 494.267943 363.283442 
L 499.435407 363.421996 
L 504.602871 363.471407 
L 509.770335 363.325649 
L 514.937799 363.332179 
L 520.105263 363.285817 
L 525.272727 363.418195 
L 530.440191 363.3739 
L 535.607656 363.379225 
L 540.77512 363.37022 
L 545.942584 363.424659 
L 551.110048 363.379049 
L 556.277512 363.280072 
L 561.444976 363.23308 
L 566.61244 363.282734 
L 571.779904 363.471407 
L 576.947368 363.284093 
L 582.114833 363.376176 
L 587.282297 363.424394 
L 592.449761 363.376408 
L 597.617225 363.331284 
L 602.784689 363.379015 
L 607.952153 363.425333 
L 613.119617 363.379579 
L 618.287081 363.37443 
L 623.454545 363.471407 
" style="fill:none;stroke:#6a3d9a;stroke-linecap:square;stroke-width:1.5;"/>
   </g>
   <g id="line2d_35">
    <path clip-path="url(#p0e5fc84e0e)" d="M 132.545455 363.304421 
L 137.712919 363.417411 
L 142.880383 363.315757 
L 148.047847 363.4193 
L 153.215311 363.367094 
L 158.382775 363.365366 
L 163.550239 363.416789 
L 168.717703 363.471407 
L 173.885167 363.416951 
L 179.052632 363.471407 
L 184.220096 363.363041 
L 189.38756 363.367951 
L 194.555024 363.309393 
L 199.722488 363.36636 
L 204.889952 363.256776 
L 210.057416 363.314042 
L 215.22488 363.419437 
L 220.392344 363.416565 
L 225.559809 363.258678 
L 230.727273 363.471407 
L 235.894737 363.318405 
L 241.062201 363.365503 
L 246.229665 363.420083 
L 251.397129 363.471407 
L 256.564593 363.418989 
L 261.732057 363.360406 
L 266.899522 363.418119 
L 272.066986 363.315981 
L 277.23445 363.471407 
L 282.401914 363.384544 
L 287.569378 361.513828 
L 292.736842 360.920266 
L 297.904306 327.232112 
L 303.07177 227.788434 
L 308.239234 171.484522 
L 313.406699 154.805779 
L 318.574163 140.581614 
L 323.741627 129.023092 
L 328.909091 117.771433 
L 334.076555 129.215333 
L 339.244019 131.514958 
L 344.411483 116.167746 
L 349.578947 90.76172 
L 354.746411 86.761658 
L 359.913876 83.868453 
L 365.08134 80.475644 
L 370.248804 80.928488 
L 375.416268 82.61165 
L 380.583732 91.146148 
L 385.751196 84.66239 
L 390.91866 88.746734 
L 396.086124 91.863516 
L 401.253589 99.561781 
L 406.421053 108.673258 
L 411.588517 118.698356 
L 416.755981 128.126321 
L 421.923445 142.643836 
L 427.090909 158.68418 
L 432.258373 175.055531 
L 437.425837 192.082663 
L 442.593301 211.776119 
L 447.760766 233.290729 
L 452.92823 282.85232 
L 458.095694 341.67138 
L 463.263158 362.449225 
L 468.430622 363.028809 
L 473.598086 363.419785 
L 478.76555 363.365378 
L 483.933014 363.36462 
L 489.100478 363.419014 
L 494.267943 363.367603 
L 499.435407 363.418244 
L 504.602871 363.419188 
L 509.770335 363.208883 
L 514.937799 363.363116 
L 520.105263 363.146894 
L 525.272727 363.1413 
L 530.440191 363.313246 
L 535.607656 363.368635 
L 540.77512 363.471407 
L 545.942584 363.366683 
L 551.110048 363.418418 
L 556.277512 363.417187 
L 561.444976 363.257994 
L 566.61244 363.36457 
L 571.779904 363.311121 
L 576.947368 363.420232 
L 582.114833 363.419574 
L 587.282297 363.258653 
L 592.449761 363.471407 
L 597.617225 363.41935 
L 602.784689 363.263078 
L 607.952153 363.419126 
L 613.119617 363.365055 
L 618.287081 363.417187 
L 623.454545 363.102481 
" style="fill:none;stroke:#ffff99;stroke-linecap:square;stroke-width:1.5;"/>
   </g>
   <g id="line2d_36">
    <path clip-path="url(#p0e5fc84e0e)" d="M 132.545455 363.333143 
L 137.712919 363.403281 
L 142.880383 363.361259 
L 148.047847 363.359578 
L 153.215311 363.376646 
L 158.382775 363.415768 
L 163.550239 363.389224 
L 168.717703 363.388339 
L 173.885167 363.375973 
L 179.052632 363.416779 
L 184.220096 363.388778 
L 189.38756 363.376919 
L 194.555024 363.349845 
L 199.722488 363.36115 
L 204.889952 363.400185 
L 210.057416 363.347407 
L 215.22488 363.41615 
L 220.392344 363.416785 
L 225.559809 363.376643 
L 230.727273 363.443936 
L 235.894737 363.370747 
L 241.062201 363.375283 
L 246.229665 363.403149 
L 251.397129 363.351148 
L 256.564593 363.401545 
L 261.732057 363.443044 
L 266.899522 363.362519 
L 272.066986 363.416865 
L 277.23445 363.457733 
L 282.401914 363.358571 
L 287.569378 362.751824 
L 292.736842 360.397782 
L 297.904306 357.73887 
L 303.07177 342.629502 
L 308.239234 292.63466 
L 313.406699 229.063588 
L 318.574163 191.523154 
L 323.741627 173.582479 
L 328.909091 165.292565 
L 334.076555 158.600879 
L 339.244019 149.996562 
L 344.411483 140.97766 
L 349.578947 132.625807 
L 354.746411 124.517609 
L 359.913876 120.000597 
L 365.08134 114.783451 
L 370.248804 125.576616 
L 375.416268 122.064431 
L 380.583732 115.291174 
L 385.751196 121.520603 
L 390.91866 118.803421 
L 396.086124 114.902256 
L 401.253589 117.815341 
L 406.421053 128.19607 
L 411.588517 142.675003 
L 416.755981 157.369361 
L 421.923445 172.206457 
L 427.090909 182.258679 
L 432.258373 202.886305 
L 437.425837 226.148122 
L 442.593301 230.252352 
L 447.760766 257.168942 
L 452.92823 315.167911 
L 458.095694 356.746506 
L 463.263158 361.443103 
L 468.430622 363.037749 
L 473.598086 363.401564 
L 478.76555 363.361727 
L 483.933014 363.442935 
L 489.100478 363.37614 
L 494.267943 363.361432 
L 499.435407 363.417292 
L 504.602871 363.348123 
L 509.770335 363.265038 
L 514.937799 363.276942 
L 520.105263 363.333649 
L 525.272727 363.363369 
L 530.440191 363.291018 
L 535.607656 363.248319 
L 540.77512 363.33618 
L 545.942584 363.280785 
L 551.110048 363.305065 
L 556.277512 363.331882 
L 561.444976 363.282546 
L 566.61244 363.346971 
L 571.779904 363.389593 
L 576.947368 363.348296 
L 582.114833 363.361409 
L 587.282297 363.389266 
L 592.449761 363.416978 
L 597.617225 363.307342 
L 602.784689 363.359092 
L 607.952153 363.323449 
L 613.119617 363.415031 
L 618.287081 363.403916 
L 623.454545 363.403252 
" style="fill:none;stroke:#b15928;stroke-linecap:square;stroke-width:1.5;"/>
   </g>
   <g id="patch_3">
    <path d="M 108 378.236801 
L 108 53.398137 
" style="fill:none;stroke:#000000;stroke-linecap:square;stroke-linejoin:miter;stroke-width:0.8;"/>
   </g>
   <g id="patch_4">
    <path d="M 648 378.236801 
L 648 53.398137 
" style="fill:none;stroke:#000000;stroke-linecap:square;stroke-linejoin:miter;stroke-width:0.8;"/>
   </g>
   <g id="patch_5">
    <path d="M 108 378.236801 
L 648 378.236801 
" style="fill:none;stroke:#000000;stroke-linecap:square;stroke-linejoin:miter;stroke-width:0.8;"/>
   </g>
   <g id="patch_6">
    <path d="M 108 53.398137 
L 648 53.398137 
" style="fill:none;stroke:#000000;stroke-linecap:square;stroke-linejoin:miter;stroke-width:0.8;"/>
   </g>
   <g id="legend_1">
    <g id="patch_7">
     <path d="M 596.275 237.535637 
L 641 237.535637 
Q 643 237.535637 643 235.535637 
L 643 60.398137 
Q 643 58.398137 641 58.398137 
L 596.275 58.398137 
Q 594.275 58.398137 594.275 60.398137 
L 594.275 235.535637 
Q 594.275 237.535637 596.275 237.535637 
z
" style="fill:#ffffff;opacity:0.8;stroke:#cccccc;stroke-linejoin:miter;"/>
    </g>
    <g id="line2d_37">
     <path d="M 598.275 66.496574 
L 618.275 66.496574 
" style="fill:none;stroke:#a6cee3;stroke-linecap:square;stroke-width:1.5;"/>
    </g>
    <g id="line2d_38"/>
    <g id="text_15">
     <!-- 01 -->
     <g transform="translate(626.275 69.996574)scale(0.1 -0.1)">
      <use xlink:href="#DejaVuSans-30"/>
      <use x="63.623047" xlink:href="#DejaVuSans-31"/>
     </g>
    </g>
    <g id="line2d_39">
     <path d="M 598.275 81.174699 
L 618.275 81.174699 
" style="fill:none;stroke:#1f78b4;stroke-linecap:square;stroke-width:1.5;"/>
    </g>
    <g id="line2d_40"/>
    <g id="text_16">
     <!-- 02 -->
     <g transform="translate(626.275 84.674699)scale(0.1 -0.1)">
      <use xlink:href="#DejaVuSans-30"/>
      <use x="63.623047" xlink:href="#DejaVuSans-32"/>
     </g>
    </g>
    <g id="line2d_41">
     <path d="M 598.275 95.852824 
L 618.275 95.852824 
" style="fill:none;stroke:#b2df8a;stroke-linecap:square;stroke-width:1.5;"/>
    </g>
    <g id="line2d_42"/>
    <g id="text_17">
     <!-- 03 -->
     <g transform="translate(626.275 99.352824)scale(0.1 -0.1)">
      <use xlink:href="#DejaVuSans-30"/>
      <use x="63.623047" xlink:href="#DejaVuSans-33"/>
     </g>
    </g>
    <g id="line2d_43">
     <path d="M 598.275 110.530949 
L 618.275 110.530949 
" style="fill:none;stroke:#33a02c;stroke-linecap:square;stroke-width:1.5;"/>
    </g>
    <g id="line2d_44"/>
    <g id="text_18">
     <!-- 04 -->
     <g transform="translate(626.275 114.030949)scale(0.1 -0.1)">
      <use xlink:href="#DejaVuSans-30"/>
      <use x="63.623047" xlink:href="#DejaVuSans-34"/>
     </g>
    </g>
    <g id="line2d_45">
     <path d="M 598.275 125.209074 
L 618.275 125.209074 
" style="fill:none;stroke:#fb9a99;stroke-linecap:square;stroke-width:1.5;"/>
    </g>
    <g id="line2d_46"/>
    <g id="text_19">
     <!-- 05 -->
     <g transform="translate(626.275 128.709074)scale(0.1 -0.1)">
      <use xlink:href="#DejaVuSans-30"/>
      <use x="63.623047" xlink:href="#DejaVuSans-35"/>
     </g>
    </g>
    <g id="line2d_47">
     <path d="M 598.275 139.887199 
L 618.275 139.887199 
" style="fill:none;stroke:#e31a1c;stroke-linecap:square;stroke-width:1.5;"/>
    </g>
    <g id="line2d_48"/>
    <g id="text_20">
     <!-- 06 -->
     <g transform="translate(626.275 143.387199)scale(0.1 -0.1)">
      <use xlink:href="#DejaVuSans-30"/>
      <use x="63.623047" xlink:href="#DejaVuSans-36"/>
     </g>
    </g>
    <g id="line2d_49">
     <path d="M 598.275 154.565324 
L 618.275 154.565324 
" style="fill:none;stroke:#fdbf6f;stroke-linecap:square;stroke-width:1.5;"/>
    </g>
    <g id="line2d_50"/>
    <g id="text_21">
     <!-- 07 -->
     <g transform="translate(626.275 158.065324)scale(0.1 -0.1)">
      <defs>
       <path d="M 525 4666 
L 3525 4666 
L 3525 4397 
L 1831 0 
L 1172 0 
L 2766 4134 
L 525 4134 
L 525 4666 
z
" id="DejaVuSans-37" transform="scale(0.015625)"/>
      </defs>
      <use xlink:href="#DejaVuSans-30"/>
      <use x="63.623047" xlink:href="#DejaVuSans-37"/>
     </g>
    </g>
    <g id="line2d_51">
     <path d="M 598.275 169.243449 
L 618.275 169.243449 
" style="fill:none;stroke:#ff7f00;stroke-linecap:square;stroke-width:1.5;"/>
    </g>
    <g id="line2d_52"/>
    <g id="text_22">
     <!-- 08 -->
     <g transform="translate(626.275 172.743449)scale(0.1 -0.1)">
      <use xlink:href="#DejaVuSans-30"/>
      <use x="63.623047" xlink:href="#DejaVuSans-38"/>
     </g>
    </g>
    <g id="line2d_53">
     <path d="M 598.275 183.921574 
L 618.275 183.921574 
" style="fill:none;stroke:#cab2d6;stroke-linecap:square;stroke-width:1.5;"/>
    </g>
    <g id="line2d_54"/>
    <g id="text_23">
     <!-- 09 -->
     <g transform="translate(626.275 187.421574)scale(0.1 -0.1)">
      <defs>
       <path d="M 703 97 
L 703 672 
Q 941 559 1184 500 
Q 1428 441 1663 441 
Q 2288 441 2617 861 
Q 2947 1281 2994 2138 
Q 2813 1869 2534 1725 
Q 2256 1581 1919 1581 
Q 1219 1581 811 2004 
Q 403 2428 403 3163 
Q 403 3881 828 4315 
Q 1253 4750 1959 4750 
Q 2769 4750 3195 4129 
Q 3622 3509 3622 2328 
Q 3622 1225 3098 567 
Q 2575 -91 1691 -91 
Q 1453 -91 1209 -44 
Q 966 3 703 97 
z
M 1959 2075 
Q 2384 2075 2632 2365 
Q 2881 2656 2881 3163 
Q 2881 3666 2632 3958 
Q 2384 4250 1959 4250 
Q 1534 4250 1286 3958 
Q 1038 3666 1038 3163 
Q 1038 2656 1286 2365 
Q 1534 2075 1959 2075 
z
" id="DejaVuSans-39" transform="scale(0.015625)"/>
      </defs>
      <use xlink:href="#DejaVuSans-30"/>
      <use x="63.623047" xlink:href="#DejaVuSans-39"/>
     </g>
    </g>
    <g id="line2d_55">
     <path d="M 598.275 198.599699 
L 618.275 198.599699 
" style="fill:none;stroke:#6a3d9a;stroke-linecap:square;stroke-width:1.5;"/>
    </g>
    <g id="line2d_56"/>
    <g id="text_24">
     <!-- 10 -->
     <g transform="translate(626.275 202.099699)scale(0.1 -0.1)">
      <use xlink:href="#DejaVuSans-31"/>
      <use x="63.623047" xlink:href="#DejaVuSans-30"/>
     </g>
    </g>
    <g id="line2d_57">
     <path d="M 598.275 213.277824 
L 618.275 213.277824 
" style="fill:none;stroke:#ffff99;stroke-linecap:square;stroke-width:1.5;"/>
    </g>
    <g id="line2d_58"/>
    <g id="text_25">
     <!-- 11 -->
     <g transform="translate(626.275 216.777824)scale(0.1 -0.1)">
      <use xlink:href="#DejaVuSans-31"/>
      <use x="63.623047" xlink:href="#DejaVuSans-31"/>
     </g>
    </g>
    <g id="line2d_59">
     <path d="M 598.275 227.955949 
L 618.275 227.955949 
" style="fill:none;stroke:#b15928;stroke-linecap:square;stroke-width:1.5;"/>
    </g>
    <g id="line2d_60"/>
    <g id="text_26">
     <!-- 12 -->
     <g transform="translate(626.275 231.455949)scale(0.1 -0.1)">
      <use xlink:href="#DejaVuSans-31"/>
      <use x="63.623047" xlink:href="#DejaVuSans-32"/>
     </g>
    </g>
   </g>
  </g>
 </g>
 <defs>
  <clipPath id="p0e5fc84e0e">
   <rect height="324.838664" width="540" x="108" y="53.398137"/>
  </clipPath>
 </defs>
</svg>
