<?xml version="1.0" encoding="utf-8" standalone="no"?>
<!DOCTYPE svg PUBLIC "-//W3C//DTD SVG 1.1//EN"
  "http://www.w3.org/Graphics/SVG/1.1/DTD/svg11.dtd">
<svg height="444.984472pt" version="1.1" viewBox="0 0 720 444.984472" width="720pt" xmlns="http://www.w3.org/2000/svg" xmlns:xlink="http://www.w3.org/1999/xlink">
 <metadata>
  <rdf:RDF xmlns:cc="http://creativecommons.org/ns#" xmlns:dc="http://purl.org/dc/elements/1.1/" xmlns:rdf="http://www.w3.org/1999/02/22-rdf-syntax-ns#">
   <cc:Work>
    <dc:type rdf:resource="http://purl.org/dc/dcmitype/StillImage"/>
    <dc:date>2021-05-20T15:34:01.786401</dc:date>
    <dc:format>image/svg+xml</dc:format>
    <dc:creator>
     <cc:Agent>
      <dc:title>Matplotlib v3.4.2, https://matplotlib.org/</dc:title>
     </cc:Agent>
    </dc:creator>
   </cc:Work>
  </rdf:RDF>
 </metadata>
 <defs>
  <style type="text/css">*{stroke-linecap:butt;stroke-linejoin:round;}</style>
 </defs>
 <g id="figure_1">
  <g id="patch_1">
   <path d="M 0 444.984472 
L 720 444.984472 
L 720 0 
L 0 0 
z
" style="fill:#ffffff;"/>
  </g>
  <g id="axes_1">
   <g id="patch_2">
    <path d="M 108 378.236801 
L 648 378.236801 
L 648 53.398137 
L 108 53.398137 
z
" style="fill:#ffffff;"/>
   </g>
   <g id="matplotlib.axis_1">
    <g id="xtick_1">
     <g id="line2d_1">
      <path clip-path="url(#pb23c9894f0)" d="M 155.051123 378.236801 
L 155.051123 53.398137 
" style="fill:none;stroke:#b0b0b0;stroke-linecap:square;stroke-width:0.8;"/>
     </g>
     <g id="line2d_2">
      <defs>
       <path d="M 0 0 
L 0 3.5 
" id="m844d2b0b9a" style="stroke:#000000;stroke-width:0.8;"/>
      </defs>
      <g>
       <use style="stroke:#000000;stroke-width:0.8;" x="155.051123" xlink:href="#m844d2b0b9a" y="378.236801"/>
      </g>
     </g>
     <g id="text_1">
      <!-- 2021-05-14 -->
      <g transform="translate(125.993311 399.335239)scale(0.1 -0.1)">
       <defs>
        <path d="M 1228 531 
L 3431 531 
L 3431 0 
L 469 0 
L 469 531 
Q 828 903 1448 1529 
Q 2069 2156 2228 2338 
Q 2531 2678 2651 2914 
Q 2772 3150 2772 3378 
Q 2772 3750 2511 3984 
Q 2250 4219 1831 4219 
Q 1534 4219 1204 4116 
Q 875 4013 500 3803 
L 500 4441 
Q 881 4594 1212 4672 
Q 1544 4750 1819 4750 
Q 2544 4750 2975 4387 
Q 3406 4025 3406 3419 
Q 3406 3131 3298 2873 
Q 3191 2616 2906 2266 
Q 2828 2175 2409 1742 
Q 1991 1309 1228 531 
z
" id="DejaVuSans-32" transform="scale(0.015625)"/>
        <path d="M 2034 4250 
Q 1547 4250 1301 3770 
Q 1056 3291 1056 2328 
Q 1056 1369 1301 889 
Q 1547 409 2034 409 
Q 2525 409 2770 889 
Q 3016 1369 3016 2328 
Q 3016 3291 2770 3770 
Q 2525 4250 2034 4250 
z
M 2034 4750 
Q 2819 4750 3233 4129 
Q 3647 3509 3647 2328 
Q 3647 1150 3233 529 
Q 2819 -91 2034 -91 
Q 1250 -91 836 529 
Q 422 1150 422 2328 
Q 422 3509 836 4129 
Q 1250 4750 2034 4750 
z
" id="DejaVuSans-30" transform="scale(0.015625)"/>
        <path d="M 794 531 
L 1825 531 
L 1825 4091 
L 703 3866 
L 703 4441 
L 1819 4666 
L 2450 4666 
L 2450 531 
L 3481 531 
L 3481 0 
L 794 0 
L 794 531 
z
" id="DejaVuSans-31" transform="scale(0.015625)"/>
        <path d="M 313 2009 
L 1997 2009 
L 1997 1497 
L 313 1497 
L 313 2009 
z
" id="DejaVuSans-2d" transform="scale(0.015625)"/>
        <path d="M 691 4666 
L 3169 4666 
L 3169 4134 
L 1269 4134 
L 1269 2991 
Q 1406 3038 1543 3061 
Q 1681 3084 1819 3084 
Q 2600 3084 3056 2656 
Q 3513 2228 3513 1497 
Q 3513 744 3044 326 
Q 2575 -91 1722 -91 
Q 1428 -91 1123 -41 
Q 819 9 494 109 
L 494 744 
Q 775 591 1075 516 
Q 1375 441 1709 441 
Q 2250 441 2565 725 
Q 2881 1009 2881 1497 
Q 2881 1984 2565 2268 
Q 2250 2553 1709 2553 
Q 1456 2553 1204 2497 
Q 953 2441 691 2322 
L 691 4666 
z
" id="DejaVuSans-35" transform="scale(0.015625)"/>
        <path d="M 2419 4116 
L 825 1625 
L 2419 1625 
L 2419 4116 
z
M 2253 4666 
L 3047 4666 
L 3047 1625 
L 3713 1625 
L 3713 1100 
L 3047 1100 
L 3047 0 
L 2419 0 
L 2419 1100 
L 313 1100 
L 313 1709 
L 2253 4666 
z
" id="DejaVuSans-34" transform="scale(0.015625)"/>
       </defs>
       <use xlink:href="#DejaVuSans-32"/>
       <use x="63.623047" xlink:href="#DejaVuSans-30"/>
       <use x="127.246094" xlink:href="#DejaVuSans-32"/>
       <use x="190.869141" xlink:href="#DejaVuSans-31"/>
       <use x="254.492188" xlink:href="#DejaVuSans-2d"/>
       <use x="290.576172" xlink:href="#DejaVuSans-30"/>
       <use x="354.199219" xlink:href="#DejaVuSans-35"/>
       <use x="417.822266" xlink:href="#DejaVuSans-2d"/>
       <use x="453.90625" xlink:href="#DejaVuSans-31"/>
       <use x="517.529297" xlink:href="#DejaVuSans-34"/>
      </g>
     </g>
    </g>
    <g id="xtick_2">
     <g id="line2d_3">
      <path clip-path="url(#pb23c9894f0)" d="M 222.56813 378.236801 
L 222.56813 53.398137 
" style="fill:none;stroke:#b0b0b0;stroke-linecap:square;stroke-width:0.8;"/>
     </g>
     <g id="line2d_4">
      <g>
       <use style="stroke:#000000;stroke-width:0.8;" x="222.56813" xlink:href="#m844d2b0b9a" y="378.236801"/>
      </g>
     </g>
     <g id="text_2">
      <!-- 2021-05-15 -->
      <g transform="translate(193.510317 399.335239)scale(0.1 -0.1)">
       <use xlink:href="#DejaVuSans-32"/>
       <use x="63.623047" xlink:href="#DejaVuSans-30"/>
       <use x="127.246094" xlink:href="#DejaVuSans-32"/>
       <use x="190.869141" xlink:href="#DejaVuSans-31"/>
       <use x="254.492188" xlink:href="#DejaVuSans-2d"/>
       <use x="290.576172" xlink:href="#DejaVuSans-30"/>
       <use x="354.199219" xlink:href="#DejaVuSans-35"/>
       <use x="417.822266" xlink:href="#DejaVuSans-2d"/>
       <use x="453.90625" xlink:href="#DejaVuSans-31"/>
       <use x="517.529297" xlink:href="#DejaVuSans-35"/>
      </g>
     </g>
    </g>
    <g id="xtick_3">
     <g id="line2d_5">
      <path clip-path="url(#pb23c9894f0)" d="M 290.085136 378.236801 
L 290.085136 53.398137 
" style="fill:none;stroke:#b0b0b0;stroke-linecap:square;stroke-width:0.8;"/>
     </g>
     <g id="line2d_6">
      <g>
       <use style="stroke:#000000;stroke-width:0.8;" x="290.085136" xlink:href="#m844d2b0b9a" y="378.236801"/>
      </g>
     </g>
     <g id="text_3">
      <!-- 2021-05-16 -->
      <g transform="translate(261.027324 399.335239)scale(0.1 -0.1)">
       <defs>
        <path d="M 2113 2584 
Q 1688 2584 1439 2293 
Q 1191 2003 1191 1497 
Q 1191 994 1439 701 
Q 1688 409 2113 409 
Q 2538 409 2786 701 
Q 3034 994 3034 1497 
Q 3034 2003 2786 2293 
Q 2538 2584 2113 2584 
z
M 3366 4563 
L 3366 3988 
Q 3128 4100 2886 4159 
Q 2644 4219 2406 4219 
Q 1781 4219 1451 3797 
Q 1122 3375 1075 2522 
Q 1259 2794 1537 2939 
Q 1816 3084 2150 3084 
Q 2853 3084 3261 2657 
Q 3669 2231 3669 1497 
Q 3669 778 3244 343 
Q 2819 -91 2113 -91 
Q 1303 -91 875 529 
Q 447 1150 447 2328 
Q 447 3434 972 4092 
Q 1497 4750 2381 4750 
Q 2619 4750 2861 4703 
Q 3103 4656 3366 4563 
z
" id="DejaVuSans-36" transform="scale(0.015625)"/>
       </defs>
       <use xlink:href="#DejaVuSans-32"/>
       <use x="63.623047" xlink:href="#DejaVuSans-30"/>
       <use x="127.246094" xlink:href="#DejaVuSans-32"/>
       <use x="190.869141" xlink:href="#DejaVuSans-31"/>
       <use x="254.492188" xlink:href="#DejaVuSans-2d"/>
       <use x="290.576172" xlink:href="#DejaVuSans-30"/>
       <use x="354.199219" xlink:href="#DejaVuSans-35"/>
       <use x="417.822266" xlink:href="#DejaVuSans-2d"/>
       <use x="453.90625" xlink:href="#DejaVuSans-31"/>
       <use x="517.529297" xlink:href="#DejaVuSans-36"/>
      </g>
     </g>
    </g>
    <g id="xtick_4">
     <g id="line2d_7">
      <path clip-path="url(#pb23c9894f0)" d="M 357.602143 378.236801 
L 357.602143 53.398137 
" style="fill:none;stroke:#b0b0b0;stroke-linecap:square;stroke-width:0.8;"/>
     </g>
     <g id="line2d_8">
      <g>
       <use style="stroke:#000000;stroke-width:0.8;" x="357.602143" xlink:href="#m844d2b0b9a" y="378.236801"/>
      </g>
     </g>
     <g id="text_4">
      <!-- 2021-05-17 -->
      <g transform="translate(328.54433 399.335239)scale(0.1 -0.1)">
       <defs>
        <path d="M 525 4666 
L 3525 4666 
L 3525 4397 
L 1831 0 
L 1172 0 
L 2766 4134 
L 525 4134 
L 525 4666 
z
" id="DejaVuSans-37" transform="scale(0.015625)"/>
       </defs>
       <use xlink:href="#DejaVuSans-32"/>
       <use x="63.623047" xlink:href="#DejaVuSans-30"/>
       <use x="127.246094" xlink:href="#DejaVuSans-32"/>
       <use x="190.869141" xlink:href="#DejaVuSans-31"/>
       <use x="254.492188" xlink:href="#DejaVuSans-2d"/>
       <use x="290.576172" xlink:href="#DejaVuSans-30"/>
       <use x="354.199219" xlink:href="#DejaVuSans-35"/>
       <use x="417.822266" xlink:href="#DejaVuSans-2d"/>
       <use x="453.90625" xlink:href="#DejaVuSans-31"/>
       <use x="517.529297" xlink:href="#DejaVuSans-37"/>
      </g>
     </g>
    </g>
    <g id="xtick_5">
     <g id="line2d_9">
      <path clip-path="url(#pb23c9894f0)" d="M 425.119149 378.236801 
L 425.119149 53.398137 
" style="fill:none;stroke:#b0b0b0;stroke-linecap:square;stroke-width:0.8;"/>
     </g>
     <g id="line2d_10">
      <g>
       <use style="stroke:#000000;stroke-width:0.8;" x="425.119149" xlink:href="#m844d2b0b9a" y="378.236801"/>
      </g>
     </g>
     <g id="text_5">
      <!-- 2021-05-18 -->
      <g transform="translate(396.061337 399.335239)scale(0.1 -0.1)">
       <defs>
        <path d="M 2034 2216 
Q 1584 2216 1326 1975 
Q 1069 1734 1069 1313 
Q 1069 891 1326 650 
Q 1584 409 2034 409 
Q 2484 409 2743 651 
Q 3003 894 3003 1313 
Q 3003 1734 2745 1975 
Q 2488 2216 2034 2216 
z
M 1403 2484 
Q 997 2584 770 2862 
Q 544 3141 544 3541 
Q 544 4100 942 4425 
Q 1341 4750 2034 4750 
Q 2731 4750 3128 4425 
Q 3525 4100 3525 3541 
Q 3525 3141 3298 2862 
Q 3072 2584 2669 2484 
Q 3125 2378 3379 2068 
Q 3634 1759 3634 1313 
Q 3634 634 3220 271 
Q 2806 -91 2034 -91 
Q 1263 -91 848 271 
Q 434 634 434 1313 
Q 434 1759 690 2068 
Q 947 2378 1403 2484 
z
M 1172 3481 
Q 1172 3119 1398 2916 
Q 1625 2713 2034 2713 
Q 2441 2713 2670 2916 
Q 2900 3119 2900 3481 
Q 2900 3844 2670 4047 
Q 2441 4250 2034 4250 
Q 1625 4250 1398 4047 
Q 1172 3844 1172 3481 
z
" id="DejaVuSans-38" transform="scale(0.015625)"/>
       </defs>
       <use xlink:href="#DejaVuSans-32"/>
       <use x="63.623047" xlink:href="#DejaVuSans-30"/>
       <use x="127.246094" xlink:href="#DejaVuSans-32"/>
       <use x="190.869141" xlink:href="#DejaVuSans-31"/>
       <use x="254.492188" xlink:href="#DejaVuSans-2d"/>
       <use x="290.576172" xlink:href="#DejaVuSans-30"/>
       <use x="354.199219" xlink:href="#DejaVuSans-35"/>
       <use x="417.822266" xlink:href="#DejaVuSans-2d"/>
       <use x="453.90625" xlink:href="#DejaVuSans-31"/>
       <use x="517.529297" xlink:href="#DejaVuSans-38"/>
      </g>
     </g>
    </g>
    <g id="xtick_6">
     <g id="line2d_11">
      <path clip-path="url(#pb23c9894f0)" d="M 492.636156 378.236801 
L 492.636156 53.398137 
" style="fill:none;stroke:#b0b0b0;stroke-linecap:square;stroke-width:0.8;"/>
     </g>
     <g id="line2d_12">
      <g>
       <use style="stroke:#000000;stroke-width:0.8;" x="492.636156" xlink:href="#m844d2b0b9a" y="378.236801"/>
      </g>
     </g>
     <g id="text_6">
      <!-- 2021-05-19 -->
      <g transform="translate(463.578343 399.335239)scale(0.1 -0.1)">
       <defs>
        <path d="M 703 97 
L 703 672 
Q 941 559 1184 500 
Q 1428 441 1663 441 
Q 2288 441 2617 861 
Q 2947 1281 2994 2138 
Q 2813 1869 2534 1725 
Q 2256 1581 1919 1581 
Q 1219 1581 811 2004 
Q 403 2428 403 3163 
Q 403 3881 828 4315 
Q 1253 4750 1959 4750 
Q 2769 4750 3195 4129 
Q 3622 3509 3622 2328 
Q 3622 1225 3098 567 
Q 2575 -91 1691 -91 
Q 1453 -91 1209 -44 
Q 966 3 703 97 
z
M 1959 2075 
Q 2384 2075 2632 2365 
Q 2881 2656 2881 3163 
Q 2881 3666 2632 3958 
Q 2384 4250 1959 4250 
Q 1534 4250 1286 3958 
Q 1038 3666 1038 3163 
Q 1038 2656 1286 2365 
Q 1534 2075 1959 2075 
z
" id="DejaVuSans-39" transform="scale(0.015625)"/>
       </defs>
       <use xlink:href="#DejaVuSans-32"/>
       <use x="63.623047" xlink:href="#DejaVuSans-30"/>
       <use x="127.246094" xlink:href="#DejaVuSans-32"/>
       <use x="190.869141" xlink:href="#DejaVuSans-31"/>
       <use x="254.492188" xlink:href="#DejaVuSans-2d"/>
       <use x="290.576172" xlink:href="#DejaVuSans-30"/>
       <use x="354.199219" xlink:href="#DejaVuSans-35"/>
       <use x="417.822266" xlink:href="#DejaVuSans-2d"/>
       <use x="453.90625" xlink:href="#DejaVuSans-31"/>
       <use x="517.529297" xlink:href="#DejaVuSans-39"/>
      </g>
     </g>
    </g>
    <g id="xtick_7">
     <g id="line2d_13">
      <path clip-path="url(#pb23c9894f0)" d="M 560.153162 378.236801 
L 560.153162 53.398137 
" style="fill:none;stroke:#b0b0b0;stroke-linecap:square;stroke-width:0.8;"/>
     </g>
     <g id="line2d_14">
      <g>
       <use style="stroke:#000000;stroke-width:0.8;" x="560.153162" xlink:href="#m844d2b0b9a" y="378.236801"/>
      </g>
     </g>
     <g id="text_7">
      <!-- 2021-05-20 -->
      <g transform="translate(531.09535 399.335239)scale(0.1 -0.1)">
       <use xlink:href="#DejaVuSans-32"/>
       <use x="63.623047" xlink:href="#DejaVuSans-30"/>
       <use x="127.246094" xlink:href="#DejaVuSans-32"/>
       <use x="190.869141" xlink:href="#DejaVuSans-31"/>
       <use x="254.492188" xlink:href="#DejaVuSans-2d"/>
       <use x="290.576172" xlink:href="#DejaVuSans-30"/>
       <use x="354.199219" xlink:href="#DejaVuSans-35"/>
       <use x="417.822266" xlink:href="#DejaVuSans-2d"/>
       <use x="453.90625" xlink:href="#DejaVuSans-32"/>
       <use x="517.529297" xlink:href="#DejaVuSans-30"/>
      </g>
     </g>
    </g>
    <g id="xtick_8">
     <g id="line2d_15">
      <path clip-path="url(#pb23c9894f0)" d="M 627.670169 378.236801 
L 627.670169 53.398137 
" style="fill:none;stroke:#b0b0b0;stroke-linecap:square;stroke-width:0.8;"/>
     </g>
     <g id="line2d_16">
      <g>
       <use style="stroke:#000000;stroke-width:0.8;" x="627.670169" xlink:href="#m844d2b0b9a" y="378.236801"/>
      </g>
     </g>
     <g id="text_8">
      <!-- 2021-05-21 -->
      <g transform="translate(598.612356 399.335239)scale(0.1 -0.1)">
       <use xlink:href="#DejaVuSans-32"/>
       <use x="63.623047" xlink:href="#DejaVuSans-30"/>
       <use x="127.246094" xlink:href="#DejaVuSans-32"/>
       <use x="190.869141" xlink:href="#DejaVuSans-31"/>
       <use x="254.492188" xlink:href="#DejaVuSans-2d"/>
       <use x="290.576172" xlink:href="#DejaVuSans-30"/>
       <use x="354.199219" xlink:href="#DejaVuSans-35"/>
       <use x="417.822266" xlink:href="#DejaVuSans-2d"/>
       <use x="453.90625" xlink:href="#DejaVuSans-32"/>
       <use x="517.529297" xlink:href="#DejaVuSans-31"/>
      </g>
     </g>
    </g>
    <g id="text_9">
     <!-- timestamp -->
     <g transform="translate(567.030469 434.561038)scale(0.1 -0.1)">
      <defs>
       <path d="M 1172 4494 
L 1172 3500 
L 2356 3500 
L 2356 3053 
L 1172 3053 
L 1172 1153 
Q 1172 725 1289 603 
Q 1406 481 1766 481 
L 2356 481 
L 2356 0 
L 1766 0 
Q 1100 0 847 248 
Q 594 497 594 1153 
L 594 3053 
L 172 3053 
L 172 3500 
L 594 3500 
L 594 4494 
L 1172 4494 
z
" id="DejaVuSans-74" transform="scale(0.015625)"/>
       <path d="M 603 3500 
L 1178 3500 
L 1178 0 
L 603 0 
L 603 3500 
z
M 603 4863 
L 1178 4863 
L 1178 4134 
L 603 4134 
L 603 4863 
z
" id="DejaVuSans-69" transform="scale(0.015625)"/>
       <path d="M 3328 2828 
Q 3544 3216 3844 3400 
Q 4144 3584 4550 3584 
Q 5097 3584 5394 3201 
Q 5691 2819 5691 2113 
L 5691 0 
L 5113 0 
L 5113 2094 
Q 5113 2597 4934 2840 
Q 4756 3084 4391 3084 
Q 3944 3084 3684 2787 
Q 3425 2491 3425 1978 
L 3425 0 
L 2847 0 
L 2847 2094 
Q 2847 2600 2669 2842 
Q 2491 3084 2119 3084 
Q 1678 3084 1418 2786 
Q 1159 2488 1159 1978 
L 1159 0 
L 581 0 
L 581 3500 
L 1159 3500 
L 1159 2956 
Q 1356 3278 1631 3431 
Q 1906 3584 2284 3584 
Q 2666 3584 2933 3390 
Q 3200 3197 3328 2828 
z
" id="DejaVuSans-6d" transform="scale(0.015625)"/>
       <path d="M 3597 1894 
L 3597 1613 
L 953 1613 
Q 991 1019 1311 708 
Q 1631 397 2203 397 
Q 2534 397 2845 478 
Q 3156 559 3463 722 
L 3463 178 
Q 3153 47 2828 -22 
Q 2503 -91 2169 -91 
Q 1331 -91 842 396 
Q 353 884 353 1716 
Q 353 2575 817 3079 
Q 1281 3584 2069 3584 
Q 2775 3584 3186 3129 
Q 3597 2675 3597 1894 
z
M 3022 2063 
Q 3016 2534 2758 2815 
Q 2500 3097 2075 3097 
Q 1594 3097 1305 2825 
Q 1016 2553 972 2059 
L 3022 2063 
z
" id="DejaVuSans-65" transform="scale(0.015625)"/>
       <path d="M 2834 3397 
L 2834 2853 
Q 2591 2978 2328 3040 
Q 2066 3103 1784 3103 
Q 1356 3103 1142 2972 
Q 928 2841 928 2578 
Q 928 2378 1081 2264 
Q 1234 2150 1697 2047 
L 1894 2003 
Q 2506 1872 2764 1633 
Q 3022 1394 3022 966 
Q 3022 478 2636 193 
Q 2250 -91 1575 -91 
Q 1294 -91 989 -36 
Q 684 19 347 128 
L 347 722 
Q 666 556 975 473 
Q 1284 391 1588 391 
Q 1994 391 2212 530 
Q 2431 669 2431 922 
Q 2431 1156 2273 1281 
Q 2116 1406 1581 1522 
L 1381 1569 
Q 847 1681 609 1914 
Q 372 2147 372 2553 
Q 372 3047 722 3315 
Q 1072 3584 1716 3584 
Q 2034 3584 2315 3537 
Q 2597 3491 2834 3397 
z
" id="DejaVuSans-73" transform="scale(0.015625)"/>
       <path d="M 2194 1759 
Q 1497 1759 1228 1600 
Q 959 1441 959 1056 
Q 959 750 1161 570 
Q 1363 391 1709 391 
Q 2188 391 2477 730 
Q 2766 1069 2766 1631 
L 2766 1759 
L 2194 1759 
z
M 3341 1997 
L 3341 0 
L 2766 0 
L 2766 531 
Q 2569 213 2275 61 
Q 1981 -91 1556 -91 
Q 1019 -91 701 211 
Q 384 513 384 1019 
Q 384 1609 779 1909 
Q 1175 2209 1959 2209 
L 2766 2209 
L 2766 2266 
Q 2766 2663 2505 2880 
Q 2244 3097 1772 3097 
Q 1472 3097 1187 3025 
Q 903 2953 641 2809 
L 641 3341 
Q 956 3463 1253 3523 
Q 1550 3584 1831 3584 
Q 2591 3584 2966 3190 
Q 3341 2797 3341 1997 
z
" id="DejaVuSans-61" transform="scale(0.015625)"/>
       <path d="M 1159 525 
L 1159 -1331 
L 581 -1331 
L 581 3500 
L 1159 3500 
L 1159 2969 
Q 1341 3281 1617 3432 
Q 1894 3584 2278 3584 
Q 2916 3584 3314 3078 
Q 3713 2572 3713 1747 
Q 3713 922 3314 415 
Q 2916 -91 2278 -91 
Q 1894 -91 1617 61 
Q 1341 213 1159 525 
z
M 3116 1747 
Q 3116 2381 2855 2742 
Q 2594 3103 2138 3103 
Q 1681 3103 1420 2742 
Q 1159 2381 1159 1747 
Q 1159 1113 1420 752 
Q 1681 391 2138 391 
Q 2594 391 2855 752 
Q 3116 1113 3116 1747 
z
" id="DejaVuSans-70" transform="scale(0.015625)"/>
      </defs>
      <use xlink:href="#DejaVuSans-74"/>
      <use x="39.208984" xlink:href="#DejaVuSans-69"/>
      <use x="66.992188" xlink:href="#DejaVuSans-6d"/>
      <use x="164.404297" xlink:href="#DejaVuSans-65"/>
      <use x="225.927734" xlink:href="#DejaVuSans-73"/>
      <use x="278.027344" xlink:href="#DejaVuSans-74"/>
      <use x="317.236328" xlink:href="#DejaVuSans-61"/>
      <use x="378.515625" xlink:href="#DejaVuSans-6d"/>
      <use x="475.927734" xlink:href="#DejaVuSans-70"/>
     </g>
    </g>
   </g>
   <g id="matplotlib.axis_2">
    <g id="ytick_1">
     <g id="line2d_17">
      <path clip-path="url(#pb23c9894f0)" d="M 108 363.471407 
L 648 363.471407 
" style="fill:none;stroke:#b0b0b0;stroke-linecap:square;stroke-width:0.8;"/>
     </g>
     <g id="line2d_18">
      <defs>
       <path d="M 0 0 
L -3.5 0 
" id="m297c80c4d2" style="stroke:#000000;stroke-width:0.8;"/>
      </defs>
      <g>
       <use style="stroke:#000000;stroke-width:0.8;" x="108" xlink:href="#m297c80c4d2" y="363.471407"/>
      </g>
     </g>
     <g id="text_10">
      <!-- 0.0 -->
      <g transform="translate(78.596875 367.270626)scale(0.1 -0.1)">
       <defs>
        <path d="M 684 794 
L 1344 794 
L 1344 0 
L 684 0 
L 684 794 
z
" id="DejaVuSans-2e" transform="scale(0.015625)"/>
       </defs>
       <use xlink:href="#DejaVuSans-30"/>
       <use x="63.623047" xlink:href="#DejaVuSans-2e"/>
       <use x="95.410156" xlink:href="#DejaVuSans-30"/>
      </g>
     </g>
    </g>
    <g id="ytick_2">
     <g id="line2d_19">
      <path clip-path="url(#pb23c9894f0)" d="M 108 314.253428 
L 648 314.253428 
" style="fill:none;stroke:#b0b0b0;stroke-linecap:square;stroke-width:0.8;"/>
     </g>
     <g id="line2d_20">
      <g>
       <use style="stroke:#000000;stroke-width:0.8;" x="108" xlink:href="#m297c80c4d2" y="314.253428"/>
      </g>
     </g>
     <g id="text_11">
      <!-- 0.2 -->
      <g transform="translate(78.596875 318.052647)scale(0.1 -0.1)">
       <use xlink:href="#DejaVuSans-30"/>
       <use x="63.623047" xlink:href="#DejaVuSans-2e"/>
       <use x="95.410156" xlink:href="#DejaVuSans-32"/>
      </g>
     </g>
    </g>
    <g id="ytick_3">
     <g id="line2d_21">
      <path clip-path="url(#pb23c9894f0)" d="M 108 265.035448 
L 648 265.035448 
" style="fill:none;stroke:#b0b0b0;stroke-linecap:square;stroke-width:0.8;"/>
     </g>
     <g id="line2d_22">
      <g>
       <use style="stroke:#000000;stroke-width:0.8;" x="108" xlink:href="#m297c80c4d2" y="265.035448"/>
      </g>
     </g>
     <g id="text_12">
      <!-- 0.4 -->
      <g transform="translate(78.596875 268.834667)scale(0.1 -0.1)">
       <use xlink:href="#DejaVuSans-30"/>
       <use x="63.623047" xlink:href="#DejaVuSans-2e"/>
       <use x="95.410156" xlink:href="#DejaVuSans-34"/>
      </g>
     </g>
    </g>
    <g id="ytick_4">
     <g id="line2d_23">
      <path clip-path="url(#pb23c9894f0)" d="M 108 215.817469 
L 648 215.817469 
" style="fill:none;stroke:#b0b0b0;stroke-linecap:square;stroke-width:0.8;"/>
     </g>
     <g id="line2d_24">
      <g>
       <use style="stroke:#000000;stroke-width:0.8;" x="108" xlink:href="#m297c80c4d2" y="215.817469"/>
      </g>
     </g>
     <g id="text_13">
      <!-- 0.6 -->
      <g transform="translate(78.596875 219.616688)scale(0.1 -0.1)">
       <use xlink:href="#DejaVuSans-30"/>
       <use x="63.623047" xlink:href="#DejaVuSans-2e"/>
       <use x="95.410156" xlink:href="#DejaVuSans-36"/>
      </g>
     </g>
    </g>
    <g id="ytick_5">
     <g id="line2d_25">
      <path clip-path="url(#pb23c9894f0)" d="M 108 166.599489 
L 648 166.599489 
" style="fill:none;stroke:#b0b0b0;stroke-linecap:square;stroke-width:0.8;"/>
     </g>
     <g id="line2d_26">
      <g>
       <use style="stroke:#000000;stroke-width:0.8;" x="108" xlink:href="#m297c80c4d2" y="166.599489"/>
      </g>
     </g>
     <g id="text_14">
      <!-- 0.8 -->
      <g transform="translate(78.596875 170.398708)scale(0.1 -0.1)">
       <use xlink:href="#DejaVuSans-30"/>
       <use x="63.623047" xlink:href="#DejaVuSans-2e"/>
       <use x="95.410156" xlink:href="#DejaVuSans-38"/>
      </g>
     </g>
    </g>
    <g id="ytick_6">
     <g id="line2d_27">
      <path clip-path="url(#pb23c9894f0)" d="M 108 117.38151 
L 648 117.38151 
" style="fill:none;stroke:#b0b0b0;stroke-linecap:square;stroke-width:0.8;"/>
     </g>
     <g id="line2d_28">
      <g>
       <use style="stroke:#000000;stroke-width:0.8;" x="108" xlink:href="#m297c80c4d2" y="117.38151"/>
      </g>
     </g>
     <g id="text_15">
      <!-- 1.0 -->
      <g transform="translate(78.596875 121.180729)scale(0.1 -0.1)">
       <use xlink:href="#DejaVuSans-31"/>
       <use x="63.623047" xlink:href="#DejaVuSans-2e"/>
       <use x="95.410156" xlink:href="#DejaVuSans-30"/>
      </g>
     </g>
    </g>
    <g id="ytick_7">
     <g id="line2d_29">
      <path clip-path="url(#pb23c9894f0)" d="M 108 68.16353 
L 648 68.16353 
" style="fill:none;stroke:#b0b0b0;stroke-linecap:square;stroke-width:0.8;"/>
     </g>
     <g id="line2d_30">
      <g>
       <use style="stroke:#000000;stroke-width:0.8;" x="108" xlink:href="#m297c80c4d2" y="68.16353"/>
      </g>
     </g>
     <g id="text_16">
      <!-- 1.2 -->
      <g transform="translate(78.596875 71.962749)scale(0.1 -0.1)">
       <use xlink:href="#DejaVuSans-31"/>
       <use x="63.623047" xlink:href="#DejaVuSans-2e"/>
       <use x="95.410156" xlink:href="#DejaVuSans-32"/>
      </g>
     </g>
    </g>
    <g id="text_17">
     <!-- Power  -->
     <g transform="translate(10.296875 82.349663)scale(0.1 -0.1)">
      <defs>
       <path d="M 1259 4147 
L 1259 2394 
L 2053 2394 
Q 2494 2394 2734 2622 
Q 2975 2850 2975 3272 
Q 2975 3691 2734 3919 
Q 2494 4147 2053 4147 
L 1259 4147 
z
M 628 4666 
L 2053 4666 
Q 2838 4666 3239 4311 
Q 3641 3956 3641 3272 
Q 3641 2581 3239 2228 
Q 2838 1875 2053 1875 
L 1259 1875 
L 1259 0 
L 628 0 
L 628 4666 
z
" id="DejaVuSans-50" transform="scale(0.015625)"/>
       <path d="M 1959 3097 
Q 1497 3097 1228 2736 
Q 959 2375 959 1747 
Q 959 1119 1226 758 
Q 1494 397 1959 397 
Q 2419 397 2687 759 
Q 2956 1122 2956 1747 
Q 2956 2369 2687 2733 
Q 2419 3097 1959 3097 
z
M 1959 3584 
Q 2709 3584 3137 3096 
Q 3566 2609 3566 1747 
Q 3566 888 3137 398 
Q 2709 -91 1959 -91 
Q 1206 -91 779 398 
Q 353 888 353 1747 
Q 353 2609 779 3096 
Q 1206 3584 1959 3584 
z
" id="DejaVuSans-6f" transform="scale(0.015625)"/>
       <path d="M 269 3500 
L 844 3500 
L 1563 769 
L 2278 3500 
L 2956 3500 
L 3675 769 
L 4391 3500 
L 4966 3500 
L 4050 0 
L 3372 0 
L 2619 2869 
L 1863 0 
L 1184 0 
L 269 3500 
z
" id="DejaVuSans-77" transform="scale(0.015625)"/>
       <path d="M 2631 2963 
Q 2534 3019 2420 3045 
Q 2306 3072 2169 3072 
Q 1681 3072 1420 2755 
Q 1159 2438 1159 1844 
L 1159 0 
L 581 0 
L 581 3500 
L 1159 3500 
L 1159 2956 
Q 1341 3275 1631 3429 
Q 1922 3584 2338 3584 
Q 2397 3584 2469 3576 
Q 2541 3569 2628 3553 
L 2631 2963 
z
" id="DejaVuSans-72" transform="scale(0.015625)"/>
       <path id="DejaVuSans-20" transform="scale(0.015625)"/>
      </defs>
      <use xlink:href="#DejaVuSans-50"/>
      <use x="56.677734" xlink:href="#DejaVuSans-6f"/>
      <use x="117.859375" xlink:href="#DejaVuSans-77"/>
      <use x="199.646484" xlink:href="#DejaVuSans-65"/>
      <use x="261.169922" xlink:href="#DejaVuSans-72"/>
      <use x="302.283203" xlink:href="#DejaVuSans-20"/>
     </g>
     <!--  in W -->
     <g transform="translate(14.320312 93.547476)scale(0.1 -0.1)">
      <defs>
       <path d="M 3513 2113 
L 3513 0 
L 2938 0 
L 2938 2094 
Q 2938 2591 2744 2837 
Q 2550 3084 2163 3084 
Q 1697 3084 1428 2787 
Q 1159 2491 1159 1978 
L 1159 0 
L 581 0 
L 581 3500 
L 1159 3500 
L 1159 2956 
Q 1366 3272 1645 3428 
Q 1925 3584 2291 3584 
Q 2894 3584 3203 3211 
Q 3513 2838 3513 2113 
z
" id="DejaVuSans-6e" transform="scale(0.015625)"/>
       <path d="M 213 4666 
L 850 4666 
L 1831 722 
L 2809 4666 
L 3519 4666 
L 4500 722 
L 5478 4666 
L 6119 4666 
L 4947 0 
L 4153 0 
L 3169 4050 
L 2175 0 
L 1381 0 
L 213 4666 
z
" id="DejaVuSans-57" transform="scale(0.015625)"/>
      </defs>
      <use xlink:href="#DejaVuSans-20"/>
      <use x="31.787109" xlink:href="#DejaVuSans-69"/>
      <use x="59.570312" xlink:href="#DejaVuSans-6e"/>
      <use x="122.949219" xlink:href="#DejaVuSans-20"/>
      <use x="154.736328" xlink:href="#DejaVuSans-57"/>
     </g>
    </g>
   </g>
   <g id="line2d_31">
    <path clip-path="url(#pb23c9894f0)" d="M 132.545455 154.294995 
L 135.358663 287.183539 
L 138.171872 257.652751 
L 140.98508 269.957246 
L 143.798289 247.809156 
L 146.611498 235.504661 
L 149.424706 250.270054 
L 152.237915 252.730953 
L 155.051123 203.512974 
L 157.864332 247.809156 
L 160.677541 265.035448 
L 163.490749 105.077015 
L 166.303958 282.261741 
L 169.117166 326.557923 
L 171.930375 301.948933 
L 174.743584 324.097024 
L 177.556792 329.018822 
L 180.370001 326.557923 
L 183.183209 260.11365 
L 185.996418 240.426459 
L 188.809627 252.730953 
L 191.622835 257.652751 
L 194.436044 245.348257 
L 197.249252 242.887358 
L 200.062461 269.957246 
L 202.87567 292.105337 
L 205.688878 289.644438 
L 208.502087 282.261741 
L 211.315295 272.418145 
L 214.128504 304.409832 
L 216.941713 329.018822 
L 219.754921 306.870731 
L 222.56813 289.644438 
L 225.381338 304.409832 
L 228.194547 272.418145 
L 231.007756 314.253428 
L 233.820964 326.557923 
L 236.634173 326.557923 
L 239.447381 304.409832 
L 242.26059 326.557923 
L 245.073799 333.94062 
L 247.887007 338.862418 
L 250.700216 324.097024 
L 253.513424 267.496347 
L 256.326633 80.468025 
L 259.139842 287.183539 
L 261.95305 274.879044 
L 264.766259 255.191852 
L 267.579467 292.105337 
L 270.392676 316.714327 
L 273.205885 294.566236 
L 276.019093 316.714327 
L 278.832302 299.488034 
L 281.64551 233.043762 
L 284.458719 247.809156 
L 287.271928 272.418145 
L 290.085136 289.644438 
L 292.898345 260.11365 
L 295.711553 284.72264 
L 298.524762 299.488034 
L 301.337971 316.714327 
L 304.151179 316.714327 
L 306.964388 329.018822 
L 309.777597 306.870731 
L 312.590805 331.479721 
L 315.404014 311.792529 
L 318.217222 319.175226 
L 321.030431 309.33163 
L 323.84364 178.903984 
L 326.656848 203.512974 
L 329.470057 309.33163 
L 332.283265 277.339943 
L 335.096474 230.582863 
L 337.909683 311.792529 
L 340.722891 279.800842 
L 343.5361 287.183539 
L 346.349308 284.72264 
L 349.162517 252.730953 
L 351.975726 304.409832 
L 354.788934 316.714327 
L 360.415351 316.714327 
L 363.22856 314.253428 
L 366.041769 329.018822 
L 368.854977 329.018822 
L 371.668186 309.33163 
L 374.481394 316.714327 
L 377.294603 319.175226 
L 380.107812 292.105337 
L 382.92102 208.434772 
L 385.734229 269.957246 
L 388.547437 247.809156 
L 391.360646 255.191852 
L 394.173855 218.278368 
L 396.987063 245.348257 
L 399.800272 267.496347 
L 402.61348 198.591176 
L 405.426689 188.74758 
L 408.239898 237.96556 
L 411.053106 159.216792 
L 413.866315 68.16353 
L 416.679523 186.286681 
L 419.492732 267.496347 
L 422.305941 321.636125 
L 425.119149 329.018822 
L 427.932358 304.409832 
L 430.745566 326.557923 
L 433.558775 329.018822 
L 436.371984 304.409832 
L 441.998401 329.018822 
L 444.811609 331.479721 
L 447.624818 198.591176 
L 450.438027 181.364883 
L 453.251235 299.488034 
L 456.064444 252.730953 
L 458.877652 252.730953 
L 461.690861 269.957246 
L 464.50407 245.348257 
L 467.317278 262.574549 
L 470.130487 265.035448 
L 472.943695 265.035448 
L 475.756904 230.582863 
L 478.570113 213.35657 
L 481.383321 176.443085 
L 484.19653 186.286681 
L 487.009738 235.504661 
L 489.822947 304.409832 
L 489.822947 304.409832 
" style="fill:none;stroke:#1f77b4;stroke-linecap:square;stroke-width:1.5;"/>
   </g>
   <g id="line2d_32">
    <path clip-path="url(#pb23c9894f0)" d="M 151.075831 352.007939 
L 151.31062 348.951336 
L 151.545153 350.336486 
L 151.778958 347.744505 
L 152.013484 351.126878 
L 152.257257 347.476507 
L 152.717181 353.472689 
L 152.951042 353.007451 
L 153.419786 346.057651 
L 153.663569 354.534064 
L 153.889505 350.281195 
L 154.123399 349.917986 
L 154.357977 354.544564 
L 154.592366 354.922574 
L 154.826984 354.319378 
L 155.070721 357.455987 
L 155.295533 357.194579 
L 155.530268 358.160498 
L 155.764806 356.631369 
L 155.998718 357.956668 
L 156.233157 358.014588 
L 156.702381 359.015269 
L 157.170977 359.531318 
L 158.108494 361.69292 
L 158.342865 361.914715 
L 158.812218 362.584415 
L 159.290167 362.558028 
L 159.515319 362.82854 
L 159.750165 362.825895 
L 160.453487 363.132305 
L 160.696888 363.222373 
L 160.922045 363.436184 
L 161.859754 363.471407 
L 194.455364 363.381072 
L 194.68092 363.342042 
L 194.914842 363.098177 
L 195.149728 363.133279 
L 195.861681 362.875003 
L 196.555989 362.924597 
L 197.025216 362.894233 
L 197.728154 362.668219 
L 197.962711 362.693292 
L 198.197291 362.591621 
L 198.675038 362.088684 
L 198.900505 362.062232 
L 199.135122 361.86181 
L 199.368926 361.848308 
L 200.081864 360.884303 
L 200.307147 361.017442 
L 200.541883 360.40691 
L 201.01016 360.035326 
L 201.244539 360.399055 
L 201.713718 359.892483 
L 201.947648 359.551701 
L 202.416708 358.062137 
L 202.651497 356.385913 
L 202.89502 356.677361 
L 203.120206 357.165367 
L 203.354852 356.633592 
L 203.823633 354.343769 
L 204.058285 354.492779 
L 204.301827 354.053961 
L 204.761353 353.851202 
L 204.995967 353.741839 
L 205.230388 353.434861 
L 205.464915 353.398606 
L 205.708889 353.659187 
L 205.933733 353.445766 
L 206.167787 353.434341 
L 206.40226 355.092876 
L 206.871373 355.151623 
L 207.114902 354.727021 
L 207.340046 355.585086 
L 207.574739 355.834323 
L 207.808514 356.831434 
L 208.042869 357.212706 
L 208.52119 356.226452 
L 208.981116 356.049432 
L 209.215846 356.397062 
L 209.449817 355.940798 
L 209.684436 355.950324 
L 210.621881 355.084908 
L 210.856667 354.150423 
L 211.091364 353.965045 
L 211.335184 353.502371 
L 211.559926 352.342262 
L 211.794735 352.453167 
L 212.028709 352.207549 
L 212.263562 352.512304 
L 212.497146 353.204643 
L 212.74166 353.434 
L 212.966117 354.02634 
L 213.201077 354.040215 
L 213.435556 353.938625 
L 213.904109 353.277347 
L 214.147869 353.381242 
L 214.372781 353.899758 
L 214.607479 353.396918 
L 214.842068 353.288642 
L 215.076557 353.895393 
L 215.554752 352.746042 
L 215.779797 352.92626 
L 216.483456 350.910114 
L 217.186071 351.299224 
L 217.421068 353.428807 
L 217.655444 353.471326 
L 217.88964 355.088397 
L 218.12412 355.632701 
L 218.367834 355.885459 
L 218.5931 355.894937 
L 218.827004 356.486968 
L 219.296363 355.617754 
L 219.530769 355.691642 
L 219.773864 355.897127 
L 220.234546 356.028886 
L 220.468201 356.661846 
L 220.702876 356.955744 
L 220.937262 357.916892 
L 221.180988 357.813501 
L 221.406439 357.894854 
L 221.64034 358.097678 
L 222.344244 359.674534 
L 222.587448 359.631691 
L 222.813016 359.786689 
L 223.28209 360.329224 
L 223.516237 360.097433 
L 223.750886 360.410026 
L 223.994053 360.315803 
L 224.454009 360.476027 
L 224.922491 360.933638 
L 226.329215 362.336022 
L 226.5639 362.311014 
L 227.266897 362.67768 
L 227.735525 362.834334 
L 228.908088 363.471407 
L 261.025627 363.367732 
L 261.494512 362.954977 
L 262.198111 362.759829 
L 263.13535 361.532014 
L 263.603924 361.446442 
L 263.838759 361.67403 
L 264.073383 361.214326 
L 264.307889 361.230019 
L 264.542381 360.786429 
L 264.785644 360.834514 
L 265.01107 360.512298 
L 265.948241 358.021907 
L 266.191906 358.130021 
L 266.41742 356.431661 
L 266.652048 357.001281 
L 266.88586 356.718419 
L 267.35525 357.263274 
L 267.823869 355.275852 
L 268.058487 355.921519 
L 268.293333 354.403977 
L 268.52746 354.355113 
L 268.761877 351.277348 
L 269.005503 353.940427 
L 269.230604 354.356866 
L 269.465185 353.380154 
L 269.699765 353.453783 
L 270.168172 354.83533 
L 270.411766 354.423484 
L 270.636836 354.913941 
L 270.871658 355.040328 
L 271.10623 353.805373 
L 271.340975 354.757693 
L 271.574734 353.375399 
L 271.818759 345.290806 
L 272.043395 347.356644 
L 272.278153 351.596384 
L 272.512803 351.015615 
L 272.747044 349.662809 
L 272.981428 352.935786 
L 273.225336 347.297377 
L 273.450294 350.892701 
L 273.685031 344.195303 
L 273.919565 348.314254 
L 274.154177 349.187541 
L 274.387897 345.946632 
L 274.631325 349.49486 
L 274.857566 349.543319 
L 275.091616 345.117989 
L 275.326393 337.772133 
L 275.560009 345.754227 
L 275.794759 342.720604 
L 276.038338 346.965505 
L 276.263651 341.640842 
L 276.498305 340.342465 
L 276.967054 343.247932 
L 277.201576 348.613459 
L 277.445278 343.35121 
L 277.670035 349.98152 
L 277.904733 343.679464 
L 278.139374 340.907606 
L 278.373217 343.826591 
L 278.607759 341.310284 
L 278.85141 345.613104 
L 279.077126 340.249265 
L 279.311117 340.896782 
L 279.545625 341.943081 
L 279.780287 341.287515 
L 280.014827 341.673785 
L 280.258563 347.365732 
L 280.483603 340.144316 
L 280.718321 343.708042 
L 280.952089 338.596297 
L 281.187025 344.659015 
L 281.42081 340.237402 
L 281.664658 342.523557 
L 281.890332 341.313659 
L 282.124726 347.284508 
L 282.358613 346.439669 
L 282.593666 341.140014 
L 282.828241 338.492029 
L 283.071112 346.753334 
L 283.297115 341.899978 
L 283.530922 347.748172 
L 283.76567 347.294424 
L 284.000372 349.418927 
L 284.234451 342.705122 
L 284.478461 348.738402 
L 284.703907 340.02997 
L 284.937719 342.837335 
L 285.172506 342.218073 
L 285.406539 343.079302 
L 285.640981 350.713262 
L 285.884817 344.067746 
L 286.344648 345.146714 
L 286.813369 346.124107 
L 287.751128 347.583307 
L 288.454558 349.305701 
L 289.157327 351.783839 
L 290.32946 354.9852 
L 290.564378 355.471519 
L 290.798428 356.779843 
L 291.033201 358.887274 
L 291.510669 360.693294 
L 293.142635 362.184675 
L 294.081139 362.538294 
L 295.955862 363.080894 
L 296.893836 363.471407 
L 297.137838 363.40298 
L 297.597603 363.471407 
L 328.308317 363.471407 
L 329.245689 362.572439 
L 329.48988 362.114714 
L 329.714423 362.031397 
L 329.949059 361.673381 
L 330.183996 361.927405 
L 330.417963 361.959018 
L 330.652625 361.834432 
L 331.12125 362.102429 
L 331.355815 361.882615 
L 331.590411 361.885422 
L 331.824163 361.314212 
L 332.527771 360.655968 
L 332.762479 360.955416 
L 332.996629 360.733411 
L 333.231312 361.990469 
L 333.465811 360.160237 
L 333.7094 359.262834 
L 333.934201 358.885619 
L 334.169032 358.804606 
L 334.403045 358.298765 
L 334.637712 357.468532 
L 334.871906 357.485344 
L 335.115882 357.192388 
L 335.3411 357.302303 
L 335.575791 357.617899 
L 335.810481 357.647434 
L 336.044611 358.185457 
L 336.522256 356.154398 
L 336.748155 355.604852 
L 336.982084 355.525187 
L 337.21706 355.713664 
L 337.4507 356.556231 
L 337.929175 357.179713 
L 338.154585 357.177133 
L 338.388956 357.060077 
L 338.622827 356.525218 
L 338.857641 356.577247 
L 339.092036 356.390863 
L 339.335822 357.119457 
L 339.560496 357.39922 
L 339.795378 356.603407 
L 340.030123 355.022428 
L 340.264317 354.594142 
L 340.49891 354.728141 
L 340.742861 353.946788 
L 341.201984 354.612091 
L 341.905085 353.982166 
L 342.149146 353.294598 
L 342.374474 353.628239 
L 342.60837 353.586305 
L 343.077528 352.617951 
L 343.312008 351.387605 
L 343.555972 348.131554 
L 343.780342 338.43406 
L 344.250002 339.309393 
L 344.483736 343.119711 
L 344.718379 341.333831 
L 345.187572 346.258819 
L 345.421358 348.153397 
L 345.656294 343.462733 
L 345.890341 342.99308 
L 346.124893 347.601873 
L 346.593344 342.683084 
L 346.82801 346.116203 
L 347.062507 343.822615 
L 347.297226 347.060831 
L 347.531716 347.257893 
L 347.775517 347.653495 
L 348.000463 346.934151 
L 348.235103 347.286797 
L 348.469077 348.702553 
L 348.703708 349.210797 
L 348.938041 350.151303 
L 349.181935 349.241371 
L 349.406718 349.060602 
L 349.64105 350.77889 
L 349.875626 349.31143 
L 350.110357 350.485869 
L 350.344844 350.904661 
L 350.588376 348.850882 
L 351.047792 349.334831 
L 351.282657 348.664887 
L 351.517117 347.154973 
L 351.751859 344.083521 
L 351.995198 349.515957 
L 352.454635 347.368507 
L 352.689275 343.325082 
L 353.401264 349.048577 
L 353.626457 348.618457 
L 353.861121 340.383361 
L 354.095732 347.146047 
L 354.330127 347.042606 
L 354.564761 345.310248 
L 354.808594 352.8038 
L 355.033286 345.845399 
L 355.268023 352.247276 
L 355.502728 352.193446 
L 355.736621 352.329522 
L 355.971324 352.786208 
L 356.215008 348.880434 
L 356.440184 353.53697 
L 356.675257 353.646691 
L 356.909216 355.424976 
L 357.377689 349.79189 
L 357.621752 357.504121 
L 357.846849 352.297098 
L 358.081043 353.184406 
L 358.549958 359.307479 
L 358.784623 359.093555 
L 359.028313 360.580165 
L 359.253388 360.303129 
L 359.488164 360.996945 
L 360.894588 362.090242 
L 363.24815 362.927972 
L 365.114197 363.471407 
L 395.599416 363.409666 
L 396.059274 363.177323 
L 396.762916 362.810202 
L 397.466157 362.823039 
L 398.169562 362.636136 
L 398.638927 362.461874 
L 399.341488 361.837207 
L 399.576137 361.550547 
L 399.820128 361.506179 
L 400.748304 360.811697 
L 401.226152 360.611908 
L 401.452172 360.428591 
L 401.686146 360.450775 
L 401.920084 360.275589 
L 402.154796 360.252447 
L 402.632715 359.717605 
L 403.092185 358.314604 
L 403.327015 358.122036 
L 403.561206 357.700599 
L 403.795785 357.555305 
L 404.264667 356.673255 
L 404.73371 355.882408 
L 405.20295 356.790408 
L 405.445902 357.32129 
L 405.670993 356.6086 
L 405.905768 354.457872 
L 406.140377 350.053818 
L 406.374434 350.000118 
L 406.608979 351.884034 
L 407.077798 353.485915 
L 407.546617 354.269914 
L 408.016004 356.525721 
L 408.25897 356.056426 
L 408.484094 355.953375 
L 408.718423 356.723904 
L 409.422087 357.581709 
L 409.665708 357.85498 
L 409.891177 357.580687 
L 410.594419 355.929 
L 410.829002 356.127945 
L 411.072814 355.801801 
L 411.297621 355.740652 
L 411.531852 356.051168 
L 411.76658 355.830363 
L 412.235181 354.545928 
L 412.478789 354.470611 
L 412.704571 354.215516 
L 412.938966 354.329261 
L 413.173079 353.93843 
L 413.407696 353.772803 
L 413.642311 353.340216 
L 413.885672 351.632006 
L 414.110757 351.529133 
L 414.345638 350.539666 
L 414.579703 350.735836 
L 414.814408 352.480577 
L 415.292303 351.251805 
L 415.517536 350.909806 
L 415.75223 348.335043 
L 415.986821 348.6539 
L 416.220383 346.990075 
L 416.455105 348.296646 
L 416.69877 347.369059 
L 416.924645 347.116073 
L 417.15845 342.628248 
L 417.392818 346.047151 
L 417.627763 342.377842 
L 417.861701 348.963491 
L 418.105785 342.985339 
L 418.331019 343.280357 
L 419.73707 343.72948 
L 419.97218 344.08159 
L 420.440792 344.099035 
L 421.14373 344.849911 
L 421.378446 345.073815 
L 421.613062 345.659307 
L 421.846978 345.838566 
L 422.081492 346.498449 
L 422.32542 346.649082 
L 422.785074 347.731619 
L 423.019745 348.192995 
L 423.253562 349.010489 
L 423.488342 349.379119 
L 424.191773 352.18762 
L 424.660223 353.463553 
L 424.894941 353.834211 
L 425.138789 354.57978 
L 425.363596 354.768956 
L 425.598212 355.702824 
L 426.301559 360.135002 
L 426.770657 360.909798 
L 427.473531 361.600823 
L 428.176867 362.084627 
L 430.052638 362.805107 
L 430.990315 363.097252 
L 431.458876 363.218544 
L 432.396656 363.471407 
L 462.884041 363.391344 
L 463.117196 363.015119 
L 463.342619 362.910689 
L 463.81105 362.17153 
L 464.045517 361.94081 
L 464.523959 362.601131 
L 464.748752 362.50006 
L 464.98337 362.628589 
L 465.217707 362.347999 
L 465.686224 360.359945 
L 466.154996 359.717524 
L 466.389803 359.734905 
L 466.62427 359.543165 
L 467.336985 357.569181 
L 467.561889 358.278625 
L 467.796507 357.732066 
L 468.264933 356.034859 
L 468.499621 355.447923 
L 468.743124 355.178936 
L 472.01609 347.78506 
L 472.485124 347.022288 
L 472.963645 346.567469 
L 473.188016 346.593629 
L 474.369425 345.48735 
L 474.829309 345.459599 
L 475.297803 345.355834 
L 475.77672 345.334039 
L 476.001777 345.168022 
L 476.704664 345.24488 
L 477.182582 345.273004 
L 478.346081 345.284932 
L 479.049171 345.441666 
L 479.283586 345.49449 
L 479.752051 345.266853 
L 479.995762 344.746097 
L 480.220994 344.915377 
L 480.690591 344.767584 
L 481.402836 344.819028 
L 482.096777 345.181167 
L 482.565468 345.048336 
L 482.809199 344.860119 
L 483.034183 345.194101 
L 483.503623 345.071949 
L 483.738457 344.941147 
L 484.675362 345.009356 
L 485.144482 344.893484 
L 485.622688 344.753725 
L 486.0824 345.009761 
L 486.550831 345.237593 
L 486.785269 345.164857 
L 487.253992 345.333406 
L 488.436136 345.542397 
L 489.364487 345.951857 
L 489.59837 346.272889 
L 490.770631 349.271848 
L 491.005586 349.703916 
L 492.177339 353.240265 
L 492.411968 353.782572 
L 492.655688 354.861312 
L 492.880587 355.112951 
L 493.349756 357.266698 
L 493.818277 360.393197 
L 494.287499 361.204686 
L 494.521993 361.43268 
L 494.755797 361.481511 
L 495.225191 361.882501 
L 496.631687 362.503468 
L 497.335265 362.720053 
L 498.282429 363.024159 
L 498.97558 363.134821 
L 499.913871 363.471407 
L 530.859011 363.471407 
L 531.094053 363.111127 
L 533.672308 362.130505 
L 534.375683 361.423981 
L 534.610158 360.054184 
L 534.853904 359.686154 
L 535.548014 357.122703 
L 536.954689 353.772235 
L 537.666775 352.348136 
L 538.126572 351.478452 
L 538.361061 351.109091 
L 538.829696 349.956123 
L 539.073506 349.639878 
L 539.298494 348.868295 
L 539.767981 348.24715 
L 540.236588 347.559743 
L 540.480201 346.52185 
L 540.705325 346.433016 
L 541.174289 345.672793 
L 541.408115 345.631556 
L 541.886628 345.350641 
L 542.111571 345.627385 
L 542.346152 345.111498 
L 542.580942 345.364743 
L 542.815501 345.146616 
L 543.518729 345.308934 
L 543.753176 345.180274 
L 544.456425 345.361855 
L 544.700279 344.718703 
L 544.92471 344.881232 
L 545.15933 344.85116 
L 546.107116 345.117438 
L 546.332026 344.971073 
L 546.566016 345.018574 
L 546.800634 344.880128 
L 547.97304 344.962942 
L 548.676409 344.636636 
L 548.919763 344.568168 
L 549.145038 344.692559 
L 549.379601 344.581849 
L 549.614152 344.684494 
L 549.847967 344.522972 
L 550.082369 344.739557 
L 550.326223 344.223589 
L 550.551851 344.791164 
L 551.73293 344.970618 
L 551.957907 344.904114 
L 552.661865 345.083504 
L 553.139927 344.996697 
L 553.36471 345.114549 
L 554.302977 345.03352 
L 555.00604 345.743565 
L 555.24 345.505331 
L 555.952525 345.870488 
L 556.17835 345.844993 
L 556.412296 346.189929 
L 556.647037 346.24324 
L 556.880988 346.687641 
L 557.115573 346.892996 
L 557.584635 347.921217 
L 558.054028 348.731294 
L 558.522561 350.267174 
L 558.766402 351.010017 
L 558.99134 351.27816 
L 559.459793 352.945848 
L 559.694314 353.277185 
L 559.929133 353.952728 
L 560.39801 357.801378 
L 560.632721 357.198051 
L 561.335414 360.41887 
L 561.80448 361.278996 
L 562.038984 361.553761 
L 562.508179 361.808191 
L 563.2112 362.259067 
L 564.392132 362.641767 
L 566.493488 363.213675 
L 567.20557 363.471407 
L 567.665668 363.471407 
L 597.918087 363.399459 
L 598.151 363.356534 
L 598.375828 363.471407 
L 598.610549 363.113707 
L 600.485621 362.570037 
L 601.892444 361.796068 
L 602.127228 360.163271 
L 602.595392 358.723691 
L 603.064743 356.985994 
L 604.705445 353.109204 
L 604.94025 352.740395 
L 605.184144 352.049646 
L 605.409276 351.818747 
L 607.049932 348.787542 
L 607.284805 348.585351 
L 607.51877 347.474463 
L 607.75345 347.091957 
L 608.456691 346.474966 
L 608.926218 346.185678 
L 609.159896 346.21458 
L 609.403903 345.92917 
L 610.566614 346.021445 
L 610.810287 345.885662 
L 611.035613 345.473328 
L 611.270248 345.541926 
L 611.504106 345.323409 
L 611.738766 345.462926 
L 611.973253 345.381231 
L 612.217141 345.510021 
L 612.676544 345.181686 
L 612.911355 344.762748 
L 613.379689 344.655201 
L 613.62395 344.864176 
L 613.848716 344.736214 
L 614.317779 345.046568 
L 614.786278 345.197655 
L 615.030439 345.058804 
L 615.489941 345.104487 
L 615.724374 344.867357 
L 615.958975 345.021543 
L 616.436706 344.989395 
L 616.661764 344.783861 
L 617.130751 345.041342 
L 617.599886 345.315214 
L 618.068662 345.372793 
L 618.302756 345.713088 
L 618.772059 345.402393 
L 619.006505 345.729673 
L 619.250221 345.319628 
L 619.474928 345.251095 
L 619.944321 346.097638 
L 620.178321 345.995025 
L 620.656855 345.300316 
L 621.115851 345.235094 
L 621.350594 345.433779 
L 621.585162 345.384201 
L 622.06309 345.738469 
L 622.288132 345.429673 
L 622.757408 346.137252 
L 622.992081 346.147557 
L 623.454545 346.476362 
L 623.454545 346.476362 
" style="fill:none;stroke:#ff7f0e;stroke-linecap:square;stroke-width:1.5;"/>
   </g>
   <g id="patch_3">
    <path d="M 108 378.236801 
L 108 53.398137 
" style="fill:none;stroke:#000000;stroke-linecap:square;stroke-linejoin:miter;stroke-width:0.8;"/>
   </g>
   <g id="patch_4">
    <path d="M 648 378.236801 
L 648 53.398137 
" style="fill:none;stroke:#000000;stroke-linecap:square;stroke-linejoin:miter;stroke-width:0.8;"/>
   </g>
   <g id="patch_5">
    <path d="M 108 378.236801 
L 648 378.236801 
" style="fill:none;stroke:#000000;stroke-linecap:square;stroke-linejoin:miter;stroke-width:0.8;"/>
   </g>
   <g id="patch_6">
    <path d="M 108 53.398137 
L 648 53.398137 
" style="fill:none;stroke:#000000;stroke-linecap:square;stroke-linejoin:miter;stroke-width:0.8;"/>
   </g>
   <g id="legend_1">
    <g id="patch_7">
     <path d="M 584.654688 90.754387 
L 641 90.754387 
Q 643 90.754387 643 88.754387 
L 643 60.398137 
Q 643 58.398137 641 58.398137 
L 584.654688 58.398137 
Q 582.654688 58.398137 582.654688 60.398137 
L 582.654688 88.754387 
Q 582.654688 90.754387 584.654688 90.754387 
z
" style="fill:#ffffff;opacity:0.8;stroke:#cccccc;stroke-linejoin:miter;"/>
    </g>
    <g id="line2d_33">
     <path d="M 586.654688 66.496574 
L 606.654688 66.496574 
" style="fill:none;stroke:#1f77b4;stroke-linecap:square;stroke-width:1.5;"/>
    </g>
    <g id="line2d_34"/>
    <g id="text_18">
     <!-- sce -->
     <g transform="translate(614.654688 69.996574)scale(0.1 -0.1)">
      <defs>
       <path d="M 3122 3366 
L 3122 2828 
Q 2878 2963 2633 3030 
Q 2388 3097 2138 3097 
Q 1578 3097 1268 2742 
Q 959 2388 959 1747 
Q 959 1106 1268 751 
Q 1578 397 2138 397 
Q 2388 397 2633 464 
Q 2878 531 3122 666 
L 3122 134 
Q 2881 22 2623 -34 
Q 2366 -91 2075 -91 
Q 1284 -91 818 406 
Q 353 903 353 1747 
Q 353 2603 823 3093 
Q 1294 3584 2113 3584 
Q 2378 3584 2631 3529 
Q 2884 3475 3122 3366 
z
" id="DejaVuSans-63" transform="scale(0.015625)"/>
      </defs>
      <use xlink:href="#DejaVuSans-73"/>
      <use x="52.099609" xlink:href="#DejaVuSans-63"/>
      <use x="107.080078" xlink:href="#DejaVuSans-65"/>
     </g>
    </g>
    <g id="line2d_35">
     <path d="M 586.654688 81.174699 
L 606.654688 81.174699 
" style="fill:none;stroke:#ff7f0e;stroke-linecap:square;stroke-width:1.5;"/>
    </g>
    <g id="line2d_36"/>
    <g id="text_19">
     <!-- solar -->
     <g transform="translate(614.654688 84.674699)scale(0.1 -0.1)">
      <defs>
       <path d="M 603 4863 
L 1178 4863 
L 1178 0 
L 603 0 
L 603 4863 
z
" id="DejaVuSans-6c" transform="scale(0.015625)"/>
      </defs>
      <use xlink:href="#DejaVuSans-73"/>
      <use x="52.099609" xlink:href="#DejaVuSans-6f"/>
      <use x="113.28125" xlink:href="#DejaVuSans-6c"/>
      <use x="141.064453" xlink:href="#DejaVuSans-61"/>
      <use x="202.34375" xlink:href="#DejaVuSans-72"/>
     </g>
    </g>
   </g>
  </g>
 </g>
 <defs>
  <clipPath id="pb23c9894f0">
   <rect height="324.838664" width="540" x="108" y="53.398137"/>
  </clipPath>
 </defs>
</svg>
