<?xml version="1.0" encoding="utf-8" standalone="no"?>
<!DOCTYPE svg PUBLIC "-//W3C//DTD SVG 1.1//EN"
  "http://www.w3.org/Graphics/SVG/1.1/DTD/svg11.dtd">
<svg height="444.984472pt" version="1.1" viewBox="0 0 720 444.984472" width="720pt" xmlns="http://www.w3.org/2000/svg" xmlns:xlink="http://www.w3.org/1999/xlink">
 <metadata>
  <rdf:RDF xmlns:cc="http://creativecommons.org/ns#" xmlns:dc="http://purl.org/dc/elements/1.1/" xmlns:rdf="http://www.w3.org/1999/02/22-rdf-syntax-ns#">
   <cc:Work>
    <dc:type rdf:resource="http://purl.org/dc/dcmitype/StillImage"/>
    <dc:date>2021-05-20T15:33:53.363090</dc:date>
    <dc:format>image/svg+xml</dc:format>
    <dc:creator>
     <cc:Agent>
      <dc:title>Matplotlib v3.4.2, https://matplotlib.org/</dc:title>
     </cc:Agent>
    </dc:creator>
   </cc:Work>
  </rdf:RDF>
 </metadata>
 <defs>
  <style type="text/css">*{stroke-linecap:butt;stroke-linejoin:round;}</style>
 </defs>
 <g id="figure_1">
  <g id="patch_1">
   <path d="M 0 444.984472 
L 720 444.984472 
L 720 0 
L 0 0 
z
" style="fill:#ffffff;"/>
  </g>
  <g id="axes_1">
   <g id="patch_2">
    <path d="M 108 378.236801 
L 648 378.236801 
L 648 53.398137 
L 108 53.398137 
z
" style="fill:#ffffff;"/>
   </g>
   <g id="matplotlib.axis_1">
    <g id="xtick_1">
     <g id="line2d_1">
      <path clip-path="url(#p6ca680c612)" d="M 136.676689 378.236801 
L 136.676689 53.398137 
" style="fill:none;stroke:#b0b0b0;stroke-linecap:square;stroke-width:0.8;"/>
     </g>
     <g id="line2d_2">
      <defs>
       <path d="M 0 0 
L 0 3.5 
" id="maade0292c7" style="stroke:#000000;stroke-width:0.8;"/>
      </defs>
      <g>
       <use style="stroke:#000000;stroke-width:0.8;" x="136.676689" xlink:href="#maade0292c7" y="378.236801"/>
      </g>
     </g>
     <g id="text_1">
      <!-- 2021-05-14 -->
      <g transform="translate(107.618877 399.335239)scale(0.1 -0.1)">
       <defs>
        <path d="M 1228 531 
L 3431 531 
L 3431 0 
L 469 0 
L 469 531 
Q 828 903 1448 1529 
Q 2069 2156 2228 2338 
Q 2531 2678 2651 2914 
Q 2772 3150 2772 3378 
Q 2772 3750 2511 3984 
Q 2250 4219 1831 4219 
Q 1534 4219 1204 4116 
Q 875 4013 500 3803 
L 500 4441 
Q 881 4594 1212 4672 
Q 1544 4750 1819 4750 
Q 2544 4750 2975 4387 
Q 3406 4025 3406 3419 
Q 3406 3131 3298 2873 
Q 3191 2616 2906 2266 
Q 2828 2175 2409 1742 
Q 1991 1309 1228 531 
z
" id="DejaVuSans-32" transform="scale(0.015625)"/>
        <path d="M 2034 4250 
Q 1547 4250 1301 3770 
Q 1056 3291 1056 2328 
Q 1056 1369 1301 889 
Q 1547 409 2034 409 
Q 2525 409 2770 889 
Q 3016 1369 3016 2328 
Q 3016 3291 2770 3770 
Q 2525 4250 2034 4250 
z
M 2034 4750 
Q 2819 4750 3233 4129 
Q 3647 3509 3647 2328 
Q 3647 1150 3233 529 
Q 2819 -91 2034 -91 
Q 1250 -91 836 529 
Q 422 1150 422 2328 
Q 422 3509 836 4129 
Q 1250 4750 2034 4750 
z
" id="DejaVuSans-30" transform="scale(0.015625)"/>
        <path d="M 794 531 
L 1825 531 
L 1825 4091 
L 703 3866 
L 703 4441 
L 1819 4666 
L 2450 4666 
L 2450 531 
L 3481 531 
L 3481 0 
L 794 0 
L 794 531 
z
" id="DejaVuSans-31" transform="scale(0.015625)"/>
        <path d="M 313 2009 
L 1997 2009 
L 1997 1497 
L 313 1497 
L 313 2009 
z
" id="DejaVuSans-2d" transform="scale(0.015625)"/>
        <path d="M 691 4666 
L 3169 4666 
L 3169 4134 
L 1269 4134 
L 1269 2991 
Q 1406 3038 1543 3061 
Q 1681 3084 1819 3084 
Q 2600 3084 3056 2656 
Q 3513 2228 3513 1497 
Q 3513 744 3044 326 
Q 2575 -91 1722 -91 
Q 1428 -91 1123 -41 
Q 819 9 494 109 
L 494 744 
Q 775 591 1075 516 
Q 1375 441 1709 441 
Q 2250 441 2565 725 
Q 2881 1009 2881 1497 
Q 2881 1984 2565 2268 
Q 2250 2553 1709 2553 
Q 1456 2553 1204 2497 
Q 953 2441 691 2322 
L 691 4666 
z
" id="DejaVuSans-35" transform="scale(0.015625)"/>
        <path d="M 2419 4116 
L 825 1625 
L 2419 1625 
L 2419 4116 
z
M 2253 4666 
L 3047 4666 
L 3047 1625 
L 3713 1625 
L 3713 1100 
L 3047 1100 
L 3047 0 
L 2419 0 
L 2419 1100 
L 313 1100 
L 313 1709 
L 2253 4666 
z
" id="DejaVuSans-34" transform="scale(0.015625)"/>
       </defs>
       <use xlink:href="#DejaVuSans-32"/>
       <use x="63.623047" xlink:href="#DejaVuSans-30"/>
       <use x="127.246094" xlink:href="#DejaVuSans-32"/>
       <use x="190.869141" xlink:href="#DejaVuSans-31"/>
       <use x="254.492188" xlink:href="#DejaVuSans-2d"/>
       <use x="290.576172" xlink:href="#DejaVuSans-30"/>
       <use x="354.199219" xlink:href="#DejaVuSans-35"/>
       <use x="417.822266" xlink:href="#DejaVuSans-2d"/>
       <use x="453.90625" xlink:href="#DejaVuSans-31"/>
       <use x="517.529297" xlink:href="#DejaVuSans-34"/>
      </g>
     </g>
    </g>
    <g id="xtick_2">
     <g id="line2d_3">
      <path clip-path="url(#p6ca680c612)" d="M 206.842239 378.236801 
L 206.842239 53.398137 
" style="fill:none;stroke:#b0b0b0;stroke-linecap:square;stroke-width:0.8;"/>
     </g>
     <g id="line2d_4">
      <g>
       <use style="stroke:#000000;stroke-width:0.8;" x="206.842239" xlink:href="#maade0292c7" y="378.236801"/>
      </g>
     </g>
     <g id="text_2">
      <!-- 2021-05-15 -->
      <g transform="translate(177.784427 399.335239)scale(0.1 -0.1)">
       <use xlink:href="#DejaVuSans-32"/>
       <use x="63.623047" xlink:href="#DejaVuSans-30"/>
       <use x="127.246094" xlink:href="#DejaVuSans-32"/>
       <use x="190.869141" xlink:href="#DejaVuSans-31"/>
       <use x="254.492188" xlink:href="#DejaVuSans-2d"/>
       <use x="290.576172" xlink:href="#DejaVuSans-30"/>
       <use x="354.199219" xlink:href="#DejaVuSans-35"/>
       <use x="417.822266" xlink:href="#DejaVuSans-2d"/>
       <use x="453.90625" xlink:href="#DejaVuSans-31"/>
       <use x="517.529297" xlink:href="#DejaVuSans-35"/>
      </g>
     </g>
    </g>
    <g id="xtick_3">
     <g id="line2d_5">
      <path clip-path="url(#p6ca680c612)" d="M 277.007789 378.236801 
L 277.007789 53.398137 
" style="fill:none;stroke:#b0b0b0;stroke-linecap:square;stroke-width:0.8;"/>
     </g>
     <g id="line2d_6">
      <g>
       <use style="stroke:#000000;stroke-width:0.8;" x="277.007789" xlink:href="#maade0292c7" y="378.236801"/>
      </g>
     </g>
     <g id="text_3">
      <!-- 2021-05-16 -->
      <g transform="translate(247.949977 399.335239)scale(0.1 -0.1)">
       <defs>
        <path d="M 2113 2584 
Q 1688 2584 1439 2293 
Q 1191 2003 1191 1497 
Q 1191 994 1439 701 
Q 1688 409 2113 409 
Q 2538 409 2786 701 
Q 3034 994 3034 1497 
Q 3034 2003 2786 2293 
Q 2538 2584 2113 2584 
z
M 3366 4563 
L 3366 3988 
Q 3128 4100 2886 4159 
Q 2644 4219 2406 4219 
Q 1781 4219 1451 3797 
Q 1122 3375 1075 2522 
Q 1259 2794 1537 2939 
Q 1816 3084 2150 3084 
Q 2853 3084 3261 2657 
Q 3669 2231 3669 1497 
Q 3669 778 3244 343 
Q 2819 -91 2113 -91 
Q 1303 -91 875 529 
Q 447 1150 447 2328 
Q 447 3434 972 4092 
Q 1497 4750 2381 4750 
Q 2619 4750 2861 4703 
Q 3103 4656 3366 4563 
z
" id="DejaVuSans-36" transform="scale(0.015625)"/>
       </defs>
       <use xlink:href="#DejaVuSans-32"/>
       <use x="63.623047" xlink:href="#DejaVuSans-30"/>
       <use x="127.246094" xlink:href="#DejaVuSans-32"/>
       <use x="190.869141" xlink:href="#DejaVuSans-31"/>
       <use x="254.492188" xlink:href="#DejaVuSans-2d"/>
       <use x="290.576172" xlink:href="#DejaVuSans-30"/>
       <use x="354.199219" xlink:href="#DejaVuSans-35"/>
       <use x="417.822266" xlink:href="#DejaVuSans-2d"/>
       <use x="453.90625" xlink:href="#DejaVuSans-31"/>
       <use x="517.529297" xlink:href="#DejaVuSans-36"/>
      </g>
     </g>
    </g>
    <g id="xtick_4">
     <g id="line2d_7">
      <path clip-path="url(#p6ca680c612)" d="M 347.173339 378.236801 
L 347.173339 53.398137 
" style="fill:none;stroke:#b0b0b0;stroke-linecap:square;stroke-width:0.8;"/>
     </g>
     <g id="line2d_8">
      <g>
       <use style="stroke:#000000;stroke-width:0.8;" x="347.173339" xlink:href="#maade0292c7" y="378.236801"/>
      </g>
     </g>
     <g id="text_4">
      <!-- 2021-05-17 -->
      <g transform="translate(318.115526 399.335239)scale(0.1 -0.1)">
       <defs>
        <path d="M 525 4666 
L 3525 4666 
L 3525 4397 
L 1831 0 
L 1172 0 
L 2766 4134 
L 525 4134 
L 525 4666 
z
" id="DejaVuSans-37" transform="scale(0.015625)"/>
       </defs>
       <use xlink:href="#DejaVuSans-32"/>
       <use x="63.623047" xlink:href="#DejaVuSans-30"/>
       <use x="127.246094" xlink:href="#DejaVuSans-32"/>
       <use x="190.869141" xlink:href="#DejaVuSans-31"/>
       <use x="254.492188" xlink:href="#DejaVuSans-2d"/>
       <use x="290.576172" xlink:href="#DejaVuSans-30"/>
       <use x="354.199219" xlink:href="#DejaVuSans-35"/>
       <use x="417.822266" xlink:href="#DejaVuSans-2d"/>
       <use x="453.90625" xlink:href="#DejaVuSans-31"/>
       <use x="517.529297" xlink:href="#DejaVuSans-37"/>
      </g>
     </g>
    </g>
    <g id="xtick_5">
     <g id="line2d_9">
      <path clip-path="url(#p6ca680c612)" d="M 417.338889 378.236801 
L 417.338889 53.398137 
" style="fill:none;stroke:#b0b0b0;stroke-linecap:square;stroke-width:0.8;"/>
     </g>
     <g id="line2d_10">
      <g>
       <use style="stroke:#000000;stroke-width:0.8;" x="417.338889" xlink:href="#maade0292c7" y="378.236801"/>
      </g>
     </g>
     <g id="text_5">
      <!-- 2021-05-18 -->
      <g transform="translate(388.281076 399.335239)scale(0.1 -0.1)">
       <defs>
        <path d="M 2034 2216 
Q 1584 2216 1326 1975 
Q 1069 1734 1069 1313 
Q 1069 891 1326 650 
Q 1584 409 2034 409 
Q 2484 409 2743 651 
Q 3003 894 3003 1313 
Q 3003 1734 2745 1975 
Q 2488 2216 2034 2216 
z
M 1403 2484 
Q 997 2584 770 2862 
Q 544 3141 544 3541 
Q 544 4100 942 4425 
Q 1341 4750 2034 4750 
Q 2731 4750 3128 4425 
Q 3525 4100 3525 3541 
Q 3525 3141 3298 2862 
Q 3072 2584 2669 2484 
Q 3125 2378 3379 2068 
Q 3634 1759 3634 1313 
Q 3634 634 3220 271 
Q 2806 -91 2034 -91 
Q 1263 -91 848 271 
Q 434 634 434 1313 
Q 434 1759 690 2068 
Q 947 2378 1403 2484 
z
M 1172 3481 
Q 1172 3119 1398 2916 
Q 1625 2713 2034 2713 
Q 2441 2713 2670 2916 
Q 2900 3119 2900 3481 
Q 2900 3844 2670 4047 
Q 2441 4250 2034 4250 
Q 1625 4250 1398 4047 
Q 1172 3844 1172 3481 
z
" id="DejaVuSans-38" transform="scale(0.015625)"/>
       </defs>
       <use xlink:href="#DejaVuSans-32"/>
       <use x="63.623047" xlink:href="#DejaVuSans-30"/>
       <use x="127.246094" xlink:href="#DejaVuSans-32"/>
       <use x="190.869141" xlink:href="#DejaVuSans-31"/>
       <use x="254.492188" xlink:href="#DejaVuSans-2d"/>
       <use x="290.576172" xlink:href="#DejaVuSans-30"/>
       <use x="354.199219" xlink:href="#DejaVuSans-35"/>
       <use x="417.822266" xlink:href="#DejaVuSans-2d"/>
       <use x="453.90625" xlink:href="#DejaVuSans-31"/>
       <use x="517.529297" xlink:href="#DejaVuSans-38"/>
      </g>
     </g>
    </g>
    <g id="xtick_6">
     <g id="line2d_11">
      <path clip-path="url(#p6ca680c612)" d="M 487.504439 378.236801 
L 487.504439 53.398137 
" style="fill:none;stroke:#b0b0b0;stroke-linecap:square;stroke-width:0.8;"/>
     </g>
     <g id="line2d_12">
      <g>
       <use style="stroke:#000000;stroke-width:0.8;" x="487.504439" xlink:href="#maade0292c7" y="378.236801"/>
      </g>
     </g>
     <g id="text_6">
      <!-- 2021-05-19 -->
      <g transform="translate(458.446626 399.335239)scale(0.1 -0.1)">
       <defs>
        <path d="M 703 97 
L 703 672 
Q 941 559 1184 500 
Q 1428 441 1663 441 
Q 2288 441 2617 861 
Q 2947 1281 2994 2138 
Q 2813 1869 2534 1725 
Q 2256 1581 1919 1581 
Q 1219 1581 811 2004 
Q 403 2428 403 3163 
Q 403 3881 828 4315 
Q 1253 4750 1959 4750 
Q 2769 4750 3195 4129 
Q 3622 3509 3622 2328 
Q 3622 1225 3098 567 
Q 2575 -91 1691 -91 
Q 1453 -91 1209 -44 
Q 966 3 703 97 
z
M 1959 2075 
Q 2384 2075 2632 2365 
Q 2881 2656 2881 3163 
Q 2881 3666 2632 3958 
Q 2384 4250 1959 4250 
Q 1534 4250 1286 3958 
Q 1038 3666 1038 3163 
Q 1038 2656 1286 2365 
Q 1534 2075 1959 2075 
z
" id="DejaVuSans-39" transform="scale(0.015625)"/>
       </defs>
       <use xlink:href="#DejaVuSans-32"/>
       <use x="63.623047" xlink:href="#DejaVuSans-30"/>
       <use x="127.246094" xlink:href="#DejaVuSans-32"/>
       <use x="190.869141" xlink:href="#DejaVuSans-31"/>
       <use x="254.492188" xlink:href="#DejaVuSans-2d"/>
       <use x="290.576172" xlink:href="#DejaVuSans-30"/>
       <use x="354.199219" xlink:href="#DejaVuSans-35"/>
       <use x="417.822266" xlink:href="#DejaVuSans-2d"/>
       <use x="453.90625" xlink:href="#DejaVuSans-31"/>
       <use x="517.529297" xlink:href="#DejaVuSans-39"/>
      </g>
     </g>
    </g>
    <g id="xtick_7">
     <g id="line2d_13">
      <path clip-path="url(#p6ca680c612)" d="M 557.669988 378.236801 
L 557.669988 53.398137 
" style="fill:none;stroke:#b0b0b0;stroke-linecap:square;stroke-width:0.8;"/>
     </g>
     <g id="line2d_14">
      <g>
       <use style="stroke:#000000;stroke-width:0.8;" x="557.669988" xlink:href="#maade0292c7" y="378.236801"/>
      </g>
     </g>
     <g id="text_7">
      <!-- 2021-05-20 -->
      <g transform="translate(528.612176 399.335239)scale(0.1 -0.1)">
       <use xlink:href="#DejaVuSans-32"/>
       <use x="63.623047" xlink:href="#DejaVuSans-30"/>
       <use x="127.246094" xlink:href="#DejaVuSans-32"/>
       <use x="190.869141" xlink:href="#DejaVuSans-31"/>
       <use x="254.492188" xlink:href="#DejaVuSans-2d"/>
       <use x="290.576172" xlink:href="#DejaVuSans-30"/>
       <use x="354.199219" xlink:href="#DejaVuSans-35"/>
       <use x="417.822266" xlink:href="#DejaVuSans-2d"/>
       <use x="453.90625" xlink:href="#DejaVuSans-32"/>
       <use x="517.529297" xlink:href="#DejaVuSans-30"/>
      </g>
     </g>
    </g>
    <g id="xtick_8">
     <g id="line2d_15">
      <path clip-path="url(#p6ca680c612)" d="M 627.835538 378.236801 
L 627.835538 53.398137 
" style="fill:none;stroke:#b0b0b0;stroke-linecap:square;stroke-width:0.8;"/>
     </g>
     <g id="line2d_16">
      <g>
       <use style="stroke:#000000;stroke-width:0.8;" x="627.835538" xlink:href="#maade0292c7" y="378.236801"/>
      </g>
     </g>
     <g id="text_8">
      <!-- 2021-05-21 -->
      <g transform="translate(598.777726 399.335239)scale(0.1 -0.1)">
       <use xlink:href="#DejaVuSans-32"/>
       <use x="63.623047" xlink:href="#DejaVuSans-30"/>
       <use x="127.246094" xlink:href="#DejaVuSans-32"/>
       <use x="190.869141" xlink:href="#DejaVuSans-31"/>
       <use x="254.492188" xlink:href="#DejaVuSans-2d"/>
       <use x="290.576172" xlink:href="#DejaVuSans-30"/>
       <use x="354.199219" xlink:href="#DejaVuSans-35"/>
       <use x="417.822266" xlink:href="#DejaVuSans-2d"/>
       <use x="453.90625" xlink:href="#DejaVuSans-32"/>
       <use x="517.529297" xlink:href="#DejaVuSans-31"/>
      </g>
     </g>
    </g>
    <g id="text_9">
     <!-- timestamp -->
     <g transform="translate(567.030469 434.561038)scale(0.1 -0.1)">
      <defs>
       <path d="M 1172 4494 
L 1172 3500 
L 2356 3500 
L 2356 3053 
L 1172 3053 
L 1172 1153 
Q 1172 725 1289 603 
Q 1406 481 1766 481 
L 2356 481 
L 2356 0 
L 1766 0 
Q 1100 0 847 248 
Q 594 497 594 1153 
L 594 3053 
L 172 3053 
L 172 3500 
L 594 3500 
L 594 4494 
L 1172 4494 
z
" id="DejaVuSans-74" transform="scale(0.015625)"/>
       <path d="M 603 3500 
L 1178 3500 
L 1178 0 
L 603 0 
L 603 3500 
z
M 603 4863 
L 1178 4863 
L 1178 4134 
L 603 4134 
L 603 4863 
z
" id="DejaVuSans-69" transform="scale(0.015625)"/>
       <path d="M 3328 2828 
Q 3544 3216 3844 3400 
Q 4144 3584 4550 3584 
Q 5097 3584 5394 3201 
Q 5691 2819 5691 2113 
L 5691 0 
L 5113 0 
L 5113 2094 
Q 5113 2597 4934 2840 
Q 4756 3084 4391 3084 
Q 3944 3084 3684 2787 
Q 3425 2491 3425 1978 
L 3425 0 
L 2847 0 
L 2847 2094 
Q 2847 2600 2669 2842 
Q 2491 3084 2119 3084 
Q 1678 3084 1418 2786 
Q 1159 2488 1159 1978 
L 1159 0 
L 581 0 
L 581 3500 
L 1159 3500 
L 1159 2956 
Q 1356 3278 1631 3431 
Q 1906 3584 2284 3584 
Q 2666 3584 2933 3390 
Q 3200 3197 3328 2828 
z
" id="DejaVuSans-6d" transform="scale(0.015625)"/>
       <path d="M 3597 1894 
L 3597 1613 
L 953 1613 
Q 991 1019 1311 708 
Q 1631 397 2203 397 
Q 2534 397 2845 478 
Q 3156 559 3463 722 
L 3463 178 
Q 3153 47 2828 -22 
Q 2503 -91 2169 -91 
Q 1331 -91 842 396 
Q 353 884 353 1716 
Q 353 2575 817 3079 
Q 1281 3584 2069 3584 
Q 2775 3584 3186 3129 
Q 3597 2675 3597 1894 
z
M 3022 2063 
Q 3016 2534 2758 2815 
Q 2500 3097 2075 3097 
Q 1594 3097 1305 2825 
Q 1016 2553 972 2059 
L 3022 2063 
z
" id="DejaVuSans-65" transform="scale(0.015625)"/>
       <path d="M 2834 3397 
L 2834 2853 
Q 2591 2978 2328 3040 
Q 2066 3103 1784 3103 
Q 1356 3103 1142 2972 
Q 928 2841 928 2578 
Q 928 2378 1081 2264 
Q 1234 2150 1697 2047 
L 1894 2003 
Q 2506 1872 2764 1633 
Q 3022 1394 3022 966 
Q 3022 478 2636 193 
Q 2250 -91 1575 -91 
Q 1294 -91 989 -36 
Q 684 19 347 128 
L 347 722 
Q 666 556 975 473 
Q 1284 391 1588 391 
Q 1994 391 2212 530 
Q 2431 669 2431 922 
Q 2431 1156 2273 1281 
Q 2116 1406 1581 1522 
L 1381 1569 
Q 847 1681 609 1914 
Q 372 2147 372 2553 
Q 372 3047 722 3315 
Q 1072 3584 1716 3584 
Q 2034 3584 2315 3537 
Q 2597 3491 2834 3397 
z
" id="DejaVuSans-73" transform="scale(0.015625)"/>
       <path d="M 2194 1759 
Q 1497 1759 1228 1600 
Q 959 1441 959 1056 
Q 959 750 1161 570 
Q 1363 391 1709 391 
Q 2188 391 2477 730 
Q 2766 1069 2766 1631 
L 2766 1759 
L 2194 1759 
z
M 3341 1997 
L 3341 0 
L 2766 0 
L 2766 531 
Q 2569 213 2275 61 
Q 1981 -91 1556 -91 
Q 1019 -91 701 211 
Q 384 513 384 1019 
Q 384 1609 779 1909 
Q 1175 2209 1959 2209 
L 2766 2209 
L 2766 2266 
Q 2766 2663 2505 2880 
Q 2244 3097 1772 3097 
Q 1472 3097 1187 3025 
Q 903 2953 641 2809 
L 641 3341 
Q 956 3463 1253 3523 
Q 1550 3584 1831 3584 
Q 2591 3584 2966 3190 
Q 3341 2797 3341 1997 
z
" id="DejaVuSans-61" transform="scale(0.015625)"/>
       <path d="M 1159 525 
L 1159 -1331 
L 581 -1331 
L 581 3500 
L 1159 3500 
L 1159 2969 
Q 1341 3281 1617 3432 
Q 1894 3584 2278 3584 
Q 2916 3584 3314 3078 
Q 3713 2572 3713 1747 
Q 3713 922 3314 415 
Q 2916 -91 2278 -91 
Q 1894 -91 1617 61 
Q 1341 213 1159 525 
z
M 3116 1747 
Q 3116 2381 2855 2742 
Q 2594 3103 2138 3103 
Q 1681 3103 1420 2742 
Q 1159 2381 1159 1747 
Q 1159 1113 1420 752 
Q 1681 391 2138 391 
Q 2594 391 2855 752 
Q 3116 1113 3116 1747 
z
" id="DejaVuSans-70" transform="scale(0.015625)"/>
      </defs>
      <use xlink:href="#DejaVuSans-74"/>
      <use x="39.208984" xlink:href="#DejaVuSans-69"/>
      <use x="66.992188" xlink:href="#DejaVuSans-6d"/>
      <use x="164.404297" xlink:href="#DejaVuSans-65"/>
      <use x="225.927734" xlink:href="#DejaVuSans-73"/>
      <use x="278.027344" xlink:href="#DejaVuSans-74"/>
      <use x="317.236328" xlink:href="#DejaVuSans-61"/>
      <use x="378.515625" xlink:href="#DejaVuSans-6d"/>
      <use x="475.927734" xlink:href="#DejaVuSans-70"/>
     </g>
    </g>
   </g>
   <g id="matplotlib.axis_2">
    <g id="ytick_1">
     <g id="line2d_17">
      <path clip-path="url(#p6ca680c612)" d="M 108 363.471407 
L 648 363.471407 
" style="fill:none;stroke:#b0b0b0;stroke-linecap:square;stroke-width:0.8;"/>
     </g>
     <g id="line2d_18">
      <defs>
       <path d="M 0 0 
L -3.5 0 
" id="m58a7fe1c43" style="stroke:#000000;stroke-width:0.8;"/>
      </defs>
      <g>
       <use style="stroke:#000000;stroke-width:0.8;" x="108" xlink:href="#m58a7fe1c43" y="363.471407"/>
      </g>
     </g>
     <g id="text_10">
      <!-- 0 -->
      <g transform="translate(88.1375 367.270626)scale(0.1 -0.1)">
       <use xlink:href="#DejaVuSans-30"/>
      </g>
     </g>
    </g>
    <g id="ytick_2">
     <g id="line2d_19">
      <path clip-path="url(#p6ca680c612)" d="M 108 306.915503 
L 648 306.915503 
" style="fill:none;stroke:#b0b0b0;stroke-linecap:square;stroke-width:0.8;"/>
     </g>
     <g id="line2d_20">
      <g>
       <use style="stroke:#000000;stroke-width:0.8;" x="108" xlink:href="#m58a7fe1c43" y="306.915503"/>
      </g>
     </g>
     <g id="text_11">
      <!-- 20 -->
      <g transform="translate(81.775 310.714722)scale(0.1 -0.1)">
       <use xlink:href="#DejaVuSans-32"/>
       <use x="63.623047" xlink:href="#DejaVuSans-30"/>
      </g>
     </g>
    </g>
    <g id="ytick_3">
     <g id="line2d_21">
      <path clip-path="url(#p6ca680c612)" d="M 108 250.359598 
L 648 250.359598 
" style="fill:none;stroke:#b0b0b0;stroke-linecap:square;stroke-width:0.8;"/>
     </g>
     <g id="line2d_22">
      <g>
       <use style="stroke:#000000;stroke-width:0.8;" x="108" xlink:href="#m58a7fe1c43" y="250.359598"/>
      </g>
     </g>
     <g id="text_12">
      <!-- 40 -->
      <g transform="translate(81.775 254.158817)scale(0.1 -0.1)">
       <use xlink:href="#DejaVuSans-34"/>
       <use x="63.623047" xlink:href="#DejaVuSans-30"/>
      </g>
     </g>
    </g>
    <g id="ytick_4">
     <g id="line2d_23">
      <path clip-path="url(#p6ca680c612)" d="M 108 193.803694 
L 648 193.803694 
" style="fill:none;stroke:#b0b0b0;stroke-linecap:square;stroke-width:0.8;"/>
     </g>
     <g id="line2d_24">
      <g>
       <use style="stroke:#000000;stroke-width:0.8;" x="108" xlink:href="#m58a7fe1c43" y="193.803694"/>
      </g>
     </g>
     <g id="text_13">
      <!-- 60 -->
      <g transform="translate(81.775 197.602913)scale(0.1 -0.1)">
       <use xlink:href="#DejaVuSans-36"/>
       <use x="63.623047" xlink:href="#DejaVuSans-30"/>
      </g>
     </g>
    </g>
    <g id="ytick_5">
     <g id="line2d_25">
      <path clip-path="url(#p6ca680c612)" d="M 108 137.247789 
L 648 137.247789 
" style="fill:none;stroke:#b0b0b0;stroke-linecap:square;stroke-width:0.8;"/>
     </g>
     <g id="line2d_26">
      <g>
       <use style="stroke:#000000;stroke-width:0.8;" x="108" xlink:href="#m58a7fe1c43" y="137.247789"/>
      </g>
     </g>
     <g id="text_14">
      <!-- 80 -->
      <g transform="translate(81.775 141.047008)scale(0.1 -0.1)">
       <use xlink:href="#DejaVuSans-38"/>
       <use x="63.623047" xlink:href="#DejaVuSans-30"/>
      </g>
     </g>
    </g>
    <g id="ytick_6">
     <g id="line2d_27">
      <path clip-path="url(#p6ca680c612)" d="M 108 80.691885 
L 648 80.691885 
" style="fill:none;stroke:#b0b0b0;stroke-linecap:square;stroke-width:0.8;"/>
     </g>
     <g id="line2d_28">
      <g>
       <use style="stroke:#000000;stroke-width:0.8;" x="108" xlink:href="#m58a7fe1c43" y="80.691885"/>
      </g>
     </g>
     <g id="text_15">
      <!-- 100 -->
      <g transform="translate(75.4125 84.491104)scale(0.1 -0.1)">
       <use xlink:href="#DejaVuSans-31"/>
       <use x="63.623047" xlink:href="#DejaVuSans-30"/>
       <use x="127.246094" xlink:href="#DejaVuSans-30"/>
      </g>
     </g>
    </g>
    <g id="text_16">
     <!-- Power  -->
     <g transform="translate(10.296875 82.349663)scale(0.1 -0.1)">
      <defs>
       <path d="M 1259 4147 
L 1259 2394 
L 2053 2394 
Q 2494 2394 2734 2622 
Q 2975 2850 2975 3272 
Q 2975 3691 2734 3919 
Q 2494 4147 2053 4147 
L 1259 4147 
z
M 628 4666 
L 2053 4666 
Q 2838 4666 3239 4311 
Q 3641 3956 3641 3272 
Q 3641 2581 3239 2228 
Q 2838 1875 2053 1875 
L 1259 1875 
L 1259 0 
L 628 0 
L 628 4666 
z
" id="DejaVuSans-50" transform="scale(0.015625)"/>
       <path d="M 1959 3097 
Q 1497 3097 1228 2736 
Q 959 2375 959 1747 
Q 959 1119 1226 758 
Q 1494 397 1959 397 
Q 2419 397 2687 759 
Q 2956 1122 2956 1747 
Q 2956 2369 2687 2733 
Q 2419 3097 1959 3097 
z
M 1959 3584 
Q 2709 3584 3137 3096 
Q 3566 2609 3566 1747 
Q 3566 888 3137 398 
Q 2709 -91 1959 -91 
Q 1206 -91 779 398 
Q 353 888 353 1747 
Q 353 2609 779 3096 
Q 1206 3584 1959 3584 
z
" id="DejaVuSans-6f" transform="scale(0.015625)"/>
       <path d="M 269 3500 
L 844 3500 
L 1563 769 
L 2278 3500 
L 2956 3500 
L 3675 769 
L 4391 3500 
L 4966 3500 
L 4050 0 
L 3372 0 
L 2619 2869 
L 1863 0 
L 1184 0 
L 269 3500 
z
" id="DejaVuSans-77" transform="scale(0.015625)"/>
       <path d="M 2631 2963 
Q 2534 3019 2420 3045 
Q 2306 3072 2169 3072 
Q 1681 3072 1420 2755 
Q 1159 2438 1159 1844 
L 1159 0 
L 581 0 
L 581 3500 
L 1159 3500 
L 1159 2956 
Q 1341 3275 1631 3429 
Q 1922 3584 2338 3584 
Q 2397 3584 2469 3576 
Q 2541 3569 2628 3553 
L 2631 2963 
z
" id="DejaVuSans-72" transform="scale(0.015625)"/>
       <path id="DejaVuSans-20" transform="scale(0.015625)"/>
      </defs>
      <use xlink:href="#DejaVuSans-50"/>
      <use x="56.677734" xlink:href="#DejaVuSans-6f"/>
      <use x="117.859375" xlink:href="#DejaVuSans-77"/>
      <use x="199.646484" xlink:href="#DejaVuSans-65"/>
      <use x="261.169922" xlink:href="#DejaVuSans-72"/>
      <use x="302.283203" xlink:href="#DejaVuSans-20"/>
     </g>
     <!--  in W -->
     <g transform="translate(14.320312 93.547476)scale(0.1 -0.1)">
      <defs>
       <path d="M 3513 2113 
L 3513 0 
L 2938 0 
L 2938 2094 
Q 2938 2591 2744 2837 
Q 2550 3084 2163 3084 
Q 1697 3084 1428 2787 
Q 1159 2491 1159 1978 
L 1159 0 
L 581 0 
L 581 3500 
L 1159 3500 
L 1159 2956 
Q 1366 3272 1645 3428 
Q 1925 3584 2291 3584 
Q 2894 3584 3203 3211 
Q 3513 2838 3513 2113 
z
" id="DejaVuSans-6e" transform="scale(0.015625)"/>
       <path d="M 213 4666 
L 850 4666 
L 1831 722 
L 2809 4666 
L 3519 4666 
L 4500 722 
L 5478 4666 
L 6119 4666 
L 4947 0 
L 4153 0 
L 3169 4050 
L 2175 0 
L 1381 0 
L 213 4666 
z
" id="DejaVuSans-57" transform="scale(0.015625)"/>
      </defs>
      <use xlink:href="#DejaVuSans-20"/>
      <use x="31.787109" xlink:href="#DejaVuSans-69"/>
      <use x="59.570312" xlink:href="#DejaVuSans-6e"/>
      <use x="122.949219" xlink:href="#DejaVuSans-20"/>
      <use x="154.736328" xlink:href="#DejaVuSans-57"/>
     </g>
    </g>
   </g>
   <g id="line2d_29">
    <path clip-path="url(#p6ca680c612)" d="M 132.545455 231.745797 
L 132.789454 196.622669 
L 133.033188 212.539294 
L 133.276164 182.755088 
L 133.51989 221.621612 
L 133.773226 179.67556 
L 134.251191 248.577103 
L 134.494227 243.231097 
L 134.981358 163.371618 
L 135.234704 260.773265 
L 135.469503 211.903956 
L 135.712572 207.730348 
L 135.956353 260.893919 
L 136.199936 265.237596 
L 136.443758 258.306322 
L 136.697056 294.348795 
L 136.930687 291.344975 
L 137.17463 302.444261 
L 137.418368 284.87319 
L 137.661456 300.102074 
L 137.905092 300.767621 
L 138.158504 308.532085 
L 138.636591 315.192032 
L 138.8797 318.196223 
L 139.367279 330.564507 
L 139.620315 334.084128 
L 139.853994 343.034979 
L 140.097559 345.583603 
L 140.585323 353.279069 
L 141.082022 352.975853 
L 141.316005 356.084287 
L 141.560064 356.053891 
L 141.803729 357.693238 
L 142.047345 357.886056 
L 142.777914 363.066656 
L 143.021756 363.471407 
L 144.970861 363.471407 
L 145.214619 362.688563 
L 145.467969 363.471407 
L 147.894133 363.471407 
L 148.138108 362.648284 
L 148.391282 362.695463 
L 148.625277 363.471407 
L 149.356165 363.471407 
L 149.599871 362.700313 
L 149.852958 362.680173 
L 150.086908 363.471407 
L 155.934272 363.471407 
L 156.177896 362.674764 
L 156.421538 363.471407 
L 160.085476 363.471407 
L 160.31914 362.606699 
L 160.563013 363.471407 
L 165.679521 363.471407 
L 165.932811 362.704229 
L 166.166419 363.471407 
L 166.410219 362.678493 
L 166.653796 363.471407 
L 168.855821 363.471407 
L 169.090159 362.704043 
L 169.334119 363.471407 
L 169.577156 363.471407 
L 169.821088 362.687073 
L 170.064887 363.471407 
L 170.795303 363.471407 
L 171.038913 362.705906 
L 171.282956 363.471407 
L 177.130016 363.471407 
L 177.37412 362.560549 
L 177.626671 362.433372 
L 177.861075 361.984886 
L 178.104174 359.182651 
L 178.348274 359.586008 
L 178.591639 358.275987 
L 178.835489 357.864984 
L 179.088156 356.618181 
L 179.322817 357.134915 
L 180.053473 357.224426 
L 180.297333 356.839159 
L 181.027845 354.242052 
L 181.271604 354.530165 
L 181.515386 353.361867 
L 182.011874 347.582668 
L 182.246185 347.278705 
L 182.490006 344.975678 
L 182.732982 344.820526 
L 183.220228 334.892148 
L 183.473886 333.743243 
L 183.708007 335.273125 
L 183.951952 328.257563 
L 184.194864 325.443766 
L 184.438597 323.987731 
L 184.682171 328.167306 
L 185.169754 322.346335 
L 185.412861 318.430443 
L 185.900322 301.314008 
L 186.144321 282.052679 
L 186.397397 285.401674 
L 186.631416 291.00931 
L 186.875267 284.898736 
L 187.362437 258.586602 
L 187.606294 260.29886 
L 187.859389 255.256443 
L 188.093532 253.525162 
L 188.336942 252.926563 
L 188.580759 251.669874 
L 188.824376 248.14242 
L 189.068103 247.725824 
L 189.321647 250.720131 
L 189.555312 248.267734 
L 189.798547 248.136451 
L 190.042218 267.194515 
L 190.286022 267.088037 
L 190.529733 267.869575 
L 190.782816 262.990511 
L 191.016791 272.850454 
L 191.26069 275.714413 
L 191.503636 287.172114 
L 191.747184 291.553273 
L 192.244269 280.220327 
L 192.722237 278.186203 
L 192.966175 282.180792 
L 193.209323 276.937907 
L 193.453146 277.047371 
L 194.427365 267.102954 
L 194.671362 256.36488 
L 194.915266 254.234718 
L 195.16865 248.918175 
L 195.402208 235.58747 
L 195.646228 236.861873 
L 195.88938 234.039499 
L 196.133446 237.541406 
L 196.376193 245.497015 
L 196.630299 248.132534 
L 196.86356 254.939054 
L 197.107737 255.098494 
L 197.351415 253.931129 
L 197.59446 248.871929 
L 197.838348 246.332445 
L 198.09167 247.526289 
L 198.325404 253.48451 
L 198.56931 247.706428 
L 198.813101 246.462235 
L 199.056788 253.434348 
L 199.553742 240.227277 
L 199.787615 242.298137 
L 200.518877 219.130799 
L 201.249054 223.60203 
L 201.493269 248.072862 
L 201.736839 248.56144 
L 201.980223 267.143047 
L 202.2239 273.397587 
L 202.477174 276.302009 
L 202.711278 276.410916 
L 202.954357 283.21389 
L 203.442128 273.225838 
L 203.685729 274.07488 
L 203.938361 276.436089 
L 204.173184 276.918141 
L 204.417114 277.950119 
L 204.659935 285.223398 
L 204.903816 288.600549 
L 205.147396 299.645012 
L 205.400683 298.456948 
L 205.634978 299.391772 
L 205.878055 301.722398 
L 206.609571 319.841909 
L 206.862315 319.349601 
L 207.096732 321.130671 
L 207.34015 325.330575 
L 207.584206 327.364882 
L 207.827539 324.70139 
L 208.071392 328.293366 
L 208.324098 327.210665 
L 208.802097 329.051781 
L 209.288956 334.310142 
L 209.532468 336.961141 
L 209.785838 337.93606 
L 210.264031 344.337917 
L 210.750864 350.424808 
L 210.994755 350.137442 
L 211.48145 353.384616 
L 211.725329 354.350769 
L 211.969475 354.848297 
L 212.709249 358.228248 
L 213.187117 362.842695 
L 213.430899 363.471407 
L 220.496266 363.471407 
L 220.740239 362.671037 
L 220.983065 363.471407 
L 221.226705 362.684276 
L 221.479818 363.471407 
L 222.445085 363.471407 
L 222.688586 362.679427 
L 222.9419 363.471407 
L 224.150792 363.471407 
L 224.404294 362.673647 
L 224.637455 362.683157 
L 224.881378 363.471407 
L 225.125034 363.471407 
L 225.369109 362.618635 
L 225.612307 363.471407 
L 229.510258 363.471407 
L 229.754267 362.705346 
L 229.99755 363.471407 
L 230.972592 363.471407 
L 231.215532 362.643624 
L 231.459353 363.471407 
L 236.575949 363.471407 
L 236.819518 362.692107 
L 237.062673 362.641944 
L 237.306858 363.471407 
L 246.565199 363.471407 
L 246.808339 362.280085 
L 247.051612 359.172395 
L 247.295618 357.537155 
L 247.538795 356.673379 
L 247.792457 356.484661 
L 248.026817 355.294733 
L 249.000822 341.186031 
L 249.254411 340.368877 
L 249.487777 340.202722 
L 249.731824 342.817918 
L 249.975652 337.5355 
L 250.219357 337.715826 
L 250.463048 332.618583 
L 250.715854 333.171123 
L 250.950122 329.468564 
L 251.924057 300.851723 
L 252.177279 302.094053 
L 252.411641 282.578366 
L 252.655472 289.123813 
L 252.898456 285.873469 
L 253.386259 292.134346 
L 253.873261 269.297077 
L 254.117083 276.716369 
L 254.361141 259.278442 
L 254.604452 258.716952 
L 254.848065 223.350656 
L 255.101248 253.951829 
L 255.335179 258.737092 
L 255.578963 247.513796 
L 255.822745 248.359855 
L 256.309526 264.23508 
L 256.562676 259.50259 
L 256.796575 265.138389 
L 257.040608 266.590693 
L 257.284382 252.399943 
L 257.528336 263.342959 
L 257.771265 247.459157 
L 258.024862 154.55988 
L 258.25831 178.298217 
L 258.502277 227.016663 
L 258.746132 220.343106 
L 258.989561 204.798139 
L 259.23314 242.407601 
L 259.486616 177.617193 
L 259.720399 218.930707 
L 259.964343 141.971551 
L 260.208078 189.302028 
L 260.451893 199.336886 
L 260.694781 162.095906 
L 260.947759 202.868256 
L 261.182875 203.425086 
L 261.426106 152.574055 
L 261.670093 68.16353 
L 261.912873 159.885 
L 262.156832 125.025931 
L 262.409966 173.803679 
L 262.644117 112.618488 
L 262.887976 97.698972 
L 263.375113 131.08541 
L 263.618835 192.740157 
L 263.872097 132.272168 
L 264.105671 208.460417 
L 264.349575 136.044099 
L 264.593421 104.19295 
L 264.836437 137.734727 
L 265.08018 108.820077 
L 265.333388 158.263372 
L 265.567959 96.628018 
L 265.811129 104.068567 
L 266.054836 116.09149 
L 266.298703 108.558447 
L 266.542444 112.997042 
L 266.795741 178.402647 
L 267.029609 95.422051 
L 267.273534 136.372491 
L 267.516472 77.633916 
L 267.760624 147.300027 
L 268.00358 96.491702 
L 268.256994 122.76169 
L 268.491521 108.858866 
L 268.73511 177.469314 
L 268.978172 167.761354 
L 269.222445 106.863528 
L 269.466222 76.435782 
L 269.71862 171.365639 
L 269.953489 115.596198 
L 270.196468 182.797233 
L 270.440424 177.583254 
L 270.684333 201.995718 
L 270.927595 124.848029 
L 271.181176 194.175866 
L 271.415466 94.108113 
L 271.65845 126.367282 
L 271.902447 119.251392 
L 272.145661 129.147697 
L 272.389299 216.868798 
L 272.6427 140.505817 
L 273.12057 152.904124 
L 273.607677 164.135253 
L 274.338305 175.917428 
L 274.826187 187.397694 
L 275.313247 200.694646 
L 276.043584 229.170694 
L 277.261697 265.957222 
L 277.50583 271.545466 
L 277.749061 286.579295 
L 277.993044 310.79558 
L 278.489242 331.548376 
L 279.952062 346.776701 
L 280.429517 349.993852 
L 281.160546 352.749095 
L 281.647406 354.260141 
L 281.891328 355.054359 
L 282.134627 356.262749 
L 282.378388 356.550302 
L 282.622129 357.420418 
L 282.875536 357.838131 
L 283.352684 360.118222 
L 283.596486 360.143211 
L 283.839629 361.1461 
L 284.083579 363.471407 
L 284.337152 362.685119 
L 284.570923 363.471407 
L 294.072524 363.471407 
L 294.315759 362.707213 
L 294.569536 363.471407 
L 296.509095 363.471407 
L 296.751997 362.691733 
L 296.995987 363.471407 
L 297.492796 363.471407 
L 297.727232 362.68931 
L 297.970208 363.471407 
L 298.214047 363.471407 
L 298.458176 362.702923 
L 298.701209 363.471407 
L 302.842931 363.471407 
L 303.086803 362.655184 
L 303.340694 363.471407 
L 312.83207 363.471407 
L 313.076243 362.703296 
L 313.319095 363.471407 
L 316.730381 363.471407 
L 317.217466 359.410716 
L 317.461395 357.969228 
L 317.958294 347.881781 
L 318.191646 346.924394 
L 318.435486 342.810458 
L 318.679639 345.72943 
L 318.922783 346.092691 
L 319.166651 344.661086 
L 319.653659 347.740614 
L 319.897425 345.214746 
L 320.141224 345.247005 
L 320.384146 338.683285 
L 320.881789 333.98548 
L 321.115355 331.11947 
L 321.359269 334.560399 
L 321.602605 332.009352 
L 321.846494 346.454089 
L 322.090192 325.423069 
L 322.343336 315.111098 
L 322.576956 310.77656 
L 322.820999 309.84565 
L 323.064192 304.033072 
L 323.308064 294.492945 
L 323.551445 294.686137 
L 323.804992 291.319799 
L 324.039044 292.582828 
L 324.282942 296.209306 
L 324.526838 296.548698 
L 324.770153 302.731067 
L 325.013888 287.945818 
L 325.501295 273.077585 
L 325.744401 272.162157 
L 325.988594 274.327934 
L 326.2314 284.009787 
L 326.728644 291.174159 
L 326.962897 291.14451 
L 327.206461 289.79943 
L 327.449506 283.653423 
L 327.693532 284.251278 
L 327.937122 282.109557 
L 328.190471 290.48176 
L 328.423958 293.696488 
L 328.668054 284.551884 
L 328.912007 266.385008 
L 329.155389 261.463615 
L 329.399184 263.003381 
L 329.652705 254.02493 
L 330.129838 261.66986 
L 330.860521 254.431457 
L 331.114155 246.530673 
L 331.348322 250.364513 
L 331.591394 249.882651 
L 332.078955 238.75539 
L 332.322633 224.617602 
L 332.576168 187.202636 
L 332.809339 75.769675 
L 333.297423 85.828032 
L 333.540326 129.612033 
L 333.784174 109.09066 
L 334.271772 165.683222 
L 334.514729 187.453636 
L 334.758881 133.55366 
L 335.002109 128.156928 
L 335.245862 181.116118 
L 335.732689 124.594789 
L 335.976561 164.044435 
L 336.220257 137.689039 
L 336.464183 174.899063 
L 336.707871 177.163488 
L 336.961236 181.70931 
L 337.195006 173.443399 
L 337.438851 177.495609 
L 337.682003 193.763932 
L 337.925838 199.604113 
L 338.169364 210.411372 
L 338.422824 199.955441 
L 338.656426 197.878239 
L 338.89995 217.622923 
L 339.143727 200.760474 
L 339.387667 214.255842 
L 339.631352 219.068144 
L 339.884438 195.46836 
L 340.361875 201.029378 
L 340.605954 193.331113 
L 340.849611 175.980833 
L 341.093562 140.687076 
L 341.346446 203.110681 
L 341.823905 178.434534 
L 342.06775 131.971935 
L 342.807669 197.740058 
L 343.041696 192.797593 
L 343.285565 98.168901 
L 343.529379 175.878269 
L 343.772969 174.689645 
L 344.016807 154.783281 
L 344.270205 240.890961 
L 344.503711 160.932644 
L 344.747657 234.496004 
L 344.991569 233.877449 
L 345.234637 235.441084 
L 345.478547 240.688816 
L 345.731789 195.807939 
L 345.965799 249.315752 
L 346.210093 250.576541 
L 346.45323 271.010642 
L 346.94008 206.2814 
L 347.193717 294.901895 
L 347.427645 235.068496 
L 347.671026 245.264474 
L 348.158334 315.624105 
L 348.402205 313.165926 
L 348.655455 330.248422 
L 348.889359 327.065023 
L 349.133345 335.037601 
L 349.376515 337.402167 
L 349.864096 343.105284 
L 350.594939 347.600568 
L 351.812915 352.96765 
L 352.056848 353.561402 
L 353.762065 360.105355 
L 354.005178 360.368106 
L 354.736286 363.471407 
L 366.197179 363.471407 
L 366.431046 362.693226 
L 366.674214 363.471407 
L 370.81631 363.471407 
L 371.059496 362.66022 
L 371.303219 363.471407 
L 373.008444 363.471407 
L 373.252179 362.637468 
L 373.505803 363.471407 
L 373.73952 363.471407 
L 373.98329 362.552247 
L 374.226977 363.471407 
L 374.47074 362.705162 
L 374.714348 363.471407 
L 375.201562 363.471407 
L 375.444794 362.706466 
L 375.68878 363.471407 
L 378.612513 363.471407 
L 378.855738 362.700313 
L 379.09974 363.471407 
L 386.164704 363.471407 
L 386.661161 362.761947 
L 386.896021 361.890155 
L 387.626302 357.070766 
L 387.870303 355.873565 
L 388.357673 356.113006 
L 388.60113 356.021072 
L 388.844244 354.84718 
L 389.088343 354.832074 
L 389.819906 351.87096 
L 390.06299 349.914411 
L 390.79388 341.398992 
L 391.047442 340.889155 
L 392.012029 332.908933 
L 392.508622 330.613179 
L 392.743508 328.506701 
L 392.98666 328.761618 
L 393.229775 326.748567 
L 393.473694 326.482647 
L 393.717763 324.16787 
L 393.970362 320.336827 
L 394.447855 304.215077 
L 394.691897 302.002305 
L 394.935275 297.159606 
L 395.179056 295.490051 
L 395.432282 291.386374 
L 395.910551 279.522894 
L 396.153773 276.266953 
L 396.64142 286.700692 
L 396.893903 292.80101 
L 397.127824 284.611556 
L 397.371809 259.897743 
L 397.615621 209.291186 
L 397.85886 208.674124 
L 398.102605 230.322022 
L 398.589815 248.729086 
L 399.077025 257.737933 
L 399.320625 268.216053 
L 399.564825 283.659203 
L 399.817322 278.266578 
L 400.051277 277.08243 
L 400.294798 285.936497 
L 400.782402 294.374341 
L 401.026065 295.793453 
L 401.279243 298.93359 
L 401.513557 295.781707 
L 402.244385 276.802337 
L 402.488171 279.088394 
L 402.741547 275.340706 
L 402.975172 274.63805 
L 403.218592 278.206156 
L 403.462528 275.668911 
L 403.94951 260.909582 
L 404.202675 260.04413 
L 404.437314 257.112851 
L 404.680904 258.419889 
L 404.9242 253.928892 
L 405.168021 252.025679 
L 405.411839 247.054867 
L 405.664747 227.42599 
L 405.898661 226.243892 
L 406.142756 214.874023 
L 406.386004 217.128192 
L 406.629916 237.176838 
L 407.126557 223.057136 
L 407.360625 219.127256 
L 407.604526 189.540908 
L 407.848319 193.204866 
L 408.091043 174.086009 
L 408.334973 189.099696 
L 408.588196 178.440876 
L 408.822932 175.533838 
L 409.065909 123.964674 
L 409.309471 163.250964 
L 409.553632 121.087288 
L 409.796746 196.762342 
L 410.050406 128.067977 
L 410.284475 131.457997 
L 410.771758 133.345361 
L 411.014785 133.934077 
L 411.512507 137.977895 
L 411.745683 136.618831 
L 411.990016 140.664886 
L 412.232863 140.846518 
L 412.47701 140.865351 
L 412.973614 145.847909 
L 413.938357 160.854136 
L 414.182071 168.436784 
L 414.435567 170.167692 
L 414.913253 182.607025 
L 415.15713 187.908649 
L 415.400119 197.302389 
L 415.644109 201.538282 
L 416.375133 233.810504 
L 416.861959 248.472116 
L 417.105885 252.731318 
L 417.359299 261.298579 
L 417.592925 263.472376 
L 417.836744 274.203364 
L 418.567681 325.133093 
L 419.055181 334.036202 
L 419.542601 339.142771 
L 420.029312 344.122159 
L 420.282832 345.377915 
L 420.516554 347.536046 
L 421.744743 353.346577 
L 421.978971 353.834965 
L 423.440367 359.172022 
L 423.684418 359.34545 
L 424.171628 361.447639 
L 424.41463 361.635238 
L 424.667991 363.471407 
L 427.826079 363.471407 
L 428.069441 362.700873 
L 428.312641 363.471407 
L 430.74882 363.471407 
L 430.993196 362.630755 
L 431.236323 363.471407 
L 434.403687 363.471407 
L 434.647686 362.70572 
L 434.900094 362.67775 
L 435.134744 363.471407 
L 435.621632 363.471407 
L 435.865942 362.684276 
L 436.109057 363.471407 
L 436.362755 363.471407 
L 436.596658 362.635791 
L 436.840001 363.471407 
L 437.083509 362.704789 
L 437.327302 363.471407 
L 439.285789 363.471407 
L 439.520234 362.676443 
L 439.763063 363.471407 
L 446.594671 363.471407 
L 446.8285 362.67085 
L 447.07219 363.471407 
L 456.330499 363.471407 
L 456.585214 362.551412 
L 456.827515 358.228248 
L 457.061781 357.02825 
L 457.548587 348.534648 
L 457.792253 345.883463 
L 458.289462 353.471144 
L 458.523074 352.309746 
L 458.766895 353.78667 
L 459.010425 350.562429 
L 459.497321 327.71789 
L 459.984482 320.335894 
L 460.228499 320.535615 
L 460.472164 318.332353 
L 461.212837 295.649493 
L 461.446564 303.801651 
L 461.690385 297.521191 
L 462.177187 278.018744 
L 462.421081 271.274325 
L 462.674136 268.183421 
L 466.075493 183.221103 
L 466.562926 174.456171 
L 467.060218 169.229885 
L 467.293391 169.530491 
L 468.521145 156.818338 
L 468.755224 157.020296 
L 468.999068 156.499459 
L 469.242884 155.354844 
L 469.48594 155.307105 
L 469.729934 155.393259 
L 469.983644 155.056661 
L 470.21753 153.148971 
L 470.460918 153.17079 
L 470.704947 153.99615 
L 470.94799 154.032142 
L 471.191965 154.524821 
L 471.92325 153.998574 
L 472.166385 154.29284 
L 472.410174 153.432981 
L 472.90672 155.549716 
L 473.141026 155.753537 
L 473.628077 156.900389 
L 473.872054 155.873071 
L 474.114919 154.284636 
L 474.368191 148.300679 
L 474.602258 150.245852 
L 474.846318 148.657604 
L 475.333422 148.387394 
L 475.577306 148.528184 
L 475.83046 149.138722 
L 476.307654 152.468321 
L 476.551624 153.300021 
L 477.0387 151.773681 
L 477.291993 149.610887 
L 477.525802 153.448647 
L 477.76982 153.34142 
L 478.257703 150.541981 
L 478.500883 150.887716 
L 478.987727 152.638577 
L 479.475022 150.179653 
L 479.718883 149.994291 
L 480.215848 148.388324 
L 480.449737 150.396715 
L 480.937407 152.389066 
L 481.1804 153.948411 
L 481.424035 153.112609 
L 481.677277 154.489018 
L 482.398741 156.340203 
L 482.64233 155.023655 
L 483.139661 157.450879 
L 483.61716 159.669615 
L 483.86033 161.368823 
L 484.10443 162.155954 
L 484.347487 165.844901 
L 485.565733 200.305649 
L 485.809905 205.270491 
L 486.063143 214.397568 
L 486.297163 227.070745 
L 486.540319 227.363145 
L 487.524737 264.533633 
L 487.758458 267.425193 
L 488.246032 292.173692 
L 488.732932 328.099987 
L 489.22056 337.42473 
L 489.464253 340.044589 
L 489.707228 340.605705 
L 490.195036 345.213439 
L 491.169771 350.51637 
L 491.413007 351.013711 
L 491.910305 353.637857 
L 492.143706 353.962892 
L 493.372202 358.332119 
L 493.605983 358.443073 
L 493.849791 359.443725 
L 494.092544 359.603724 
L 494.580544 361.863489 
L 494.834105 362.058731 
L 495.067643 363.471407 
L 495.554572 363.471407 
L 495.798578 362.617142 
L 496.042324 363.471407 
L 498.965529 363.471407 
L 499.218755 362.642504 
L 499.453059 363.471407 
L 502.376464 363.471407 
L 502.62048 362.580966 
L 502.863431 363.471407 
L 507.49286 363.471407 
L 507.736069 362.657981 
L 507.993515 363.471407 
L 513.096187 363.471407 
L 513.340087 362.657424 
L 513.583265 363.471407 
L 518.943439 363.471407 
L 519.18733 362.644928 
L 519.430069 363.471407 
L 525.530751 363.471407 
L 525.764986 362.683716 
L 526.008917 363.471407 
L 526.496046 363.471407 
L 526.750052 362.350947 
L 526.993054 362.352997 
L 527.226693 363.471407 
L 527.470955 359.331464 
L 527.957338 357.724937 
L 529.419481 352.242428 
L 530.150349 348.063226 
L 530.881316 339.944635 
L 531.124989 324.204422 
L 531.378296 319.975429 
L 532.099634 290.519055 
L 533.074165 265.604774 
L 533.317051 260.107345 
L 533.805105 247.197897 
L 534.779344 225.661516 
L 535.023031 221.41723 
L 535.51005 208.168577 
L 535.763424 204.534642 
L 535.997238 195.668452 
L 536.485141 188.530933 
L 536.972131 180.632013 
L 537.2253 168.705688 
L 537.459255 167.684899 
L 537.946616 158.949246 
L 538.189614 158.475398 
L 538.686898 155.24743 
L 538.920665 158.427475 
L 539.164449 152.499463 
L 539.408449 155.409482 
L 539.652209 152.903004 
L 539.895073 153.830744 
L 540.148678 153.702258 
L 540.383023 154.768178 
L 540.626667 153.289764 
L 540.870441 153.793819 
L 541.113584 153.788225 
L 541.357503 155.37629 
L 541.610923 147.985901 
L 541.844158 149.853498 
L 542.087982 149.50795 
L 542.819293 152.318018 
L 543.072947 152.567715 
L 543.306679 150.885853 
L 543.549849 151.431679 
L 543.793669 149.840818 
L 544.037451 149.960539 
L 544.533848 151.446223 
L 544.7687 150.736667 
L 545.012067 150.792425 
L 545.499052 147.361193 
L 545.743028 147.042873 
L 545.995927 146.256113 
L 546.23004 147.685481 
L 546.473804 146.413316 
L 546.717556 147.592803 
L 546.960543 145.736768 
L 547.20414 148.225528 
L 547.45756 142.296586 
L 547.692039 148.818534 
L 548.178976 149.90329 
L 548.423053 150.486786 
L 548.665948 150.116622 
L 548.919449 150.88063 
L 549.153252 150.116435 
L 549.396931 150.787762 
L 549.64086 150.944592 
L 549.884824 152.177785 
L 550.128051 151.300769 
L 550.381639 151.180303 
L 550.61524 152.53452 
L 550.85912 152.165291 
L 551.102516 150.961375 
L 551.346271 151.941327 
L 551.590314 151.603426 
L 552.076985 156.223279 
L 552.320956 159.762483 
L 552.564093 157.024959 
L 553.304569 161.220944 
L 553.539253 160.927984 
L 553.782377 164.891614 
L 554.026326 165.504202 
L 554.269454 170.610768 
L 554.513242 172.970487 
L 554.766942 180.980545 
L 555.488509 194.094188 
L 555.975422 211.742837 
L 556.228828 220.278771 
L 556.46259 223.359979 
L 556.94942 242.523218 
L 557.19314 246.330581 
L 557.437171 254.093182 
L 557.924441 298.317648 
L 558.168359 291.384881 
L 558.655428 320.461397 
L 559.152153 335.173171 
L 559.629787 341.435915 
L 559.872995 342.521228 
L 560.847986 349.54052 
L 561.335173 351.805132 
L 561.57889 352.329329 
L 561.822658 353.589185 
L 562.075244 353.93809 
L 562.309875 354.549931 
L 562.553634 355.527457 
L 562.79636 355.965687 
L 563.040568 356.935943 
L 563.284239 357.252772 
L 563.536873 357.955428 
L 563.771809 359.288012 
L 564.015066 359.36932 
L 564.502427 361.601299 
L 564.745481 361.505074 
L 564.999046 363.471407 
L 565.233248 362.884094 
L 565.477193 363.471407 
L 566.938222 363.471407 
L 567.182122 362.689123 
L 567.426274 363.471407 
L 571.811564 363.471407 
L 572.054582 362.666 
L 572.307934 363.471407 
L 573.769262 363.471407 
L 574.003614 362.684836 
L 574.247627 363.471407 
L 574.978535 363.471407 
L 575.23222 362.68092 
L 575.465746 363.471407 
L 577.658417 363.471407 
L 577.902191 362.701246 
L 578.15524 363.471407 
L 580.825468 363.471407 
L 581.078933 362.697143 
L 581.31288 363.471407 
L 585.21123 363.471407 
L 585.463961 362.666933 
L 585.69793 363.471407 
L 590.083204 363.471407 
L 590.327054 362.707213 
L 590.571175 363.471407 
L 596.417968 363.471407 
L 597.158398 362.151412 
L 597.392045 363.471407 
L 597.635974 359.361114 
L 598.619851 356.463961 
L 599.584601 353.113849 
L 600.315782 349.351988 
L 600.559681 348.464157 
L 600.802859 346.841596 
L 601.04661 344.220247 
L 601.290605 325.457939 
L 601.777133 308.915863 
L 602.264896 288.948147 
L 603.969959 244.400325 
L 604.213975 240.162382 
L 604.467437 232.225049 
L 604.7014 229.571814 
L 606.406416 194.740528 
L 606.650502 192.417175 
L 606.893645 179.652063 
L 607.137531 175.256731 
L 607.391325 173.242747 
L 607.624592 172.718553 
L 607.868358 168.166948 
L 608.112262 165.813758 
L 608.356303 164.842758 
L 608.599148 165.174877 
L 608.852727 161.895254 
L 609.086278 162.189333 
L 609.330553 162.926862 
L 609.573675 162.304018 
L 609.817325 162.351943 
L 610.061049 162.955581 
L 610.31428 161.395303 
L 610.548445 156.657219 
L 610.792285 157.445469 
L 611.035317 154.934517 
L 611.279181 156.537685 
L 611.522868 155.598945 
L 611.776322 157.078851 
L 612.253747 153.305987 
L 612.497768 148.492008 
L 612.74057 148.061239 
L 612.984474 147.256205 
L 613.238317 149.657509 
L 613.4719 148.187112 
L 613.715648 150.710001 
L 614.446241 153.489486 
L 614.69998 151.893962 
L 615.177507 152.418902 
L 615.421136 149.694059 
L 615.664941 151.465805 
L 615.907868 151.15718 
L 616.161411 151.096388 
L 616.395298 148.734619 
L 616.638973 150.841841 
L 616.882683 151.69331 
L 617.37022 154.840346 
L 617.857385 155.501977 
L 618.100663 159.412275 
L 618.588376 155.842115 
L 618.832018 159.602857 
L 619.085294 154.891068 
L 619.318817 154.103564 
L 619.562848 157.967053 
L 619.806622 163.831103 
L 620.049801 162.651992 
L 620.547107 154.669157 
L 621.024109 153.919695 
L 621.26806 156.202767 
L 621.51183 155.63307 
L 622.008506 159.703928 
L 622.242376 156.155588 
L 622.730061 164.286302 
L 622.97394 164.404716 
L 623.454545 168.182987 
L 623.454545 168.182987 
" style="fill:none;stroke:#1f77b4;stroke-linecap:square;stroke-width:1.5;"/>
   </g>
   <g id="patch_3">
    <path d="M 108 378.236801 
L 108 53.398137 
" style="fill:none;stroke:#000000;stroke-linecap:square;stroke-linejoin:miter;stroke-width:0.8;"/>
   </g>
   <g id="patch_4">
    <path d="M 648 378.236801 
L 648 53.398137 
" style="fill:none;stroke:#000000;stroke-linecap:square;stroke-linejoin:miter;stroke-width:0.8;"/>
   </g>
   <g id="patch_5">
    <path d="M 108 378.236801 
L 648 378.236801 
" style="fill:none;stroke:#000000;stroke-linecap:square;stroke-linejoin:miter;stroke-width:0.8;"/>
   </g>
   <g id="patch_6">
    <path d="M 108 53.398137 
L 648 53.398137 
" style="fill:none;stroke:#000000;stroke-linecap:square;stroke-linejoin:miter;stroke-width:0.8;"/>
   </g>
   <g id="legend_1">
    <g id="patch_7">
     <path d="M 578.090625 76.076262 
L 641 76.076262 
Q 643 76.076262 643 74.076262 
L 643 60.398137 
Q 643 58.398137 641 58.398137 
L 578.090625 58.398137 
Q 576.090625 58.398137 576.090625 60.398137 
L 576.090625 74.076262 
Q 576.090625 76.076262 578.090625 76.076262 
z
" style="fill:#ffffff;opacity:0.8;stroke:#cccccc;stroke-linejoin:miter;"/>
    </g>
    <g id="line2d_30">
     <path d="M 580.090625 66.496574 
L 600.090625 66.496574 
" style="fill:none;stroke:#1f77b4;stroke-linecap:square;stroke-width:1.5;"/>
    </g>
    <g id="line2d_31"/>
    <g id="text_17">
     <!-- power -->
     <g transform="translate(608.090625 69.996574)scale(0.1 -0.1)">
      <use xlink:href="#DejaVuSans-70"/>
      <use x="63.476562" xlink:href="#DejaVuSans-6f"/>
      <use x="124.658203" xlink:href="#DejaVuSans-77"/>
      <use x="206.445312" xlink:href="#DejaVuSans-65"/>
      <use x="267.96875" xlink:href="#DejaVuSans-72"/>
     </g>
    </g>
   </g>
  </g>
 </g>
 <defs>
  <clipPath id="p6ca680c612">
   <rect height="324.838664" width="540" x="108" y="53.398137"/>
  </clipPath>
 </defs>
</svg>
